<?xml version="1.0" encoding="UTF-8" standalone="no"?>
<svg
   xmlns:dc="http://purl.org/dc/elements/1.1/"
   xmlns:cc="http://creativecommons.org/ns#"
   xmlns:rdf="http://www.w3.org/1999/02/22-rdf-syntax-ns#"
   xmlns:svg="http://www.w3.org/2000/svg"
   xmlns="http://www.w3.org/2000/svg"
   viewBox="0 0 267.14401 197.53333"
   height="197.53333"
   width="267.14401"
   xml:space="preserve"
   id="svg2"
   version="1.1"><metadata
     id="metadata8"><rdf:RDF><cc:Work
         rdf:about=""><dc:format>image/svg+xml</dc:format><dc:type
           rdf:resource="http://purl.org/dc/dcmitype/StillImage" /></cc:Work></rdf:RDF></metadata><defs
     id="defs6"><clipPath
       id="clipPath18"
       clipPathUnits="userSpaceOnUse"><path
         id="path16"
         d="M 0,148.15 H 200.358 V 0 H 0 Z" /></clipPath></defs><g
     transform="matrix(1.3333333,0,0,-1.3333333,0,197.53333)"
     id="g10"><g
       id="g12"><g
         clip-path="url(#clipPath18)"
         id="g14"><g
           transform="translate(114.3748,117.3918)"
           id="g20"><path
             id="path22"
             style="fill:#efdd20;fill-opacity:1;fill-rule:nonzero;stroke:none"
             d="m 0,0 c 7.897,-7.787 7.897,-20.468 0,-28.366 -7.786,-7.785 -20.467,-7.785 -28.254,0 -7.785,7.898 -7.785,20.579 0,28.366 C -20.467,7.786 -7.786,7.786 0,0 m -23.248,21.133 c 0,-1.445 -0.556,-2.669 -1.446,-3.558 -2.426,-2.427 -64.951,-64.861 -78.321,-78.297 h 14.116 c 15.769,15.788 33.895,33.922 35.84,35.804 0.89,1.001 2.225,1.558 3.672,1.558 1.333,0 2.669,-0.557 3.559,-1.446 1.232,-1.232 17.959,-17.983 35.879,-35.916 H 4.226 c -4.063,4.058 -6.88,6.869 -7.562,7.551 -1.003,0.891 -1.559,2.226 -1.559,3.671 0,1.447 0.556,2.67 1.447,3.559 2.336,2.336 60.359,60.36 76.623,76.7 H 58.856 C 43.508,15.398 26.62,-1.523 24.805,-3.337 c -0.891,-1.001 -2.225,-1.67 -3.671,-1.67 -1.445,0 -2.669,0.669 -3.559,1.558 -1.194,1.193 -16.934,16.932 -34.219,34.208 h -14.218 c 3.184,-3.191 5.357,-5.368 5.946,-5.955 1.001,-0.89 1.668,-2.224 1.668,-3.671" /></g><g
           transform="translate(21.0322,144.4153)"
           id="g24"><path
             id="path26"
             style="fill:#007f46;fill-opacity:1;fill-rule:nonzero;stroke:none"
             d="m 0,0 c -0.465,-0.489 -18.724,-18.788 -19.225,-19.29 -1.002,-1.001 -1.558,-2.224 -1.558,-3.67 0,0 -0.027,-58.265 -0.067,-59.239 -0.159,-3.897 0.715,-5.568 4.375,-5.568 1.293,0 6.802,0.021 6.802,0.021 13.37,13.437 75.895,75.87 78.322,78.298 0.89,0.888 1.446,2.113 1.446,3.557 0,1.447 -0.668,2.782 -1.668,3.671 -0.589,0.587 -2.762,2.764 -5.946,5.955 0,0 -50.492,-0.046 -52.076,-0.051 C 4.314,3.684 3.972,3.666 0,0" /></g><g
           transform="translate(135.5091,112.3848)"
           id="g28"><path
             id="path30"
             style="fill:#007f46;fill-opacity:1;fill-rule:nonzero;stroke:none"
             d="m 0,0 c 1.446,0 2.78,0.669 3.671,1.67 1.815,1.814 18.703,18.735 34.051,34.096 h -75.5 C -20.493,18.49 -4.753,2.751 -3.559,1.558 -2.67,0.669 -1.445,0 0,0" /></g><g
           transform="translate(110.9266,71.4506)"
           id="g32"><path
             id="path34"
             style="fill:#007f46;fill-opacity:1;fill-rule:nonzero;stroke:none"
             d="m 0,0 c -0.891,-0.889 -1.447,-2.112 -1.447,-3.558 0,-1.446 0.556,-2.781 1.559,-3.671 0.682,-0.683 3.499,-3.494 7.563,-7.552 0,0 45.352,-0.021 45.771,-0.021 9.703,0 9.9,0.021 16.702,6.84 1.112,1.113 17.17,17.246 17.726,17.914 0.89,0.889 1.446,2.112 1.558,3.559 0,0 -0.056,56.089 -0.056,57.908 0,4.454 -2.148,5.25 -4.692,5.25 -2.627,0 -8.061,0.031 -8.061,0.031 C 60.359,60.36 2.336,2.336 0,0" /></g><g
           transform="translate(64.9874,94.0322)"
           id="g36"><path
             id="path38"
             style="fill:#007f46;fill-opacity:1;fill-rule:nonzero;stroke:none"
             d="M 0,0 C -1.447,0 -2.782,-0.556 -3.671,-1.558 -5.616,-3.441 -23.743,-21.575 -39.512,-37.363 H 39.439 C 21.519,-19.43 4.791,-2.679 3.56,-1.447 2.67,-0.556 1.334,0 0,0" /></g><g
           transform="translate(120.4122,103.397)"
           id="g40"><path
             id="path42"
             style="fill:#006eae;fill-opacity:1;fill-rule:nonzero;stroke:none"
             d="m 0,0 c 0,-11.145 -9.035,-20.18 -20.179,-20.18 -11.145,0 -20.18,9.035 -20.18,20.18 0,11.146 9.035,20.181 20.18,20.181 C -9.035,20.181 0,11.146 0,0" /></g><g
           transform="translate(6.5755,11.008)"
           id="g44"><path
             id="path46"
             style="fill:#006eae;fill-opacity:1;fill-rule:nonzero;stroke:none"
             d="M 0,0 -2.484,-6.183 H 2.483 Z M -0.876,1.68 H 1 L 6.272,-10.793 H 4.324 l -1.268,3.144 h -6.112 l -1.269,-3.144 H -6.2 Z" /></g><g
           transform="translate(24.302,12.6879)"
           id="g48"><path
             id="path50"
             style="fill:#006eae;fill-opacity:1;fill-rule:nonzero;stroke:none"
             d="m 0,0 h 6.987 v -1.573 h -5.2 V -5.218 H 6.522 V -6.791 H 1.787 v -4.111 h 5.2 v -1.571 H 0 Z" /></g><g
           transform="translate(45.3879,7.327)"
           id="g52"><path
             id="path54"
             style="fill:#006eae;fill-opacity:1;fill-rule:nonzero;stroke:none"
             d="M 0,0 H 1.519 C 2.377,0 3.04,0.172 3.512,0.518 3.982,0.864 4.217,1.34 4.217,1.948 4.217,2.52 4.005,2.969 3.583,3.297 3.16,3.624 2.537,3.788 1.715,3.788 H 0 Z m -1.786,5.361 h 3.055 c 0.62,0 1.218,-0.036 1.795,-0.108 C 3.642,5.182 4.158,5.027 4.61,4.788 5.063,4.55 5.427,4.211 5.7,3.77 5.975,3.329 6.112,2.734 6.112,1.983 6.112,1.602 6.046,1.25 5.914,0.929 5.784,0.607 5.602,0.324 5.37,0.08 5.138,-0.165 4.864,-0.367 4.548,-0.528 4.232,-0.688 3.896,-0.799 3.538,-0.858 V -0.894 C 3.813,-1.001 4.033,-1.141 4.2,-1.314 4.366,-1.486 4.55,-1.763 4.754,-2.145 L 7.112,-7.112 H 5.075 L 3.163,-2.788 C 3.02,-2.49 2.877,-2.258 2.734,-2.091 2.592,-1.925 2.436,-1.802 2.269,-1.725 2.103,-1.647 1.921,-1.602 1.724,-1.591 1.528,-1.579 1.31,-1.573 1.072,-1.573 H 0 v -5.539 h -1.786 z" /></g><g
           transform="translate(65.438,6.4514)"
           id="g56"><path
             id="path58"
             style="fill:#006eae;fill-opacity:1;fill-rule:nonzero;stroke:none"
             d="m 0,0 c 0,-0.62 0.081,-1.221 0.241,-1.806 0.161,-0.583 0.408,-1.104 0.742,-1.563 0.333,-0.458 0.759,-0.825 1.278,-1.099 0.517,-0.274 1.134,-0.411 1.849,-0.411 0.715,0 1.331,0.137 1.849,0.411 0.518,0.274 0.944,0.641 1.278,1.099 0.333,0.459 0.581,0.98 0.742,1.563 C 8.139,-1.221 8.22,-0.62 8.22,0 8.22,0.631 8.133,1.241 7.961,1.831 7.788,2.421 7.532,2.942 7.193,3.395 6.853,3.847 6.426,4.208 5.914,4.476 5.402,4.744 4.801,4.878 4.11,4.878 3.419,4.878 2.817,4.744 2.305,4.476 1.793,4.208 1.367,3.847 1.027,3.395 0.687,2.942 0.431,2.421 0.259,1.831 0.086,1.241 0,0.631 0,0 m -1.895,0 c 0,0.929 0.134,1.787 0.402,2.573 0.269,0.787 0.662,1.465 1.18,2.038 0.518,0.571 1.147,1.02 1.885,1.348 C 2.31,6.286 3.156,6.451 4.11,6.451 5.05,6.451 5.894,6.286 6.639,5.959 7.383,5.631 8.014,5.182 8.533,4.611 9.05,4.038 9.444,3.36 9.712,2.573 9.98,1.787 10.114,0.929 10.114,0 10.114,-0.953 9.98,-1.823 9.712,-2.609 9.444,-3.396 9.054,-4.074 8.541,-4.647 8.029,-5.218 7.401,-5.663 6.656,-5.978 5.912,-6.293 5.063,-6.451 4.11,-6.451 c -0.954,0 -1.802,0.158 -2.546,0.473 -0.746,0.315 -1.374,0.76 -1.886,1.331 -0.512,0.573 -0.902,1.251 -1.171,2.038 -0.268,0.786 -0.402,1.656 -0.402,2.609" /></g><g
           transform="translate(89.3294,6.7726)"
           id="g60"><path
             id="path62"
             style="fill:#006eae;fill-opacity:1;fill-rule:nonzero;stroke:none"
             d="m 0,0 h 1.769 c 0.274,0 0.56,0.039 0.858,0.116 0.298,0.077 0.568,0.2 0.813,0.367 0.245,0.166 0.444,0.39 0.599,0.67 0.154,0.28 0.232,0.628 0.232,1.045 0,0.392 -0.092,0.726 -0.277,1.001 C 3.809,3.473 3.58,3.693 3.306,3.86 3.032,4.027 2.735,4.149 2.412,4.227 2.091,4.303 1.793,4.342 1.519,4.342 H 0 Z M -1.786,5.915 H 1.483 C 2.126,5.915 2.731,5.852 3.297,5.727 3.862,5.602 4.357,5.397 4.78,5.11 5.203,4.825 5.54,4.444 5.79,3.968 6.04,3.491 6.165,2.894 6.165,2.181 6.165,1.489 6.04,0.905 5.79,0.429 5.54,-0.049 5.209,-0.434 4.798,-0.732 4.387,-1.03 3.916,-1.245 3.386,-1.375 2.856,-1.507 2.311,-1.573 1.752,-1.573 H 0 v -4.985 h -1.786 z" /></g><g
           transform="translate(108.3964,6.4514)"
           id="g64"><path
             id="path66"
             style="fill:#006eae;fill-opacity:1;fill-rule:nonzero;stroke:none"
             d="m 0,0 c 0,-0.62 0.08,-1.221 0.242,-1.806 0.16,-0.583 0.407,-1.104 0.742,-1.563 0.332,-0.458 0.759,-0.825 1.276,-1.099 0.519,-0.274 1.136,-0.411 1.851,-0.411 0.715,0 1.331,0.137 1.848,0.411 0.519,0.274 0.945,0.641 1.279,1.099 0.333,0.459 0.581,0.98 0.741,1.563 C 8.14,-1.221 8.22,-0.62 8.22,0 8.22,0.631 8.134,1.241 7.961,1.831 7.788,2.421 7.533,2.942 7.193,3.395 6.853,3.847 6.427,4.208 5.915,4.476 5.402,4.744 4.801,4.878 4.111,4.878 3.419,4.878 2.817,4.744 2.306,4.476 1.793,4.208 1.368,3.847 1.028,3.395 0.688,2.942 0.432,2.421 0.259,1.831 0.087,1.241 0,0.631 0,0 m -1.894,0 c 0,0.929 0.135,1.787 0.402,2.573 0.268,0.787 0.661,1.465 1.18,2.038 0.518,0.571 1.146,1.02 1.885,1.348 0.738,0.327 1.584,0.492 2.538,0.492 0.94,0 1.783,-0.165 2.528,-0.492 C 7.383,5.631 8.015,5.182 8.533,4.611 9.052,4.038 9.445,3.36 9.712,2.573 9.981,1.787 10.114,0.929 10.114,0 10.114,-0.953 9.981,-1.823 9.712,-2.609 9.445,-3.396 9.054,-4.074 8.542,-4.647 8.03,-5.218 7.401,-5.663 6.657,-5.978 5.913,-6.293 5.063,-6.451 4.111,-6.451 c -0.954,0 -1.802,0.158 -2.547,0.473 -0.745,0.315 -1.373,0.76 -1.885,1.331 -0.513,0.573 -0.903,1.251 -1.171,2.038 -0.267,0.786 -0.402,1.656 -0.402,2.609" /></g><g
           transform="translate(132.2882,7.327)"
           id="g68"><path
             id="path70"
             style="fill:#006eae;fill-opacity:1;fill-rule:nonzero;stroke:none"
             d="M 0,0 H 1.519 C 2.376,0 3.04,0.172 3.512,0.518 3.982,0.864 4.217,1.34 4.217,1.948 4.217,2.52 4.006,2.969 3.583,3.297 3.16,3.624 2.537,3.788 1.715,3.788 H 0 Z M -1.787,5.361 H 1.269 C 1.888,5.361 2.487,5.325 3.064,5.253 3.642,5.182 4.157,5.027 4.61,4.788 5.063,4.55 5.426,4.211 5.7,3.77 5.974,3.329 6.111,2.734 6.111,1.983 6.111,1.602 6.046,1.25 5.915,0.929 5.784,0.607 5.602,0.324 5.37,0.08 5.137,-0.165 4.863,-0.367 4.549,-0.528 4.232,-0.688 3.895,-0.799 3.538,-0.858 v -0.036 c 0.274,-0.107 0.495,-0.247 0.661,-0.42 0.168,-0.172 0.352,-0.449 0.554,-0.831 L 7.112,-7.112 H 5.075 L 3.163,-2.788 C 3.02,-2.49 2.877,-2.258 2.734,-2.091 2.591,-1.925 2.437,-1.802 2.269,-1.725 2.102,-1.647 1.921,-1.602 1.724,-1.591 1.528,-1.579 1.31,-1.573 1.072,-1.573 H 0 v -5.539 h -1.787 z" /></g><g
           transform="translate(153.2498,11.1146)"
           id="g72"><path
             id="path74"
             style="fill:#006eae;fill-opacity:1;fill-rule:nonzero;stroke:none"
             d="M 0,0 H -3.878 V 1.573 H 5.665 V 0 H 1.787 V -10.9 H 0 Z" /></g><g
           transform="translate(171.5123,6.4514)"
           id="g76"><path
             id="path78"
             style="fill:#006eae;fill-opacity:1;fill-rule:nonzero;stroke:none"
             d="m 0,0 c 0,-0.62 0.081,-1.221 0.241,-1.806 0.162,-0.583 0.409,-1.104 0.742,-1.563 0.333,-0.458 0.76,-0.825 1.277,-1.099 0.518,-0.274 1.135,-0.411 1.85,-0.411 0.715,0 1.332,0.137 1.849,0.411 0.519,0.274 0.944,0.641 1.279,1.099 0.333,0.459 0.58,0.98 0.741,1.563 C 8.139,-1.221 8.22,-0.62 8.22,0 8.22,0.631 8.134,1.241 7.961,1.831 7.788,2.421 7.532,2.942 7.193,3.395 6.853,3.847 6.427,4.208 5.914,4.476 5.402,4.744 4.801,4.878 4.11,4.878 3.419,4.878 2.817,4.744 2.305,4.476 1.793,4.208 1.368,3.847 1.028,3.395 0.688,2.942 0.432,2.421 0.259,1.831 0.087,1.241 0,0.631 0,0 m -1.895,0 c 0,0.929 0.135,1.787 0.403,2.573 0.268,0.787 0.661,1.465 1.179,2.038 0.519,0.571 1.147,1.02 1.886,1.348 0.738,0.327 1.585,0.492 2.537,0.492 0.942,0 1.784,-0.165 2.529,-0.492 C 7.383,5.631 8.015,5.182 8.533,4.611 9.052,4.038 9.444,3.36 9.713,2.573 9.981,1.787 10.114,0.929 10.114,0 10.114,-0.953 9.981,-1.823 9.713,-2.609 9.444,-3.396 9.054,-4.074 8.541,-4.647 8.03,-5.218 7.401,-5.663 6.655,-5.978 5.912,-6.293 5.064,-6.451 4.11,-6.451 c -0.952,0 -1.802,0.158 -2.546,0.473 -0.745,0.315 -1.373,0.76 -1.886,1.331 -0.512,0.573 -0.902,1.251 -1.17,2.038 C -1.76,-1.823 -1.895,-0.953 -1.895,0" /></g><g
           transform="translate(199.3891,10.8107)"
           id="g80"><path
             id="path82"
             style="fill:#006eae;fill-opacity:1;fill-rule:nonzero;stroke:none"
             d="M 0,0 C -0.226,0.084 -0.431,0.158 -0.616,0.224 -0.801,0.289 -0.983,0.346 -1.161,0.394 -1.341,0.442 -1.524,0.475 -1.715,0.492 -1.906,0.511 -2.114,0.519 -2.341,0.519 -2.59,0.519 -2.844,0.492 -3.1,0.438 -3.357,0.385 -3.591,0.295 -3.806,0.17 -4.02,0.045 -4.193,-0.124 -4.324,-0.339 c -0.132,-0.215 -0.197,-0.482 -0.197,-0.805 0,-0.404 0.132,-0.735 0.394,-0.991 0.261,-0.256 0.592,-0.491 0.991,-0.706 0.399,-0.214 0.831,-0.426 1.296,-0.633 0.465,-0.21 0.896,-0.468 1.295,-0.778 0.399,-0.311 0.729,-0.691 0.992,-1.144 0.262,-0.453 0.394,-1.018 0.394,-1.697 0,-0.668 -0.12,-1.237 -0.358,-1.707 -0.239,-0.471 -0.565,-0.855 -0.982,-1.153 -0.419,-0.298 -0.903,-0.516 -1.457,-0.653 -0.555,-0.137 -1.142,-0.205 -1.761,-0.205 -0.441,0 -0.872,0.055 -1.295,0.161 -0.424,0.107 -0.843,0.227 -1.26,0.358 l 0.178,1.662 c 0.155,-0.06 0.335,-0.125 0.537,-0.197 0.202,-0.072 0.416,-0.137 0.643,-0.197 0.227,-0.059 0.462,-0.11 0.706,-0.151 0.244,-0.042 0.479,-0.063 0.706,-0.063 0.25,0 0.521,0.039 0.813,0.116 0.292,0.077 0.557,0.197 0.795,0.358 0.238,0.16 0.438,0.369 0.599,0.625 0.161,0.256 0.241,0.569 0.241,0.938 0,0.465 -0.131,0.843 -0.394,1.135 -0.261,0.291 -0.592,0.548 -0.991,0.768 -0.4,0.22 -0.831,0.431 -1.296,0.635 -0.464,0.202 -0.896,0.443 -1.294,0.723 -0.4,0.281 -0.73,0.628 -0.993,1.046 -0.262,0.416 -0.393,0.946 -0.393,1.59 0,0.547 0.104,1.034 0.313,1.456 0.208,0.423 0.491,0.778 0.849,1.064 0.357,0.286 0.78,0.503 1.268,0.652 0.489,0.149 1.013,0.223 1.573,0.223 0.417,0 0.859,-0.035 1.322,-0.107 0.464,-0.071 0.911,-0.185 1.341,-0.339 z" /></g><path
           id="path84"
           style="fill:#006eae;fill-opacity:1;fill-rule:nonzero;stroke:none"
           d="M 7.784,19.852 H 0 v 28.985 h 7.784 z" /><g
           transform="translate(13.1157,19.8516)"
           id="g86"><path
             id="path88"
             style="fill:#006eae;fill-opacity:1;fill-rule:nonzero;stroke:none"
             d="m 0,0 v 28.985 h 9.16 l 4.601,-8.902 c 1.591,-2.881 3.268,-6.752 4.559,-10.148 h 0.129 c -0.43,3.827 -0.603,7.87 -0.603,12.169 v 6.881 h 7.096 V 0 H 16.771 L 11.826,9.633 C 10.234,12.686 8.342,16.6 6.966,20.083 H 6.795 C 7.01,16.17 7.096,11.826 7.096,7.139 V 0 Z" /></g><g
           transform="translate(43.4331,48.8362)"
           id="g90"><path
             id="path92"
             style="fill:#006eae;fill-opacity:1;fill-rule:nonzero;stroke:none"
             d="M 0,0 H 18.621 V -6.364 H 7.783 v -5.332 h 10.192 v -6.279 H 7.783 v -11.01 H 0 Z" /></g><g
           transform="translate(74.5676,36.3222)"
           id="g94"><path
             id="path96"
             style="fill:#006eae;fill-opacity:1;fill-rule:nonzero;stroke:none"
             d="m 0,0 h 2.021 c 2.924,0 4.602,1.419 4.602,3.569 0,2.151 -1.42,3.397 -4,3.397 C 1.162,6.966 0.387,6.881 0,6.795 Z m -7.697,12.084 c 2.193,0.345 5.504,0.645 9.374,0.645 4.43,0 7.612,-0.602 9.805,-2.279 1.849,-1.419 2.839,-3.484 2.839,-6.278 0,-3.613 -2.709,-6.15 -4.945,-7.011 v -0.128 c 1.891,-0.86 2.966,-2.71 3.697,-5.204 0.861,-2.966 1.807,-7.182 2.366,-8.3 H 7.526 c -0.43,0.861 -1.204,3.097 -2.021,6.709 -0.774,3.44 -1.849,4.172 -4.258,4.172 H 0 v -10.881 h -7.697 z" /></g><g
           transform="translate(107.8526,32.2802)"
           id="g98"><path
             id="path100"
             style="fill:#006eae;fill-opacity:1;fill-rule:nonzero;stroke:none"
             d="m 0,0 -1.333,5.204 c -0.43,1.634 -0.989,3.998 -1.419,5.719 H -2.839 C -3.268,9.202 -3.698,6.838 -4.128,5.204 L -5.376,0 Z m -6.408,-5.72 -1.634,-6.709 h -8.042 l 8.43,28.985 H 2.666 L 11.31,-12.429 H 2.924 L 1.075,-5.72 Z" /></g><g
           transform="translate(141.0513,31.5498)"
           id="g102"><path
             id="path104"
             style="fill:#006eae;fill-opacity:1;fill-rule:nonzero;stroke:none"
             d="M 0,0 H -10.406 V -5.333 H 1.247 v -6.365 H -18.191 V 17.286 H 0.645 V 10.922 H -10.406 V 6.278 L 0,6.278 Z" /></g><g
           transform="translate(154.2957,36.3222)"
           id="g106"><path
             id="path108"
             style="fill:#006eae;fill-opacity:1;fill-rule:nonzero;stroke:none"
             d="m 0,0 h 2.021 c 2.924,0 4.603,1.419 4.603,3.569 0,2.151 -1.421,3.397 -4,3.397 C 1.161,6.966 0.388,6.881 0,6.795 Z m -7.697,12.084 c 2.193,0.345 5.505,0.645 9.375,0.645 4.428,0 7.611,-0.602 9.805,-2.279 1.848,-1.419 2.839,-3.484 2.839,-6.278 0,-3.613 -2.711,-6.15 -4.947,-7.011 v -0.128 c 1.892,-0.86 2.967,-2.71 3.699,-5.204 0.86,-2.966 1.807,-7.182 2.365,-8.3 H 7.526 C 7.097,-15.61 6.322,-13.374 5.505,-9.762 4.73,-6.322 3.656,-5.59 1.248,-5.59 H 0 v -10.881 h -7.697 z" /></g><g
           transform="translate(185.9039,25.5288)"
           id="g110"><path
             id="path112"
             style="fill:#006eae;fill-opacity:1;fill-rule:nonzero;stroke:none"
             d="m 0,0 c 3.741,0 5.935,3.612 5.935,8.859 0,4.988 -2.237,8.773 -6.021,8.773 -3.741,0 -6.021,-3.785 -6.021,-8.817 C -6.15,3.612 -3.827,0 -0.086,0 Z m -0.388,-6.15 c -8.987,0 -13.932,6.752 -13.932,14.794 0,8.429 5.504,15.137 14.406,15.137 9.331,0 14.062,-6.924 14.062,-14.665 0,-9.331 -5.59,-15.266 -14.492,-15.266 z" /></g></g></g></g></svg>