<?xml version="1.0" encoding="utf-8"?>
<!-- Generator: Adobe Illustrator 19.0.0, SVG Export Plug-In . SVG Version: 6.00 Build 0)  -->
<svg version="1.0" id="Layer_1" xmlns="http://www.w3.org/2000/svg" xmlns:xlink="http://www.w3.org/1999/xlink" x="0px" y="0px"
	 viewBox="-158 250.9 525 93.4" style="enable-background:new -158 250.9 525 93.4;" xml:space="preserve">
<style type="text/css">
	.st0{fill:#EEDC00;}
	.st1{fill:#007A39;}
	.st2{fill:#0067AC;}
</style>
<path class="st0" d="M-65.1,260.7c0,1.5-0.6,2.7-1.5,3.6c-2.5,2.5-66.3,66.2-80,80h14.4c16.1-16.1,34.6-34.6,36.6-36.6
	c0.9-1,2.3-1.6,3.7-1.6c1.4,0,2.7,0.6,3.6,1.5c1.3,1.3,18.3,18.4,36.6,36.7h14.5c-4.1-4.1-7-7-7.7-7.7c-1-0.9-1.6-2.3-1.6-3.7
	c0-1.5,0.6-2.7,1.5-3.6c2.4-2.4,61.6-61.6,78.2-78.3H18.6c-15.7,15.7-32.9,33-34.8,34.8c-0.9,1-2.3,1.7-3.7,1.7
	c-1.5,0-2.7-0.7-3.6-1.6c-1.2-1.2-17.3-17.3-34.9-34.9h-14.5c3.3,3.3,5.5,5.5,6.1,6.1C-65.8,257.9-65.1,259.3-65.1,260.7
	 M-41.4,282.3c8.1,8,8.1,20.9,0,29c-8,8-20.9,8-28.9,0c-7.9-8.1-7.9-21,0-29C-62.3,274.4-49.3,274.4-41.4,282.3"/>
<path class="st1" d="M-136.7,254.7c-0.5,0.5-19.1,19.2-19.6,19.7c-1,1-1.6,2.3-1.6,3.7c0,0,0,59.5-0.1,60.5c-0.2,4,0.7,5.7,4.5,5.7
	c1.3,0,6.9,0,6.9,0c13.7-13.7,77.5-77.5,80-80c0.9-0.9,1.5-2.2,1.5-3.6c0-1.5-0.7-2.8-1.7-3.7c-0.6-0.6-2.8-2.8-6.1-6.1
	c0,0-51.6,0-53.2,0.1C-132.3,251-132.6,251-136.7,254.7"/>
<path class="st1" d="M-19.8,287.4c1.5,0,2.8-0.7,3.7-1.7c1.9-1.9,19.1-19.1,34.8-34.8h-77.1c17.7,17.6,33.7,33.7,34.9,34.9
	C-22.5,286.7-21.3,287.4-19.8,287.4"/>
<path class="st1" d="M-44.9,329.2c-0.9,0.9-1.5,2.2-1.5,3.6c0,1.5,0.6,2.8,1.6,3.7c0.7,0.7,3.6,3.6,7.7,7.7c0,0,46.3,0,46.7,0
	c9.9,0,10.1,0,17.1-7c1.1-1.1,17.5-17.6,18.1-18.3c0.9-0.9,1.5-2.2,1.6-3.6c0,0-0.1-57.3-0.1-59.1c0-4.5-2.2-5.4-4.8-5.4
	c-2.7,0-8.2,0-8.2,0C16.7,267.6-42.5,326.8-44.9,329.2"/>
<path class="st1" d="M-91.8,306.2c-1.5,0-2.8,0.6-3.7,1.6c-2,1.9-20.5,20.4-36.6,36.6h80.6c-18.3-18.4-35.4-35.5-36.7-36.8
	C-89.1,306.7-90.4,306.2-91.8,306.2"/>
<path class="st2" d="M-35.2,296.6c0,11.4-9.2,20.6-20.6,20.6s-20.6-9.2-20.6-20.6s9.2-20.6,20.6-20.6S-35.2,285.2-35.2,296.6"/>
<path class="st2" d="M63.6,324.4h2.9l8.2,19.5h-3l-2-4.9h-9.5l-2,4.9h-2.9L63.6,324.4z M65,327l-3.9,9.6h7.7L65,327z"/>
<polygon class="st2" points="92.7,324.4 103.6,324.4 103.6,326.9 95.4,326.9 95.4,332.6 102.8,332.6 102.8,335 95.4,335 95.4,341.4 
	103.6,341.4 103.6,343.9 92.7,343.9 "/>
<path class="st2" d="M122.8,324.4h4.8c1,0,1.9,0.1,2.8,0.2s1.7,0.4,2.4,0.7c0.7,0.4,1.3,0.9,1.7,1.6c0.4,0.7,0.6,1.6,0.6,2.8
	c0,0.6-0.1,1.1-0.3,1.6c-0.2,0.5-0.5,0.9-0.9,1.3s-0.8,0.7-1.3,0.9c-0.5,0.3-1,0.4-1.6,0.5v0.1c0.4,0.2,0.8,0.4,1,0.7
	c0.3,0.3,0.5,0.7,0.9,1.3l3.7,7.7h-3.2l-3-6.7c-0.2-0.5-0.4-0.8-0.7-1.1c-0.2-0.3-0.5-0.5-0.7-0.6c-0.3-0.1-0.5-0.2-0.9-0.2
	c-0.3,0-0.6,0-1,0h-1.7v8.7h-2.8v-19.5H122.8z M125.5,332.8h2.4c1.3,0,2.4-0.3,3.1-0.8s1.1-1.3,1.1-2.2s-0.3-1.6-1-2.1
	s-1.6-0.8-2.9-0.8h-2.7V332.8z"/>
<path class="st2" d="M153.9,334.2c0-1.4,0.2-2.8,0.6-4c0.4-1.2,1-2.3,1.8-3.2c0.8-0.9,1.8-1.6,2.9-2.1c1.2-0.5,2.5-0.8,4-0.8
	s2.8,0.3,3.9,0.8c1.2,0.5,2.1,1.2,3,2.1c0.8,0.9,1.4,1.9,1.8,3.2c0.4,1.2,0.6,2.6,0.6,4c0,1.5-0.2,2.8-0.6,4.1
	c-0.4,1.2-1,2.3-1.8,3.2c-0.8,0.9-1.8,1.6-2.9,2.1c-1.2,0.5-2.5,0.7-4,0.7s-2.8-0.2-4-0.7s-2.1-1.2-2.9-2.1c-0.8-0.9-1.4-2-1.8-3.2
	C154.1,337,153.9,335.6,153.9,334.2 M156.8,334.2c0,1,0.1,1.9,0.4,2.8c0.3,0.9,0.6,1.7,1.2,2.4c0.5,0.7,1.2,1.3,2,1.7
	c0.8,0.4,1.8,0.6,2.9,0.6s2.1-0.2,2.9-0.6c0.8-0.4,1.5-1,2-1.7c0.5-0.7,0.9-1.5,1.2-2.4c0.3-0.9,0.4-1.8,0.4-2.8s-0.1-1.9-0.4-2.9
	c-0.3-0.9-0.7-1.7-1.2-2.4c-0.5-0.7-1.2-1.3-2-1.7s-1.7-0.6-2.8-0.6c-1.1,0-2,0.2-2.8,0.6s-1.5,1-2,1.7c-0.5,0.7-0.9,1.5-1.2,2.4
	C156.9,332.2,156.8,333.2,156.8,334.2"/>
<path class="st2" d="M191.3,324.4h5.1c1,0,1.9,0.1,2.8,0.3s1.7,0.5,2.3,1c0.7,0.4,1.2,1,1.6,1.8c0.4,0.7,0.6,1.7,0.6,2.8
	s-0.2,2-0.6,2.7c-0.4,0.7-0.9,1.3-1.5,1.8s-1.4,0.8-2.2,1c-0.8,0.2-1.7,0.3-2.5,0.3h-2.7v7.8h-2.8L191.3,324.4L191.3,324.4z
	 M194.1,333.7h2.8c0.4,0,0.9-0.1,1.3-0.2c0.5-0.1,0.9-0.3,1.3-0.6c0.4-0.3,0.7-0.6,0.9-1c0.2-0.4,0.4-1,0.4-1.6s-0.1-1.1-0.4-1.6
	c-0.3-0.4-0.6-0.8-1.1-1c-0.4-0.3-0.9-0.4-1.4-0.6c-0.5-0.1-1-0.2-1.4-0.2h-2.4L194.1,333.7L194.1,333.7z"/>
<path class="st2" d="M220.8,334.2c0-1.4,0.2-2.8,0.6-4c0.4-1.2,1-2.3,1.8-3.2c0.8-0.9,1.8-1.6,2.9-2.1c1.2-0.5,2.5-0.8,4-0.8
	s2.8,0.3,3.9,0.8c1.2,0.5,2.1,1.2,3,2.1c0.8,0.9,1.4,1.9,1.8,3.2c0.4,1.2,0.6,2.6,0.6,4c0,1.5-0.2,2.8-0.6,4.1
	c-0.4,1.2-1,2.3-1.8,3.2c-0.8,0.9-1.8,1.6-2.9,2.1c-1.2,0.5-2.5,0.7-4,0.7s-2.8-0.2-4-0.7s-2.1-1.2-2.9-2.1c-0.8-0.9-1.4-2-1.8-3.2
	C221,337,220.8,335.6,220.8,334.2 M223.8,334.2c0,1,0.1,1.9,0.4,2.8c0.3,0.9,0.6,1.7,1.2,2.4c0.5,0.7,1.2,1.3,2,1.7
	c0.8,0.4,1.8,0.6,2.9,0.6s2.1-0.2,2.9-0.6c0.8-0.4,1.5-1,2-1.7c0.5-0.7,0.9-1.5,1.2-2.4c0.3-0.9,0.4-1.8,0.4-2.8s-0.1-1.9-0.4-2.9
	c-0.3-0.9-0.7-1.7-1.2-2.4c-0.5-0.7-1.2-1.3-2-1.7s-1.7-0.6-2.8-0.6c-1.1,0-2,0.2-2.8,0.6s-1.5,1-2,1.7c-0.5,0.7-0.9,1.5-1.2,2.4
	C223.9,332.2,223.8,333.2,223.8,334.2"/>
<path class="st2" d="M258.3,324.4h4.8c1,0,1.9,0.1,2.8,0.2s1.7,0.4,2.4,0.7c0.7,0.4,1.3,0.9,1.7,1.6c0.4,0.7,0.6,1.6,0.6,2.8
	c0,0.6-0.1,1.1-0.3,1.6c-0.2,0.5-0.5,0.9-0.9,1.3s-0.8,0.7-1.3,0.9c-0.5,0.3-1,0.4-1.6,0.5v0.1c0.4,0.2,0.8,0.4,1,0.7
	c0.3,0.3,0.5,0.7,0.9,1.3l3.7,7.7H269l-3-6.7c-0.2-0.5-0.4-0.8-0.7-1.1c-0.2-0.3-0.5-0.5-0.7-0.6c-0.3-0.1-0.5-0.2-0.9-0.2
	c-0.3,0-0.6,0-1,0H261v8.7h-2.8L258.3,324.4L258.3,324.4z M261,332.8h2.4c1.3,0,2.4-0.3,3.1-0.8s1.1-1.3,1.1-2.2s-0.3-1.6-1-2.1
	s-1.6-0.8-2.9-0.8H261V332.8z"/>
<polygon class="st2" points="293.7,326.9 287.7,326.9 287.7,324.4 302.6,324.4 302.6,326.9 296.5,326.9 296.5,343.9 293.7,343.9 "/>
<path class="st2" d="M319.3,334.2c0-1.4,0.2-2.8,0.6-4c0.4-1.2,1-2.3,1.8-3.2c0.8-0.9,1.8-1.6,2.9-2.1c1.2-0.5,2.5-0.8,4-0.8
	s2.8,0.3,3.9,0.8c1.2,0.5,2.1,1.2,3,2.1c0.8,0.9,1.4,1.9,1.8,3.2c0.4,1.2,0.6,2.6,0.6,4c0,1.5-0.2,2.8-0.6,4.1
	c-0.4,1.2-1,2.3-1.8,3.2c-0.8,0.9-1.8,1.6-2.9,2.1c-1.2,0.5-2.5,0.7-4,0.7s-2.8-0.2-4-0.7s-2.1-1.2-2.9-2.1c-0.8-0.9-1.4-2-1.8-3.2
	C319.5,337,319.3,335.6,319.3,334.2 M322.2,334.2c0,1,0.1,1.9,0.4,2.8c0.3,0.9,0.6,1.7,1.2,2.4c0.5,0.7,1.2,1.3,2,1.7
	c0.8,0.4,1.8,0.6,2.9,0.6s2.1-0.2,2.9-0.6c0.8-0.4,1.5-1,2-1.7c0.5-0.7,0.9-1.5,1.2-2.4c0.3-0.9,0.4-1.8,0.4-2.8s-0.1-1.9-0.4-2.9
	c-0.3-0.9-0.7-1.7-1.2-2.4c-0.5-0.7-1.2-1.3-2-1.7s-1.7-0.6-2.8-0.6c-1.1,0-2,0.2-2.8,0.6s-1.5,1-2,1.7c-0.5,0.7-0.9,1.5-1.2,2.4
	C322.3,332.2,322.2,333.2,322.2,334.2"/>
<path class="st2" d="M365.7,327.4c-0.4-0.1-0.7-0.2-1-0.3s-0.6-0.2-0.8-0.3c-0.3-0.1-0.6-0.1-0.9-0.2c-0.3,0-0.6,0-1,0
	s-0.8,0-1.2,0.1s-0.8,0.2-1.1,0.4s-0.6,0.5-0.8,0.8c-0.2,0.3-0.3,0.8-0.3,1.3c0,0.6,0.2,1.1,0.6,1.5c0.4,0.4,0.9,0.8,1.5,1.1
	s1.3,0.7,2,1c0.7,0.3,1.4,0.7,2,1.2s1.1,1.1,1.5,1.8c0.4,0.7,0.6,1.6,0.6,2.6s-0.2,1.9-0.6,2.7c-0.4,0.7-0.9,1.3-1.5,1.8
	c-0.7,0.5-1.4,0.8-2.3,1c-0.9,0.2-1.8,0.3-2.7,0.3c-0.7,0-1.4-0.1-2-0.3c-0.7-0.2-1.3-0.4-2-0.6l0.3-2.6c0.2,0.1,0.5,0.2,0.8,0.3
	c0.3,0.1,0.6,0.2,1,0.3s0.7,0.2,1.1,0.2c0.4,0.1,0.7,0.1,1.1,0.1c0.4,0,0.8-0.1,1.3-0.2s0.9-0.3,1.2-0.6c0.4-0.3,0.7-0.6,0.9-1
	c0.3-0.4,0.4-0.9,0.4-1.5c0-0.7-0.2-1.3-0.6-1.8c-0.4-0.5-0.9-0.9-1.5-1.2s-1.3-0.7-2-1c-0.7-0.3-1.4-0.7-2-1.1
	c-0.6-0.4-1.1-1-1.5-1.6c-0.4-0.7-0.6-1.5-0.6-2.5c0-0.9,0.2-1.6,0.5-2.3c0.3-0.7,0.8-1.2,1.3-1.7c0.6-0.4,1.2-0.8,2-1
	c0.8-0.2,1.6-0.3,2.5-0.3c0.6,0,1.3,0.1,2.1,0.2c0.7,0.1,1.4,0.3,2.1,0.5L365.7,327.4z"/>
<rect x="54.8" y="271.5" class="st2" width="12.1" height="45.2"/>
<path class="st2" d="M75.2,316.7v-45.2h14.3l7.2,13.9c2.5,4.5,5.1,10.5,7.1,15.8h0.2c-0.7-6-0.9-12.3-0.9-19v-10.7h11.1v45.2h-12.7
	l-7.7-15c-2.5-4.8-5.4-10.9-7.6-16.3h-0.3c0.3,6.1,0.5,12.9,0.5,20.2v11.1H75.2z"/>
<polygon class="st2" points="122.5,271.5 151.5,271.5 151.5,281.4 134.6,281.4 134.6,289.8 150.5,289.8 150.5,299.5 134.6,299.5 
	134.6,316.7 122.5,316.7 "/>
<path class="st2" d="M159,272.2c3.4-0.5,8.6-1,14.6-1c6.9,0,11.9,0.9,15.3,3.6c2.9,2.2,4.4,5.4,4.4,9.8c0,5.6-4.2,9.6-7.7,10.9v0.2
	c3,1.3,4.6,4.2,5.8,8.1c1.3,4.6,2.8,11.2,3.7,12.9h-12.3c-0.7-1.3-1.9-4.8-3.2-10.5c-1.2-5.4-2.9-6.5-6.6-6.5h-2v17h-12V272.2z
	 M171,291h3.2c4.6,0,7.2-2.2,7.2-5.6c0-3.4-2.2-5.3-6.2-5.3c-2.3,0-3.5,0.1-4.1,0.3V291H171z"/>
<path class="st2" d="M213,306.3l-2.5,10.5H198l13-45.3h16.1l13.5,45.2h-13.1l-2.9-10.5H213V306.3z M222.9,297.3l-2.1-8.1
	c-0.7-2.5-1.5-6.2-2.2-8.9h-0.1c-0.7,2.7-1.3,6.4-2,8.9l-1.9,8.1H222.9z"/>
<polygon class="st2" points="274.7,298.5 258.5,298.5 258.5,306.8 276.7,306.8 276.7,316.7 246.3,316.7 246.3,271.5 275.7,271.5 
	275.7,281.4 258.5,281.4 258.5,288.7 274.7,288.7 "/>
<path class="st2" d="M283.4,272.2c3.4-0.5,8.6-1,14.6-1c6.9,0,11.9,0.9,15.3,3.6c2.9,2.2,4.4,5.4,4.4,9.8c0,5.6-4.2,9.6-7.7,10.9
	v0.2c3,1.3,4.6,4.2,5.8,8.1c1.3,4.6,2.8,11.2,3.7,12.9h-12.3c-0.7-1.3-1.9-4.8-3.2-10.5c-1.2-5.4-2.9-6.5-6.6-6.5h-1.9v17h-12
	L283.4,272.2L283.4,272.2z M295.4,291h3.2c4.6,0,7.2-2.2,7.2-5.6c0-3.4-2.2-5.3-6.2-5.3c-2.3,0-3.5,0.1-4.1,0.3V291H295.4z"/>
<path class="st2" d="M344.1,317.4c-14,0-21.7-10.5-21.7-23.1c0-13.1,8.6-23.6,22.5-23.6c14.6,0,21.9,10.8,21.9,22.9
	C366.7,308.2,358,317.4,344.1,317.4L344.1,317.4z M344.7,307.9c5.8,0,9.3-5.6,9.3-13.8c0-7.8-3.5-13.7-9.4-13.7
	c-5.8,0-9.4,5.9-9.4,13.7c-0.1,8.1,3.6,13.7,9.4,13.7h0.1V307.9z"/>
</svg>
