<?xml version="1.0" encoding="UTF-8" standalone="no"?>
<svg
   xmlns:dc="http://purl.org/dc/elements/1.1/"
   xmlns:cc="http://creativecommons.org/ns#"
   xmlns:rdf="http://www.w3.org/1999/02/22-rdf-syntax-ns#"
   xmlns:svg="http://www.w3.org/2000/svg"
   xmlns="http://www.w3.org/2000/svg"
   viewBox="0 0 793.70135 1122.52"
   height="1122.52"
   width="793.70135"
   xml:space="preserve"
   id="svg2"
   version="1.1"><metadata
     id="metadata8"><rdf:RDF><cc:Work
         rdf:about=""><dc:format>image/svg+xml</dc:format><dc:type
           rdf:resource="http://purl.org/dc/dcmitype/StillImage" /></cc:Work></rdf:RDF></metadata><defs
     id="defs6"><clipPath
       id="clipPath18"
       clipPathUnits="userSpaceOnUse"><path
         id="path16"
         d="M 0,841.89 H 595.276 V 0 H 0 Z" /></clipPath></defs><g
     transform="matrix(1.3333333,0,0,-1.3333333,0,1122.52)"
     id="g10"><g
       id="g12"><g
         clip-path="url(#clipPath18)"
         id="g14"><g
           transform="translate(322.4814,571.1318)"
           id="g20"><path
             id="path22"
             style="fill:#efdd20;fill-opacity:1;fill-rule:nonzero;stroke:none"
             d="m 0,0 c 17.432,-17.188 17.432,-45.179 0,-62.612 -17.186,-17.184 -45.177,-17.184 -62.366,0 -17.182,17.433 -17.182,45.424 0,62.612 17.189,17.186 45.18,17.186 62.366,0 m -51.314,46.646 c 0,-3.188 -1.228,-5.891 -3.193,-7.853 -5.355,-5.357 -143.367,-143.167 -172.878,-172.825 h 31.158 c 34.808,34.848 74.818,74.876 79.111,79.031 1.964,2.209 4.91,3.439 8.103,3.439 2.945,0 5.893,-1.23 7.857,-3.193 2.718,-2.719 39.642,-39.693 79.196,-79.277 H 9.329 c -8.97,8.957 -15.187,15.162 -16.692,16.669 -2.214,1.965 -3.442,4.911 -3.442,8.103 0,3.192 1.228,5.893 3.194,7.854 5.156,5.156 133.23,133.232 169.13,169.3 H 129.912 C 96.035,33.987 58.758,-3.361 54.753,-7.366 c -1.968,-2.21 -4.911,-3.686 -8.104,-3.686 -3.19,0 -5.892,1.476 -7.855,3.438 -2.637,2.635 -37.379,37.376 -75.531,75.508 h -31.384 c 7.028,-7.043 11.824,-11.849 13.123,-13.145 2.211,-1.963 3.684,-4.909 3.684,-8.103" /></g><g
           transform="translate(116.4468,630.7808)"
           id="g24"><path
             id="path26"
             style="fill:#007f46;fill-opacity:1;fill-rule:nonzero;stroke:none"
             d="m 0,0 c -1.025,-1.08 -41.33,-41.47 -42.436,-42.579 -2.21,-2.209 -3.438,-4.909 -3.438,-8.1 0,0 -0.06,-128.608 -0.148,-130.758 -0.352,-8.603 1.579,-12.291 9.657,-12.291 2.853,0 15.014,0.047 15.014,0.047 29.512,29.659 167.523,167.467 172.88,172.826 1.964,1.961 3.191,4.664 3.191,7.851 0,3.195 -1.474,6.141 -3.682,8.104 -1.3,1.296 -6.097,6.102 -13.124,13.145 0,0 -111.45,-0.102 -114.946,-0.114 C 9.522,8.131 8.768,8.093 0,0" /></g><g
           transform="translate(369.1309,560.0801)"
           id="g28"><path
             id="path30"
             style="fill:#007f46;fill-opacity:1;fill-rule:nonzero;stroke:none"
             d="M 0,0 C 3.192,0 6.136,1.476 8.104,3.686 12.109,7.69 49.386,45.039 83.263,78.945 H -83.386 C -45.234,40.813 -10.492,6.073 -7.855,3.438 -5.893,1.476 -3.19,0 0,0" /></g><g
           transform="translate(314.8701,469.7261)"
           id="g32"><path
             id="path34"
             style="fill:#007f46;fill-opacity:1;fill-rule:nonzero;stroke:none"
             d="m 0,0 c -1.966,-1.961 -3.193,-4.662 -3.193,-7.854 0,-3.192 1.227,-6.138 3.441,-8.104 1.505,-1.506 7.723,-7.711 16.692,-16.668 0,0 100.107,-0.047 101.031,-0.047 21.418,0 21.853,0.047 36.867,15.098 2.454,2.457 37.899,38.068 39.125,39.542 1.965,1.962 3.192,4.663 3.439,7.856 0,0 -0.124,123.804 -0.124,127.82 0,9.831 -4.741,11.587 -10.356,11.587 -5.797,0 -17.792,0.069 -17.792,0.069 C 133.23,133.232 5.156,5.156 0,0" /></g><g
           transform="translate(213.4688,519.5703)"
           id="g36"><path
             id="path38"
             style="fill:#007f46;fill-opacity:1;fill-rule:nonzero;stroke:none"
             d="m 0,0 c -3.193,0 -6.14,-1.228 -8.104,-3.439 -4.292,-4.156 -44.303,-44.183 -79.11,-79.031 H 87.053 C 47.499,-42.887 10.575,-5.913 7.857,-3.193 5.893,-1.228 2.944,0 0,0" /></g><g
           transform="translate(335.8076,540.2412)"
           id="g40"><path
             id="path42"
             style="fill:#006eae;fill-opacity:1;fill-rule:nonzero;stroke:none"
             d="m 0,0 c 0,-24.601 -19.942,-44.542 -44.542,-44.542 -24.6,0 -44.542,19.941 -44.542,44.542 0,24.603 19.942,44.545 44.542,44.545 C -19.942,44.545 0,24.603 0,0" /></g><g
           transform="translate(84.5366,336.3115)"
           id="g44"><path
             id="path46"
             style="fill:#006eae;fill-opacity:1;fill-rule:nonzero;stroke:none"
             d="M 0,0 -5.482,-13.648 H 5.481 Z M -1.933,3.708 H 2.208 L 13.844,-23.823 H 9.545 l -2.8,6.94 H -6.746 l -2.801,-6.94 h -4.139 z" /></g><g
           transform="translate(123.6641,340.0195)"
           id="g48"><path
             id="path50"
             style="fill:#006eae;fill-opacity:1;fill-rule:nonzero;stroke:none"
             d="M 0,0 H 15.422 V -3.473 H 3.944 v -8.045 H 14.397 V -14.99 H 3.944 v -9.073 h 11.478 v -3.468 l -15.422,0 z" /></g><g
           transform="translate(170.207,328.1865)"
           id="g52"><path
             id="path54"
             style="fill:#006eae;fill-opacity:1;fill-rule:nonzero;stroke:none"
             d="M 0,0 H 3.354 C 5.246,0 6.71,0.38 7.751,1.144 8.79,1.906 9.309,2.957 9.309,4.299 9.309,5.562 8.841,6.554 7.909,7.277 6.975,7.999 5.601,8.36 3.786,8.36 H 0 Z M -3.943,11.833 H 2.8 c 1.369,0 2.69,-0.079 3.963,-0.237 1.277,-0.158 2.415,-0.5 3.413,-1.027 0.999,-0.525 1.803,-1.275 2.406,-2.247 0.606,-0.974 0.909,-2.288 0.909,-3.945 0,-0.842 -0.146,-1.617 -0.436,-2.326 C 12.766,1.34 12.365,0.715 11.853,0.177 11.34,-0.363 10.735,-0.81 10.038,-1.165 9.342,-1.52 8.599,-1.764 7.81,-1.895 v -0.078 c 0.606,-0.236 1.091,-0.546 1.46,-0.927 0.366,-0.38 0.774,-0.993 1.223,-1.834 l 5.205,-10.964 h -4.496 l -4.22,9.545 c -0.315,0.656 -0.631,1.169 -0.946,1.537 -0.315,0.367 -0.659,0.637 -1.027,0.808 -0.367,0.172 -0.768,0.271 -1.203,0.296 -0.433,0.027 -0.913,0.04 -1.439,0.04 H 0 v -12.226 h -3.943 z" /></g><g
           transform="translate(214.4634,326.2539)"
           id="g56"><path
             id="path58"
             style="fill:#006eae;fill-opacity:1;fill-rule:nonzero;stroke:none"
             d="m 0,0 c 0,-1.369 0.178,-2.695 0.533,-3.986 0.354,-1.286 0.899,-2.437 1.636,-3.45 0.735,-1.012 1.676,-1.821 2.821,-2.426 1.142,-0.605 2.504,-0.908 4.081,-0.908 1.579,0 2.939,0.303 4.083,0.908 1.143,0.605 2.083,1.414 2.821,2.426 0.734,1.013 1.282,2.164 1.636,3.45 0.355,1.291 0.533,2.617 0.533,3.986 0,1.393 -0.191,2.74 -0.572,4.042 -0.383,1.302 -0.947,2.452 -1.696,3.452 -0.75,0.998 -1.691,1.794 -2.821,2.385 -1.131,0.593 -2.458,0.888 -3.984,0.888 -1.524,0 -2.852,-0.295 -3.983,-0.888 C 3.957,9.288 3.018,8.492 2.268,7.494 1.517,6.494 0.952,5.344 0.572,4.042 0.19,2.74 0,1.393 0,0 m -4.182,0 c 0,2.05 0.296,3.943 0.887,5.679 0.592,1.737 1.461,3.234 2.603,4.498 1.144,1.261 2.532,2.253 4.163,2.976 1.629,0.723 3.496,1.085 5.6,1.085 2.076,0 3.939,-0.362 5.583,-1.085 1.642,-0.723 3.035,-1.715 4.18,-2.976 C 19.977,8.913 20.847,7.416 21.437,5.679 22.028,3.943 22.325,2.05 22.325,0 c 0,-2.104 -0.297,-4.024 -0.888,-5.76 -0.59,-1.735 -1.453,-3.233 -2.584,-4.497 -1.131,-1.262 -2.518,-2.242 -4.162,-2.937 -1.642,-0.697 -3.516,-1.046 -5.62,-1.046 -2.104,0 -3.976,0.349 -5.62,1.046 -1.645,0.695 -3.032,1.675 -4.161,2.937 -1.131,1.264 -1.993,2.762 -2.585,4.497 -0.591,1.736 -0.887,3.656 -0.887,5.76" /></g><g
           transform="translate(267.1987,326.9629)"
           id="g60"><path
             id="path62"
             style="fill:#006eae;fill-opacity:1;fill-rule:nonzero;stroke:none"
             d="m 0,0 h 3.905 c 0.604,0 1.236,0.085 1.894,0.257 0.657,0.17 1.254,0.44 1.793,0.808 0.541,0.368 0.981,0.862 1.323,1.481 0.341,0.616 0.513,1.386 0.513,2.306 0,0.866 -0.205,1.603 -0.613,2.21 C 8.408,7.667 7.902,8.151 7.298,8.52 6.692,8.889 6.036,9.158 5.325,9.33 4.616,9.499 3.958,9.584 3.354,9.584 H 0 Z m -3.943,13.057 h 7.216 c 1.42,0 2.755,-0.14 4.004,-0.415 1.248,-0.277 2.341,-0.729 3.274,-1.363 0.934,-0.629 1.677,-1.47 2.229,-2.521 0.553,-1.052 0.829,-2.369 0.829,-3.945 0,-1.526 -0.276,-2.816 -0.829,-3.866 C 12.228,-0.107 11.498,-0.959 10.591,-1.616 9.684,-2.274 8.645,-2.748 7.475,-3.036 6.304,-3.326 5.101,-3.472 3.866,-3.472 H 0 v -11.003 h -3.943 z" /></g><g
           transform="translate(309.2852,326.2539)"
           id="g64"><path
             id="path66"
             style="fill:#006eae;fill-opacity:1;fill-rule:nonzero;stroke:none"
             d="m 0,0 c 0,-1.369 0.177,-2.695 0.535,-3.986 0.353,-1.286 0.899,-2.437 1.637,-3.45 0.733,-1.012 1.675,-1.821 2.817,-2.426 1.146,-0.605 2.507,-0.908 4.084,-0.908 1.578,0 2.939,0.303 4.081,0.908 1.145,0.605 2.085,1.414 2.823,2.426 0.735,1.013 1.281,2.164 1.635,3.45 0.355,1.291 0.532,2.617 0.532,3.986 0,1.393 -0.189,2.74 -0.571,4.042 -0.382,1.302 -0.946,2.452 -1.696,3.452 -0.75,0.998 -1.69,1.794 -2.82,2.385 -1.132,0.593 -2.459,0.888 -3.984,0.888 C 7.546,10.767 6.219,10.472 5.09,9.879 3.957,9.288 3.02,8.492 2.27,7.494 1.519,6.494 0.954,5.344 0.572,4.042 0.192,2.74 0,1.393 0,0 m -4.182,0 c 0,2.05 0.299,3.943 0.888,5.679 0.593,1.737 1.46,3.234 2.605,4.498 1.143,1.261 2.529,2.253 4.162,2.976 1.629,0.723 3.495,1.085 5.6,1.085 2.076,0 3.937,-0.362 5.581,-1.085 1.643,-0.723 3.037,-1.715 4.181,-2.976 C 19.979,8.913 20.848,7.416 21.438,5.679 22.03,3.943 22.325,2.05 22.325,0 c 0,-2.104 -0.295,-4.024 -0.887,-5.76 -0.59,-1.735 -1.453,-3.233 -2.584,-4.497 -1.13,-1.262 -2.518,-2.242 -4.161,-2.937 -1.641,-0.697 -3.517,-1.046 -5.62,-1.046 -2.105,0 -3.977,0.349 -5.62,1.046 -1.645,0.695 -3.031,1.675 -4.162,2.937 -1.131,1.264 -1.992,2.762 -2.585,4.497 -0.589,1.736 -0.888,3.656 -0.888,5.76" /></g><g
           transform="translate(362.0215,328.1865)"
           id="g68"><path
             id="path70"
             style="fill:#006eae;fill-opacity:1;fill-rule:nonzero;stroke:none"
             d="M 0,0 H 3.353 C 5.244,0 6.711,0.38 7.752,1.144 8.79,1.906 9.309,2.957 9.309,4.299 9.309,5.562 8.843,6.554 7.908,7.277 6.975,7.999 5.601,8.36 3.785,8.36 H 0 Z m -3.945,11.833 h 6.746 c 1.366,0 2.689,-0.079 3.963,-0.237 1.276,-0.158 2.411,-0.5 3.412,-1.027 0.999,-0.525 1.801,-1.275 2.405,-2.247 0.606,-0.974 0.908,-2.288 0.908,-3.945 0,-0.842 -0.143,-1.617 -0.432,-2.326 C 12.767,1.34 12.366,0.715 11.854,0.177 11.34,-0.363 10.733,-0.81 10.04,-1.165 9.342,-1.52 8.598,-1.764 7.811,-1.895 v -0.078 c 0.603,-0.236 1.09,-0.546 1.459,-0.927 0.369,-0.38 0.775,-0.993 1.222,-1.834 l 5.206,-10.964 h -4.497 l -4.22,9.545 c -0.315,0.656 -0.63,1.169 -0.946,1.537 -0.315,0.367 -0.656,0.637 -1.026,0.808 -0.368,0.172 -0.769,0.271 -1.203,0.296 -0.433,0.027 -0.914,0.04 -1.439,0.04 H 0 v -12.226 h -3.945 z" /></g><g
           transform="translate(408.29,336.5469)"
           id="g72"><path
             id="path74"
             style="fill:#006eae;fill-opacity:1;fill-rule:nonzero;stroke:none"
             d="M 0,0 H -8.56 V 3.473 H 12.505 V 0 H 3.945 V -24.059 H 0 Z" /></g><g
           transform="translate(448.6006,326.2539)"
           id="g76"><path
             id="path78"
             style="fill:#006eae;fill-opacity:1;fill-rule:nonzero;stroke:none"
             d="m 0,0 c 0,-1.369 0.178,-2.695 0.532,-3.986 0.357,-1.286 0.903,-2.437 1.637,-3.45 0.736,-1.012 1.678,-1.821 2.819,-2.426 1.145,-0.605 2.506,-0.908 4.083,-0.908 1.578,0 2.941,0.303 4.083,0.908 1.144,0.605 2.083,1.414 2.822,2.426 0.736,1.013 1.281,2.164 1.636,3.45 0.354,1.291 0.532,2.617 0.532,3.986 0,1.393 -0.191,2.74 -0.572,4.042 -0.381,1.302 -0.946,2.452 -1.696,3.452 -0.749,0.998 -1.69,1.794 -2.822,2.385 -1.13,0.593 -2.456,0.888 -3.983,0.888 -1.523,0 -2.852,-0.295 -3.983,-0.888 C 3.957,9.288 3.019,8.492 2.269,7.494 1.519,6.494 0.953,5.344 0.571,4.042 0.191,2.74 0,1.393 0,0 m -4.184,0 c 0,2.05 0.298,3.943 0.891,5.679 0.592,1.737 1.459,3.234 2.603,4.498 1.144,1.261 2.531,2.253 4.162,2.976 1.63,0.723 3.498,1.085 5.599,1.085 2.079,0 3.94,-0.362 5.582,-1.085 1.643,-0.723 3.038,-1.715 4.182,-2.976 C 19.979,8.913 20.846,7.416 21.438,5.679 22.03,3.943 22.325,2.05 22.325,0 c 0,-2.104 -0.295,-4.024 -0.887,-5.76 -0.592,-1.735 -1.453,-3.233 -2.584,-4.497 -1.13,-1.262 -2.518,-2.242 -4.164,-2.937 -1.641,-0.697 -3.513,-1.046 -5.619,-1.046 -2.101,0 -3.977,0.349 -5.62,1.046 -1.642,0.695 -3.03,1.675 -4.161,2.937 -1.131,1.264 -1.991,2.762 -2.583,4.497 -0.593,1.736 -0.891,3.656 -0.891,5.76" /></g><g
           transform="translate(510.1328,335.876)"
           id="g80"><path
             id="path82"
             style="fill:#006eae;fill-opacity:1;fill-rule:nonzero;stroke:none"
             d="m 0,0 c -0.499,0.185 -0.952,0.349 -1.36,0.494 -0.408,0.145 -0.81,0.271 -1.203,0.375 -0.396,0.106 -0.801,0.179 -1.222,0.216 -0.423,0.042 -0.882,0.06 -1.382,0.06 -0.551,0 -1.11,-0.06 -1.676,-0.177 C -7.41,0.851 -7.927,0.651 -8.401,0.376 -8.874,0.099 -9.256,-0.273 -9.545,-0.748 c -0.29,-0.475 -0.434,-1.065 -0.434,-1.776 0,-0.893 0.291,-1.623 0.869,-2.188 0.577,-0.566 1.306,-1.084 2.188,-1.559 0.881,-0.472 1.835,-0.94 2.86,-1.398 1.026,-0.462 1.978,-1.033 2.859,-1.716 0.882,-0.686 1.61,-1.526 2.189,-2.526 0.578,-0.999 0.87,-2.247 0.87,-3.746 0,-1.473 -0.265,-2.73 -0.79,-3.767 -0.527,-1.04 -1.248,-1.888 -2.169,-2.545 -0.922,-0.658 -1.993,-1.138 -3.215,-1.441 -1.224,-0.302 -2.52,-0.452 -3.886,-0.452 -0.974,0 -1.926,0.12 -2.859,0.355 -0.935,0.236 -1.862,0.5 -2.781,0.789 l 0.394,3.668 c 0.342,-0.132 0.737,-0.275 1.184,-0.434 0.447,-0.159 0.919,-0.302 1.419,-0.434 0.501,-0.131 1.02,-0.243 1.559,-0.335 0.538,-0.093 1.058,-0.139 1.559,-0.139 0.55,0 1.149,0.086 1.793,0.256 0.645,0.172 1.229,0.436 1.755,0.791 0.527,0.354 0.967,0.814 1.324,1.38 0.354,0.565 0.531,1.255 0.531,2.069 0,1.028 -0.29,1.862 -0.869,2.506 -0.577,0.644 -1.308,1.209 -2.189,1.696 -0.882,0.486 -1.834,0.952 -2.859,1.401 -1.026,0.447 -1.979,0.979 -2.859,1.596 -0.88,0.62 -1.611,1.387 -2.19,2.308 -0.578,0.919 -0.867,2.09 -0.867,3.51 0,1.209 0.229,2.283 0.69,3.215 0.459,0.934 1.084,1.717 1.874,2.349 0.788,0.629 1.722,1.109 2.799,1.438 1.08,0.329 2.235,0.493 3.473,0.493 0.919,0 1.894,-0.078 2.918,-0.236 1.024,-0.158 2.01,-0.409 2.959,-0.75 z" /></g><path
           id="path84"
           style="fill:#006eae;fill-opacity:1;fill-rule:nonzero;stroke:none"
           d="M 87.203,355.832 H 70.022 v 63.978 h 17.181 z" /><g
           transform="translate(98.9727,355.832)"
           id="g86"><path
             id="path88"
             style="fill:#006eae;fill-opacity:1;fill-rule:nonzero;stroke:none"
             d="M 0,0 V 63.978 H 20.218 L 30.375,44.33 c 3.511,-6.359 7.213,-14.904 10.063,-22.401 h 0.284 c -0.95,8.448 -1.33,17.371 -1.33,26.861 V 63.978 H 55.054 V 0 H 37.019 L 26.104,21.264 C 22.59,28.002 18.414,36.641 15.377,44.33 h -0.379 c 0.476,-8.638 0.664,-18.226 0.664,-28.572 V 0 Z" /></g><g
           transform="translate(165.8921,419.8096)"
           id="g90"><path
             id="path92"
             style="fill:#006eae;fill-opacity:1;fill-rule:nonzero;stroke:none"
             d="M 0,0 H 41.102 V -14.048 H 17.18 v -11.769 h 22.496 v -13.86 H 17.18 V -63.978 H 0 Z" /></g><g
           transform="translate(234.6152,392.1875)"
           id="g94"><path
             id="path96"
             style="fill:#006eae;fill-opacity:1;fill-rule:nonzero;stroke:none"
             d="m 0,0 h 4.462 c 6.454,0 10.158,3.133 10.158,7.878 0,4.748 -3.135,7.499 -8.83,7.499 -3.226,0 -4.935,-0.189 -5.79,-0.379 z m -16.99,26.674 c 4.842,0.76 12.15,1.423 20.692,1.423 9.778,0 16.802,-1.328 21.643,-5.031 4.081,-3.132 6.265,-7.689 6.265,-13.857 0,-7.975 -5.98,-13.575 -10.915,-15.475 v -0.283 c 4.176,-1.898 6.547,-5.981 8.162,-11.486 1.899,-6.547 3.987,-15.853 5.221,-18.32 H 16.612 c -0.949,1.899 -2.658,6.835 -4.462,14.808 -1.708,7.593 -4.081,9.208 -9.397,9.208 H 0 v -24.016 h -16.99 z" /></g><g
           transform="translate(308.085,383.2656)"
           id="g98"><path
             id="path100"
             style="fill:#006eae;fill-opacity:1;fill-rule:nonzero;stroke:none"
             d="m 0,0 -2.942,11.486 c -0.95,3.607 -2.184,8.827 -3.132,12.624 H -6.266 C -7.214,20.313 -8.163,15.093 -9.113,11.486 L -11.866,0 Z m -14.144,-12.625 -3.606,-14.809 h -17.752 l 18.606,63.978 H 5.886 L 24.965,-27.434 H 6.455 l -4.082,14.809 z" /></g><g
           transform="translate(381.3643,381.6533)"
           id="g102"><path
             id="path104"
             style="fill:#006eae;fill-opacity:1;fill-rule:nonzero;stroke:none"
             d="M 0,0 H -22.97 V -11.772 H 2.752 V -25.821 H -40.153 V 38.156 H 1.424 V 24.108 H -22.97 V 13.856 H 0 Z" /></g><g
           transform="translate(410.5986,392.1875)"
           id="g106"><path
             id="path108"
             style="fill:#006eae;fill-opacity:1;fill-rule:nonzero;stroke:none"
             d="m 0,0 h 4.461 c 6.455,0 10.159,3.133 10.159,7.878 0,4.748 -3.136,7.499 -8.829,7.499 -3.228,0 -4.936,-0.189 -5.791,-0.379 z m -16.99,26.674 c 4.842,0.76 12.151,1.423 20.694,1.423 9.775,0 16.799,-1.328 21.642,-5.031 4.079,-3.132 6.266,-7.689 6.266,-13.857 0,-7.975 -5.982,-13.575 -10.919,-15.475 v -0.283 c 4.176,-1.898 6.55,-5.981 8.164,-11.486 1.899,-6.547 3.989,-15.853 5.221,-18.32 H 16.611 c -0.947,1.899 -2.656,6.835 -4.46,14.808 -1.71,7.593 -4.081,9.208 -9.397,9.208 H 0 v -24.016 h -16.99 z" /></g><g
           transform="translate(480.3672,368.3633)"
           id="g110"><path
             id="path112"
             style="fill:#006eae;fill-opacity:1;fill-rule:nonzero;stroke:none"
             d="m 0,0 c 8.258,0 13.1,7.973 13.1,19.554 0,11.011 -4.938,19.364 -13.29,19.364 -8.258,0 -13.289,-8.353 -13.289,-19.46 C -13.575,7.973 -8.448,0 -0.19,0 Z m -0.855,-13.575 c -19.837,0 -30.753,14.903 -30.753,32.654 0,18.606 12.149,33.413 31.797,33.413 20.598,0 31.04,-15.283 31.04,-32.37 0,-20.598 -12.339,-33.697 -31.989,-33.697 z" /></g></g></g></g></svg>