<?xml version="1.0" encoding="utf-8"?>
<!-- Generator: Adobe Illustrator 19.0.0, SVG Export Plug-In . SVG Version: 6.00 Build 0)  -->
<svg version="1.1" id="Layer_1" xmlns="http://www.w3.org/2000/svg" xmlns:xlink="http://www.w3.org/1999/xlink" x="0px" y="0px"
	 viewBox="0 0 360 60" style="enable-background:new 0 0 360 60;" xml:space="preserve">
<style type="text/css">
	.st0{fill-rule:evenodd;clip-rule:evenodd;fill:#EB2427;}
	.st1{fill-rule:evenodd;clip-rule:evenodd;fill:#FFFFFF;}
	.st2{fill-rule:evenodd;clip-rule:evenodd;fill:#020202;}
	.st3{fill:#010101;}
	.st4{fill:#231F20;}
	.st5{fill:#EB2227;}
</style>
<g id="XMLID_2_">
	<polygon id="XMLID_13_" class="st0" points="0,60 34.5,0.3 69,60 	"/>
	<path id="XMLID_12_" class="st1" d="M32.8,21.5c-2.8,0.4-4.6,0.7-7.2,2.2c-6.5,3.7-10.3,10.4-9.6,18.1
		c1.5,16.5,22.1,22.5,32.5,10.5c2.7-3.1,5.1-8.1,4.5-14c-0.3-2.9-1-4.9-2.2-7.1C47.6,25.2,40.2,20.5,32.8,21.5"/>
	<path id="XMLID_11_" class="st2" d="M32.3,22.6c-2.5,0.4-4.7,1.1-6.5,2.2c-2.2,1.2-3.3,2.3-4.8,4c-3,3.3-4.5,8.8-3.9,13.4
		c1.2,8.9,9.2,16.5,19.6,15.2c8.9-1.2,16.5-9.2,15.2-19.6c-0.3-2.5-1.1-4.6-2.2-6.5C46.5,25.6,39.6,21.6,32.3,22.6"/>
	<path id="XMLID_10_" class="st1" d="M33.5,24.5C25.2,25,18.4,32.1,18.9,41c0.5,8.3,7.7,15.2,16.7,14.6c8.3-0.6,15-7.7,14.5-16.7
		C49.6,30.8,42.4,23.9,33.5,24.5"/>
	<path id="XMLID_9_" class="st2" d="M31.9,54.2c1.3,0.8,5.7,0.1,7.2-0.4c1.7-0.6,4.3-2,5.1-3l-0.8-7.1l-2.9,2.6
		c-0.2,0.2-0.4,0.4-0.7,0.7l-1.4,1.3c-0.3,0.2-0.4,0.3-0.8,0.7l-4.3,3.9C32.7,53.5,32.9,53.5,31.9,54.2"/>
	<path id="XMLID_8_" class="st2" d="M45.3,49.8c1.3-1.8,2.1-2.4,3-5c0.7-2,1.1-4.6,0.6-6.9c-1.1-0.5-4.5-2.4-5.3-2.6
		C43.7,36.8,45,49.4,45.3,49.8"/>
	<path id="XMLID_7_" class="st2" d="M36.4,48.6l-13.9-0.5c1.2,2.1,4.1,4.5,7,5.6c1.3,0.5,1.2,0.3,1.9-0.5L36.4,48.6z"/>
	<path id="XMLID_6_" class="st2" d="M24.5,39.8c0.3-0.3,1.9-5.6,2.2-6.5c0.4-1.3,2.1-5.7,2.3-6.6c-2.4,0.6-5.5,3.6-6.7,5.6
		c-0.4,0.6-0.7,1.2-1.1,2c-0.4,0.9-0.3,0.7,0.6,2C22.6,37.4,23.5,38.6,24.5,39.8"/>
	<path id="XMLID_5_" class="st2" d="M21.7,47l6.8,0.2l-8-11c-0.7,1.1-0.6,4.3-0.4,5.8C20.4,44.3,21.1,45.3,21.7,47"/>
	<path id="XMLID_4_" class="st2" d="M28.4,31.9c0.6-0.1,12.2-4.1,13.1-4.6c-0.6-0.6-2.7-1.2-3.7-1.5c-1.8-0.4-5.4-0.5-7.1,0.2
		c-0.4,0.2-0.4,0.3-0.5,0.8C29.6,28.2,28.6,30.7,28.4,31.9"/>
	<path id="XMLID_3_" class="st2" d="M36.4,30.4c2.3,0.9,6.6,3.4,9,4.6c0.9,0.4,2.3,1.3,3.1,1.5c-0.5-2.2-1.5-4-2.8-5.6
		c-0.4-0.5-2.5-2.6-3-2.7c-0.3-0.1-3.6,1.2-4.2,1.4C38,29.7,36.8,30.1,36.4,30.4"/>
	<path id="path1962" class="st3" d="M37.6,47.2c0,0-0.7-1.4-1.6-3.1c-0.9-1.7-1.6-3-1.6-3.1c0,0-0.5,0.4-1.3,1.2
		c-1.2,1.2-1.2,1.3-1.2,1.4c0,0.1,0,0.5,0.1,1l0.1,0.9L31.6,46l-0.5,0.5l-0.6-1.1l-0.6-1.1l-1.1-0.6c-0.6-0.3-1.1-0.6-1.1-0.6
		c0,0,0.2-0.2,0.5-0.5l0.5-0.5l1,0.1l1,0.1l1.3-1.3c1-1,1.3-1.3,1.2-1.3c0,0-1.4-0.8-3.1-1.7l-3.1-1.6l0.6-0.6l0.6-0.6l3.8,1l3.8,1
		l1.7-1.7c1.2-1.2,1.8-1.8,1.9-1.8c0.1,0,0.2-0.1,0.4-0.1c0.3,0,0.5,0.1,0.7,0.3c0.2,0.2,0.2,0.3,0.2,0.6c0,0.4,0,0.4-1.9,2.3
		L37,38.5l0.8,2.9c0.4,1.6,0.9,3.3,1,3.7l0.2,0.8l-0.6,0.6C37.8,47.1,37.7,47.2,37.6,47.2z"/>
</g>
<g id="XMLID_105_">
	<path id="XMLID_106_" class="st4" d="M79.2,32.5h6.2v0.9c0,1.6,0.2,2.7,0.6,3.4c0.4,0.7,1,1,1.9,1c0.7,0,1.3-0.2,1.7-0.7
		c0.4-0.5,0.6-1.2,0.6-2c0-1.4-1-2.8-3-4.1c-0.3-0.2-0.6-0.4-0.8-0.5l-0.3-0.2c-2.7-1.8-4.4-3.2-5.1-4.2c-0.5-0.7-0.8-1.5-1.1-2.4
		c-0.3-0.9-0.4-1.8-0.4-2.9c0-2.5,0.7-4.5,2.2-6c1.5-1.5,3.5-2.2,6.1-2.2c2.8,0,5,0.7,6.4,2.1c1.5,1.4,2.2,3.5,2.2,6.2
		c0,0.1,0,0.3,0,0.5c0,0.2,0,0.4,0,0.5h-6.1v-0.4c0-1.3-0.2-2.2-0.6-2.9c-0.4-0.7-1-1-1.7-1c-0.6,0-1.2,0.2-1.6,0.7
		c-0.4,0.5-0.6,1.1-0.6,1.8c0,1.2,1.1,2.5,3.3,3.9c0.4,0.3,0.7,0.5,0.9,0.6c0.2,0.1,0.4,0.3,0.7,0.5c2.4,1.5,3.9,2.8,4.6,3.8
		c0.4,0.7,0.7,1.4,1,2.3c0.2,0.9,0.3,1.8,0.3,2.8c0,2.9-0.8,5.2-2.3,6.7C93,42.2,90.9,43,88,43c-3,0-5.2-0.8-6.7-2.3
		s-2.2-3.7-2.2-6.7c0-0.2,0-0.4,0-0.6C79.2,33.2,79.2,32.9,79.2,32.5z"/>
	<path id="XMLID_108_" class="st4" d="M100.3,49.7V20.4h5.6v2.5c0.6-1,1.3-1.7,2.1-2.2c0.8-0.5,1.8-0.8,2.8-0.8
		c0.9,0,1.6,0.2,2.3,0.5c0.7,0.3,1.3,0.7,1.8,1.3c0.5,0.7,0.9,1.6,1.1,2.7c0.2,1.1,0.3,3.3,0.3,6.4c0,5-0.4,8.2-1.2,9.8
		c-0.8,1.6-2.3,2.3-4.5,2.3c-0.9,0-1.7-0.2-2.4-0.6c-0.7-0.4-1.3-1.1-1.9-1.9v9.3H100.3z M108.3,37.8c0.8,0,1.3-0.5,1.6-1.4
		c0.3-0.9,0.4-3,0.4-6.3c0-2-0.1-3.3-0.4-4.1c-0.3-0.7-0.8-1.1-1.5-1.1c-0.8,0-1.4,0.4-1.7,1.3c-0.3,0.8-0.5,3.1-0.5,6.7
		c0,1.9,0.1,3.1,0.4,3.8C107,37.4,107.5,37.8,108.3,37.8z"/>
	<path id="XMLID_111_" class="st4" d="M119.4,31.4c0-4.3,0.6-7.3,1.8-9c1.2-1.7,3.3-2.6,6.3-2.6c3,0,5.1,0.9,6.3,2.6s1.8,4.7,1.8,9
		c0,4.3-0.6,7.2-1.8,9c-1.2,1.7-3.3,2.6-6.3,2.6c-3,0-5.1-0.8-6.3-2.5C120,38.7,119.4,35.7,119.4,31.4z M125.6,31.4
		c0,3.1,0.1,5,0.4,5.8c0.3,0.8,0.8,1.2,1.5,1.2c0.7,0,1.3-0.4,1.5-1.1c0.3-0.7,0.4-2.7,0.4-5.8c0-3.1-0.1-5.1-0.4-5.8
		c-0.3-0.8-0.8-1.1-1.5-1.1c-0.7,0-1.3,0.4-1.5,1.2C125.8,26.4,125.6,28.3,125.6,31.4z"/>
	<path id="XMLID_114_" class="st4" d="M149.1,42.3c-0.7,0.1-1.4,0.2-1.9,0.3c-0.6,0.1-1,0.1-1.4,0.1c-1.2,0-2.2-0.2-3.1-0.6
		c-0.9-0.4-1.5-1-1.9-1.7c-0.3-0.5-0.5-1.1-0.6-1.9c-0.1-0.8-0.2-1.9-0.2-3.5v-2.7V25h-2.4v-4.5h2.4v-6.1h6.1v6.1h2.9V25h-2.9v8.9
		c0,1.9,0.1,3.1,0.4,3.5c0.3,0.4,0.8,0.7,1.6,0.7c0.1,0,0.4,0,0.7-0.1c0.1,0,0.2,0,0.2,0V42.3z"/>
	<path id="XMLID_116_" class="st4" d="M161.9,42.3c-0.7,0.1-1.4,0.2-1.9,0.3c-0.6,0.1-1,0.1-1.4,0.1c-1.2,0-2.2-0.2-3.1-0.6
		c-0.9-0.4-1.5-1-1.9-1.7c-0.3-0.5-0.5-1.1-0.6-1.9c-0.1-0.8-0.2-1.9-0.2-3.5v-2.7V25h-2.4v-4.5h2.4v-6.1h6.1v6.1h2.9V25H159v8.9
		c0,1.9,0.1,3.1,0.4,3.5c0.3,0.4,0.8,0.7,1.6,0.7c0.1,0,0.4,0,0.7-0.1c0.1,0,0.2,0,0.2,0V42.3z"/>
	<path id="XMLID_118_" class="st4" d="M174.6,34.7h5.7v0.5c0,2.6-0.7,4.5-2,5.8c-1.3,1.3-3.3,1.9-6,1.9c-1.3,0-2.5-0.2-3.6-0.6
		c-1.1-0.4-1.9-0.9-2.5-1.6c-0.7-0.8-1.2-1.8-1.5-3.1c-0.3-1.3-0.4-3.3-0.4-6.1c0-3.1,0.1-5.2,0.4-6.5c0.3-1.2,0.8-2.2,1.5-3
		c0.7-0.7,1.6-1.3,2.6-1.7c1.1-0.4,2.3-0.6,3.7-0.6c1.4,0,2.7,0.2,3.7,0.6c1,0.4,1.9,1,2.6,1.8c0.6,0.7,1,1.5,1.2,2.4
		c0.2,0.9,0.4,2.6,0.4,4.8v2.6h-10c0,0.1,0,0.1,0,0.2c-0.1,0.9-0.1,1.6-0.1,1.9c0,1.5,0.2,2.6,0.5,3.2c0.3,0.6,0.9,0.9,1.7,0.9
		c0.7,0,1.2-0.2,1.6-0.7c0.4-0.5,0.5-1.2,0.5-2.1c0-0.2,0-0.5-0.1-0.9C174.6,34.8,174.6,34.7,174.6,34.7z M170.7,28.4h4.1
		c0,0,0-0.1,0-0.1c0.1-0.6,0.1-0.9,0.1-1.2c0-1.1-0.2-1.9-0.5-2.4c-0.3-0.5-0.9-0.8-1.6-0.8c-0.7,0-1.3,0.2-1.6,0.7
		c-0.3,0.5-0.5,1.3-0.5,2.5c0,0.3,0,0.6,0,0.7C170.6,28.1,170.6,28.3,170.7,28.4z"/>
	<path id="XMLID_121_" class="st4" d="M184,42.3V20.4h5.6v3.1c0.7-1.1,1.4-1.9,2.2-2.5c0.8-0.6,1.7-0.9,2.7-1V27
		c-0.3-0.1-0.7-0.1-1-0.2c-0.3,0-0.6-0.1-0.8-0.1c-1,0-1.7,0.3-2.1,1c-0.4,0.7-0.6,2.1-0.6,4.1v10.5H184z"/>
	<path id="XMLID_123_" class="st4" d="M220.2,31.1h6.7c0,0.2,0,0.4,0,0.6c0,0.2,0,0.5,0,0.9c0,3.6-0.8,6.2-2.3,7.9
		c-1.6,1.7-3.9,2.6-7.2,2.6c-1.9,0-3.5-0.3-4.9-0.9c-1.3-0.6-2.4-1.6-3.3-2.9c-0.6-0.9-1-2.2-1.2-3.8c-0.3-1.6-0.4-4.2-0.4-7.7
		c0-3.5,0.1-6.1,0.4-7.7c0.3-1.6,0.7-2.9,1.2-3.8c0.8-1.3,1.9-2.2,3.2-2.8s2.9-1,4.8-1c3.2,0,5.6,0.9,7.2,2.7c1.6,1.8,2.4,4.4,2.4,8
		v0.3l-6.6,0c0-2-0.3-3.4-0.7-4.2c-0.4-0.8-1.1-1.2-2.2-1.2c-1.1,0-1.8,0.5-2.3,1.5c-0.4,1-0.6,3.6-0.6,7.7v0.5
		c0,4.5,0.2,7.3,0.6,8.3c0.4,1,1.2,1.5,2.3,1.5c1,0,1.7-0.4,2.1-1.1c0.4-0.7,0.6-2.1,0.6-4.1V31.1z"/>
	<path id="XMLID_125_" class="st4" d="M237.1,42.3H231V13.2h6.1V42.3z"/>
	<path id="XMLID_127_" class="st4" d="M257.1,20.4v21.9h-5.7v-2.6c-0.7,1-1.4,1.8-2.3,2.3c-0.8,0.5-1.8,0.7-3,0.7
		c-1.7,0-2.9-0.6-3.7-1.7s-1.2-2.9-1.2-5.4V20.4h6.1V34c0,1.8,0.1,2.8,0.3,3.3c0.2,0.4,0.6,0.6,1.2,0.6c0.7,0,1.2-0.3,1.6-1
		c0.4-0.7,0.6-1.6,0.6-2.8V20.4H257.1z"/>
	<path id="XMLID_129_" class="st4" d="M261.4,13.2h6.1v9.3c0.6-0.9,1.2-1.5,1.9-1.9c0.7-0.4,1.5-0.6,2.4-0.6c2.2,0,3.7,0.8,4.5,2.3
		c0.8,1.6,1.2,4.8,1.2,9.8c0,2.3-0.1,4-0.2,5.3c-0.1,1.2-0.3,2.1-0.6,2.7c-0.5,1-1.1,1.7-1.9,2.2c-0.8,0.5-1.8,0.8-2.9,0.8
		c-1,0-2-0.3-2.8-0.8c-0.8-0.5-1.5-1.3-2.1-2.3v2.4h-5.7V13.2z M269.3,25.1c-0.7,0-1.2,0.4-1.5,1c-0.3,0.7-0.4,2-0.4,3.8
		c0,3.6,0.2,5.8,0.5,6.7c0.3,0.8,0.9,1.3,1.7,1.3c0.7,0,1.2-0.3,1.4-1c0.3-0.6,0.4-2.1,0.4-4.4V32c0-3.1-0.1-5-0.4-5.7
		C270.6,25.5,270.1,25.1,269.3,25.1z"/>
	<path id="XMLID_132_" class="st4" d="M291,34.7h5.7v0.5c0,2.6-0.7,4.5-2,5.8c-1.3,1.3-3.3,1.9-6,1.9c-1.3,0-2.5-0.2-3.6-0.6
		c-1.1-0.4-1.9-0.9-2.5-1.6c-0.7-0.8-1.2-1.8-1.5-3.1c-0.3-1.3-0.4-3.3-0.4-6.1c0-3.1,0.1-5.2,0.4-6.5c0.3-1.2,0.8-2.2,1.5-3
		c0.7-0.7,1.6-1.3,2.6-1.7c1.1-0.4,2.3-0.6,3.7-0.6c1.4,0,2.7,0.2,3.7,0.6c1,0.4,1.9,1,2.6,1.8c0.6,0.7,1,1.5,1.2,2.4
		c0.2,0.9,0.4,2.6,0.4,4.8v2.6h-10c0,0.1,0,0.1,0,0.2c-0.1,0.9-0.1,1.6-0.1,1.9c0,1.5,0.2,2.6,0.5,3.2c0.3,0.6,0.9,0.9,1.7,0.9
		c0.7,0,1.2-0.2,1.6-0.7c0.4-0.5,0.5-1.2,0.5-2.1c0-0.2,0-0.5-0.1-0.9C291,34.8,291,34.7,291,34.7z M287,28.4h4.1c0,0,0-0.1,0-0.1
		c0.1-0.6,0.1-0.9,0.1-1.2c0-1.1-0.2-1.9-0.5-2.4c-0.3-0.5-0.9-0.8-1.6-0.8c-0.7,0-1.3,0.2-1.6,0.7c-0.3,0.5-0.5,1.3-0.5,2.5
		c0,0.3,0,0.6,0,0.7C287,28.1,287,28.3,287,28.4z"/>
	<path id="XMLID_135_" class="st5" d="M311.2,42.3V13.2h9.5l2.6,12.4c0,0.1,0.1,0.8,0.3,2.3c0.2,1.5,0.4,3,0.6,4.5
		c0.2-1.1,0.4-2.5,0.6-4.2c0.2-1.7,0.4-2.6,0.4-2.8l2.6-12.3h9.4v29.1h-6.4l0.6-22.5l-4.6,22.5h-5.2L317,19.8l0.6,22.5H311.2z"/>
	<path id="XMLID_137_" class="st5" d="M360,26.4v16h-4.7l-0.3-1.8c-0.7,0.8-1.4,1.4-2.3,1.7c-0.8,0.4-1.8,0.6-2.8,0.6
		c-1.2,0-2.3-0.2-3.3-0.7c-1-0.4-1.9-1.1-2.6-1.9c-0.9-1-1.6-2.4-1.9-4.1c-0.4-1.7-0.6-4.7-0.6-8.8c0-2.9,0.1-5.3,0.4-7.1
		c0.3-1.8,0.7-3.1,1.2-4c0.8-1.3,1.9-2.2,3.2-2.9c1.3-0.6,2.9-1,4.7-1c2.9,0,5,0.8,6.5,2.3c1.5,1.6,2.2,3.9,2.2,7c0,0.1,0,0.3,0,0.5
		c0,0.2,0,0.4,0,0.6h-6.5v-0.4c0-1.7-0.2-2.9-0.5-3.6c-0.4-0.7-0.9-1.1-1.7-1.1c-1,0-1.6,0.4-2,1.3c-0.4,0.9-0.5,2.9-0.5,6.2v2.9v2
		c0,3.2,0.2,5.3,0.5,6.1c0.3,0.8,1,1.3,1.9,1.3c0.9,0,1.6-0.4,2-1.1c0.4-0.7,0.6-1.9,0.6-3.6c0-0.4,0-0.7,0-0.9c0-0.2,0-0.4,0-0.6
		h-2.7v-5.1H360z"/>
</g>
</svg>
