<?xml version="1.0" encoding="utf-8"?>
<!-- Generator: Adobe Illustrator 19.0.0, SVG Export Plug-In . SVG Version: 6.00 Build 0)  -->
<svg version="1.1" id="Layer_1" xmlns="http://www.w3.org/2000/svg" xmlns:xlink="http://www.w3.org/1999/xlink" x="0px" y="0px"
	 viewBox="-329 205.3 359.5 186" style="enable-background:new -329 205.3 359.5 186;" xml:space="preserve">
<style type="text/css">
	.st0{fill:#4E4E4E;}
	.st1{fill:url(#SVGID_1_);}
	.st2{fill:url(#SVGID_2_);}
	.st3{fill:url(#SVGID_3_);}
	.st4{fill:url(#SVGID_4_);}
	.st5{fill-rule:evenodd;clip-rule:evenodd;fill:#EC1E24;}
	.st6{fill-rule:evenodd;clip-rule:evenodd;fill:#FFFFFF;}
	.st7{fill-rule:evenodd;clip-rule:evenodd;fill:#000001;}
	.st8{fill:#231F20;}
	.st9{fill:#EC1C24;}
	.st10{fill:#E6E6E5;}
	.st11{fill-rule:evenodd;clip-rule:evenodd;fill:url(#XMLID_60_);}
	.st12{fill-rule:evenodd;clip-rule:evenodd;fill:url(#XMLID_94_);}
	.st13{fill-rule:evenodd;clip-rule:evenodd;fill:url(#XMLID_141_);}
	.st14{fill-rule:evenodd;clip-rule:evenodd;fill:url(#XMLID_142_);}
	.st15{fill-rule:evenodd;clip-rule:evenodd;fill:url(#XMLID_143_);}
	.st16{fill-rule:evenodd;clip-rule:evenodd;fill:url(#XMLID_144_);}
	.st17{fill-rule:evenodd;clip-rule:evenodd;fill:url(#XMLID_145_);}
	.st18{fill-rule:evenodd;clip-rule:evenodd;fill:url(#XMLID_146_);}
	.st19{fill-rule:evenodd;clip-rule:evenodd;fill:url(#XMLID_147_);}
	.st20{fill:url(#path1962_3_);}
	.st21{fill:url(#XMLID_148_);}
	.st22{fill:url(#XMLID_149_);}
</style>
<g>
	<g>
		<path class="st0" d="M16078.7,222.2c0,2.7-0.7,4.7-2.2,6.2s-3.5,2.2-6.2,2.2h-5.1v-16h5.5c2.6,0,4.5,0.7,5.9,2
			C16078,217.9,16078.7,219.8,16078.7,222.2z M16074.2,222.4c0-1.5-0.3-2.6-0.9-3.3s-1.5-1.1-2.6-1.1h-1.3v9h1
			c1.3,0,2.3-0.4,2.9-1.1C16073.9,225.1,16074.2,224,16074.2,222.4z"/>
		<path class="st0" d="M16085.9,230.8c-2.1,0-3.6-0.6-4.8-1.7c-1.1-1.1-1.7-2.7-1.7-4.7c0-2.1,0.5-3.7,1.6-4.8
			c1.1-1.1,2.6-1.7,4.5-1.7c1.9,0,3.3,0.5,4.3,1.5c1,1,1.5,2.4,1.5,4.2v1.9h-7.6c0,0.7,0.3,1.2,0.8,1.6c0.5,0.4,1.1,0.6,1.9,0.6
			c0.7,0,1.4-0.1,2.1-0.2c0.6-0.1,1.3-0.4,2-0.7v3.1c-0.7,0.3-1.4,0.6-2.1,0.7C16087.7,230.8,16086.9,230.8,16085.9,230.8z
			 M16085.6,220.9c-0.5,0-0.9,0.2-1.3,0.5c-0.3,0.3-0.5,0.8-0.6,1.5h3.7c0-0.6-0.2-1.1-0.5-1.4
			C16086.6,221.1,16086.2,220.9,16085.6,220.9z"/>
		<path class="st0" d="M16095.6,230.6l-4.7-12.4h4.4l2.1,7.3c0,0,0,0.1,0,0.2c0,0.1,0,0.2,0.1,0.3c0,0.1,0,0.2,0.1,0.4
			c0,0.1,0,0.3,0,0.4h0.1c0-0.4,0.1-0.8,0.2-1.2l2.2-7.4h4.4l-4.7,12.4L16095.6,230.6L16095.6,230.6z"/>
		<path class="st0" d="M16109.1,230.6h-4.2v-16h9.4v3.5h-5.2v3.1h4.8v3.5h-4.8V230.6L16109.1,230.6z"/>
		<path class="st0" d="M16121.3,230.8c-2.1,0-3.6-0.6-4.8-1.7c-1.1-1.1-1.7-2.7-1.7-4.7c0-2.1,0.5-3.7,1.6-4.8
			c1.1-1.1,2.6-1.7,4.5-1.7c1.9,0,3.3,0.5,4.3,1.5c1,1,1.5,2.4,1.5,4.2v1.9h-7.6c0,0.7,0.3,1.2,0.8,1.6c0.5,0.4,1.1,0.6,1.9,0.6
			c0.7,0,1.4-0.1,2.1-0.2c0.6-0.1,1.3-0.4,2-0.7v3.1c-0.7,0.3-1.4,0.6-2.1,0.7C16123.1,230.8,16122.3,230.8,16121.3,230.8z
			 M16121,220.9c-0.5,0-0.9,0.2-1.3,0.5c-0.3,0.3-0.5,0.8-0.6,1.5h3.7c0-0.6-0.2-1.1-0.5-1.4C16122,221.1,16121.6,220.9,16121,220.9
			z"/>
		<path class="st0" d="M16137.3,226.8c0,1.3-0.5,2.3-1.4,3c-0.9,0.7-2.2,1-3.9,1c-0.9,0-1.7,0-2.4-0.1s-1.4-0.3-2.1-0.5v-3.4
			c0.7,0.3,1.4,0.5,2.2,0.7c0.8,0.2,1.5,0.3,2.1,0.3c0.9,0,1.4-0.2,1.4-0.6c0-0.2-0.1-0.4-0.4-0.6c-0.3-0.2-1-0.5-2.2-1
			c-1.1-0.5-1.9-1-2.4-1.6c-0.4-0.6-0.7-1.4-0.7-2.3c0-1.2,0.4-2.1,1.3-2.7c0.9-0.6,2.1-1,3.8-1c0.8,0,1.6,0.1,2.3,0.3
			s1.5,0.4,2.2,0.8l-1.2,2.8c-0.6-0.3-1.2-0.5-1.8-0.7c-0.6-0.2-1.1-0.3-1.5-0.3c-0.7,0-1,0.2-1,0.5c0,0.2,0.1,0.4,0.4,0.5
			s0.9,0.5,2.1,0.9c0.9,0.4,1.5,0.7,1.9,1.1c0.4,0.3,0.7,0.7,0.9,1.2C16137.2,225.6,16137.3,226.1,16137.3,226.8z"/>
		<path class="st0" d="M16144.4,227.4c0.6,0,1.3-0.1,2.1-0.4v3.1c-0.6,0.2-1.1,0.4-1.6,0.5c-0.5,0.1-1.1,0.2-1.8,0.2
			c-1.4,0-2.5-0.4-3.1-1.1c-0.6-0.7-0.9-1.8-0.9-3.3v-5.1h-1.5v-1.7l1.9-1.3l1.1-2.6h2.8v2.5h3v3.2h-3v4.8
			C16143.2,227,16143.6,227.4,16144.4,227.4z"/>
	</g>
	<g>
		<path class="st0" d="M16023,252.2h-10.3v-1.8l3.9-3.9c1.2-1.2,1.9-2,2.3-2.5c0.4-0.5,0.7-1,0.8-1.4c0.2-0.4,0.3-0.9,0.3-1.4
			c0-0.7-0.2-1.2-0.6-1.6c-0.4-0.4-1-0.6-1.7-0.6c-0.6,0-1.1,0.1-1.7,0.3c-0.5,0.2-1.2,0.6-1.9,1.2l-1.3-1.6
			c0.8-0.7,1.7-1.2,2.5-1.5c0.8-0.3,1.6-0.4,2.5-0.4c1.4,0,2.5,0.4,3.4,1.1c0.8,0.7,1.3,1.7,1.3,3c0,0.7-0.1,1.3-0.4,1.9
			c-0.2,0.6-0.6,1.2-1.1,1.9c-0.5,0.7-1.3,1.5-2.5,2.6l-2.6,2.5v0.1h7.2L16023,252.2L16023,252.2z"/>
		<path class="st0" d="M16033.9,244.6c0,2.6-0.4,4.6-1.3,5.9c-0.8,1.3-2.1,1.9-3.9,1.9c-1.7,0-3-0.7-3.8-2s-1.3-3.2-1.3-5.8
			c0-2.7,0.4-4.6,1.3-5.9c0.8-1.3,2.1-1.9,3.9-1.9c1.7,0,3,0.7,3.8,2C16033.4,240.1,16033.9,242.1,16033.9,244.6z M16026,244.6
			c0,2.1,0.2,3.5,0.6,4.4c0.4,0.9,1.1,1.3,2,1.3c0.9,0,1.6-0.4,2-1.3c0.4-0.9,0.6-2.4,0.6-4.4c0-2-0.2-3.5-0.6-4.4
			c-0.4-0.9-1.1-1.4-2-1.4c-0.9,0-1.6,0.4-2,1.3C16026.3,241.1,16026,242.5,16026,244.6z"/>
		<path class="st0" d="M16041.6,252.2h-2.4v-9.8c0-1.2,0-2.1,0.1-2.8c-0.2,0.2-0.4,0.3-0.6,0.5c-0.2,0.2-1,0.8-2.3,1.9l-1.2-1.5
			l4.4-3.5h2L16041.6,252.2L16041.6,252.2z"/>
		<path class="st0" d="M16056,248.9h-2v3.3h-2.4v-3.3h-6.9V247l6.9-10h2.4v9.8h2C16056,246.8,16056,248.9,16056,248.9z
			 M16051.6,246.8v-3.8c0-1.4,0-2.5,0.1-3.3h-0.1c-0.2,0.5-0.5,1-0.9,1.7l-3.8,5.5H16051.6z"/>
		<path class="st0" d="M16070.1,248.1c0,1.3-0.5,2.4-1.5,3.2c-1,0.8-2.3,1.1-4,1.1s-3.1-0.3-4.2-0.8v-2.3c0.7,0.3,1.4,0.6,2.2,0.8
			c0.8,0.2,1.5,0.3,2.2,0.3c1,0,1.7-0.2,2.2-0.6c0.5-0.4,0.7-0.9,0.7-1.5c0-0.6-0.2-1-0.6-1.4c-0.4-0.4-1.3-0.9-2.6-1.4
			c-1.4-0.6-2.4-1.2-2.9-1.9s-0.8-1.6-0.8-2.6c0-1.3,0.4-2.3,1.3-3c0.9-0.7,2.1-1.1,3.6-1.1c1.4,0,2.9,0.3,4.3,1l-0.8,2
			c-1.3-0.6-2.5-0.8-3.6-0.8c-0.8,0-1.4,0.2-1.8,0.5c-0.4,0.3-0.6,0.8-0.6,1.4c0,0.4,0.1,0.7,0.2,1s0.4,0.5,0.8,0.8
			c0.4,0.2,1.1,0.6,2,1c1.1,0.5,1.9,0.9,2.4,1.3c0.5,0.4,0.9,0.9,1.1,1.4C16070,246.8,16070.1,247.4,16070.1,248.1z"/>
		<path class="st0" d="M16076.5,252.4c-1.8,0-3.2-0.5-4.2-1.6c-1-1-1.5-2.5-1.5-4.3c0-1.9,0.5-3.3,1.4-4.4c0.9-1.1,2.2-1.6,3.8-1.6
			c1.5,0,2.7,0.5,3.6,1.4c0.9,0.9,1.3,2.2,1.3,3.8v1.3h-7.6c0,1.1,0.3,2,0.9,2.6c0.6,0.6,1.4,0.9,2.4,0.9c0.7,0,1.3-0.1,1.9-0.2
			c0.6-0.1,1.2-0.3,1.9-0.6v2c-0.6,0.3-1.2,0.5-1.8,0.6C16077.9,252.3,16077.3,252.4,16076.5,252.4z M16076,242.4
			c-0.8,0-1.4,0.2-1.9,0.7c-0.5,0.5-0.7,1.2-0.8,2.1h5.2c0-0.9-0.2-1.7-0.7-2.1C16077.4,242.6,16076.8,242.4,16076,242.4z"/>
		<path class="st0" d="M16089.6,252.2l-0.5-1.6h-0.1c-0.6,0.7-1.1,1.2-1.7,1.4c-0.6,0.3-1.3,0.4-2.2,0.4c-1.1,0-2-0.3-2.6-0.9
			c-0.6-0.6-0.9-1.5-0.9-2.6c0-1.2,0.4-2.1,1.3-2.7c0.9-0.6,2.2-0.9,4-1l2-0.1v-0.6c0-0.7-0.2-1.3-0.5-1.6c-0.3-0.4-0.9-0.5-1.6-0.5
			c-0.6,0-1.1,0.1-1.7,0.3c-0.5,0.2-1.1,0.4-1.6,0.6l-0.8-1.7c0.6-0.3,1.3-0.6,2-0.7c0.7-0.2,1.4-0.3,2.1-0.3c1.5,0,2.6,0.3,3.3,1
			c0.7,0.6,1.1,1.6,1.1,3v7.7C16091.3,252.2,16089.6,252.2,16089.6,252.2z M16086,250.5c0.9,0,1.6-0.2,2.1-0.7
			c0.5-0.5,0.8-1.2,0.8-2.1v-1l-1.5,0.1c-1.1,0-2,0.2-2.5,0.6c-0.5,0.3-0.8,0.9-0.8,1.6c0,0.5,0.2,0.9,0.5,1.2
			C16084.9,250.4,16085.3,250.5,16086,250.5z"/>
		<path class="st0" d="M16101.1,248.9c0,1.1-0.4,2-1.2,2.6c-0.8,0.6-2,0.9-3.5,0.9c-1.5,0-2.7-0.2-3.7-0.7v-2.1
			c1.3,0.6,2.6,0.9,3.8,0.9c1.5,0,2.2-0.5,2.2-1.4c0-0.3-0.1-0.5-0.2-0.7c-0.2-0.2-0.4-0.4-0.8-0.6s-0.9-0.4-1.6-0.7
			c-1.3-0.5-2.2-1-2.7-1.5c-0.5-0.5-0.7-1.2-0.7-2c0-1,0.4-1.7,1.2-2.3c0.8-0.5,1.9-0.8,3.2-0.8c1.3,0,2.6,0.3,3.8,0.8l-0.8,1.8
			c-1.2-0.5-2.3-0.8-3.1-0.8c-1.3,0-1.9,0.4-1.9,1.1c0,0.4,0.2,0.7,0.5,0.9c0.3,0.2,1.1,0.6,2.2,1c0.9,0.4,1.6,0.7,2.1,1
			c0.4,0.3,0.7,0.7,1,1.1S16101.1,248.4,16101.1,248.9z"/>
		<path class="st0" d="M16112.6,246.4c0,1.9-0.5,3.3-1.4,4.4s-2.3,1.6-4,1.6c-1.1,0-2-0.2-2.8-0.7c-0.8-0.5-1.5-1.2-1.9-2.1
			c-0.4-0.9-0.7-2-0.7-3.1c0-1.9,0.5-3.3,1.4-4.3c1-1,2.3-1.6,4-1.6c1.7,0,3,0.5,3.9,1.6C16112.1,243.2,16112.6,244.6,16112.6,246.4
			z M16104.3,246.4c0,2.6,1,4,2.9,4c1.9,0,2.9-1.3,2.9-4c0-2.6-1-3.9-2.9-3.9c-1,0-1.8,0.3-2.2,1
			C16104.5,244.2,16104.3,245.2,16104.3,246.4z"/>
		<path class="st0" d="M16124.2,252.2h-2.4v-7c0-0.9-0.2-1.5-0.5-2c-0.4-0.4-0.9-0.7-1.7-0.7c-1,0-1.8,0.3-2.3,0.9
			c-0.5,0.6-0.7,1.6-0.7,3.1v5.7h-2.4v-11.4h1.9l0.3,1.5h0.1c0.3-0.5,0.8-1,1.5-1.3c0.6-0.3,1.3-0.4,2.1-0.4c2.7,0,4.1,1.4,4.1,4.2
			V252.2z"/>
	</g>
	<g>
		<path class="st0" d="M16018.3,221.6h6.9v8.6c-1.9,0.6-3.9,1-6.2,1c-2.5,0-4.4-0.7-5.7-2.1c-1.3-1.4-2-3.5-2-6.1
			c0-2.6,0.7-4.6,2.2-6c1.5-1.4,3.5-2.2,6.2-2.2c1,0,2,0.1,2.9,0.3c0.9,0.2,1.7,0.4,2.3,0.7l-1.4,3.4c-1.2-0.6-2.4-0.9-3.8-0.9
			c-1.3,0-2.2,0.4-2.9,1.2c-0.7,0.8-1,2-1,3.5c0,1.5,0.3,2.6,0.9,3.4c0.6,0.8,1.5,1.2,2.7,1.2c0.6,0,1.2-0.1,1.8-0.2v-2.5h-2.9
			C16018.3,224.9,16018.3,221.6,16018.3,221.6z"/>
		<path class="st0" d="M16040.8,222.6c0,2.7-0.7,4.7-2.2,6.2c-1.5,1.4-3.5,2.2-6.2,2.2h-5.2v-16h5.6c2.6,0,4.6,0.7,6,2
			S16040.8,220.1,16040.8,222.6z M16036.3,222.8c0-1.5-0.3-2.6-0.9-3.3s-1.5-1.1-2.6-1.1h-1.3v9h1c1.3,0,2.3-0.4,2.9-1.1
			C16036,225.5,16036.3,224.3,16036.3,222.8z"/>
		<path class="st0" d="M16048.7,221.6h6.9v8.6c-1.9,0.6-3.9,1-6.2,1c-2.5,0-4.4-0.7-5.7-2.1c-1.3-1.4-2-3.5-2-6.1
			c0-2.6,0.7-4.6,2.2-6c1.5-1.4,3.5-2.2,6.2-2.2c1,0,2,0.1,2.9,0.3c0.9,0.2,1.7,0.4,2.3,0.7l-1.4,3.4c-1.2-0.6-2.4-0.9-3.8-0.9
			c-1.3,0-2.2,0.4-2.9,1.2c-0.7,0.8-1,2-1,3.5c0,1.5,0.3,2.6,0.9,3.4c0.6,0.8,1.5,1.2,2.7,1.2c0.6,0,1.2-0.1,1.8-0.2v-2.5h-2.9
			C16048.7,224.9,16048.7,221.6,16048.7,221.6z"/>
	</g>
	
		<radialGradient id="SVGID_1_" cx="32404.4082" cy="248.9823" r="20.1129" gradientTransform="matrix(0.498 0 0 -0.498 -157.0229 378.1057)" gradientUnits="userSpaceOnUse">
		<stop  offset="0" style="stop-color:#FFCF4F"/>
		<stop  offset="1" style="stop-color:#F4C236"/>
	</radialGradient>
	<path class="st1" d="M15971.7,265.3h6.8c1.6,0,3.6-1.1,4.4-2.5l5.7-9.5c0.7-1.4,0.7-3.4-0.1-4.7l-3.4-5.6L15971.7,265.3z"/>
	
		<radialGradient id="SVGID_2_" cx="32392.3555" cy="259.1961" r="27.6571" gradientTransform="matrix(0.498 0 0 -0.498 -157.0229 378.1057)" gradientUnits="userSpaceOnUse">
		<stop  offset="0" style="stop-color:#08A960"/>
		<stop  offset="1" style="stop-color:#07914B"/>
	</radialGradient>
	<path class="st2" d="M15979,237.8l-15.1,25.2c-0.6,1.2,0,2.2,1.5,2.2h6.3l13.4-22.3l-6.1-10.2
		C15979.8,234.1,15979.8,236.4,15979,237.8"/>
	
		<radialGradient id="SVGID_3_" cx="32401.8066" cy="298.8779" r="40.5382" gradientTransform="matrix(0.498 0 0 -0.498 -157.0229 378.1057)" gradientUnits="userSpaceOnUse">
		<stop  offset="0" style="stop-color:#567FC0"/>
		<stop  offset="1" style="stop-color:#557FC0"/>
	</radialGradient>
	<path class="st3" d="M15965.4,205.3c-1.6,0-2.3,1.1-1.4,2.5l24.5,40.7c0.8,1.3,0.8,3.3,0.1,4.7l6-9.9l-22.9-38H15965.4z"/>
	
		<radialGradient id="SVGID_4_" cx="32413.8711" cy="308.8417" r="33.0576" gradientTransform="matrix(0.498 0 0 -0.498 -157.0229 378.1057)" gradientUnits="userSpaceOnUse">
		<stop  offset="0" style="stop-color:#E14C40"/>
		<stop  offset="1" style="stop-color:#CD392D"/>
	</radialGradient>
	<path class="st4" d="M15971.7,205.3l22.9,38l3.3-5.5c0.8-1.4,0.8-3.6,0-5l-15-25c-0.8-1.4-2.8-2.5-4.4-2.5H15971.7z"/>
</g>
<g id="XMLID_104_">
	<g id="XMLID_2_">
		<polygon id="XMLID_13_" class="st5" points="-329,265.3 -294.5,205.6 -260,265.3 		"/>
		<path id="XMLID_12_" class="st6" d="M-296.2,226.9c-2.8,0.4-4.6,0.7-7.2,2.2c-6.5,3.7-10.3,10.4-9.6,18.1
			c1.5,16.5,22.1,22.5,32.5,10.5c2.7-3.1,5.1-8.1,4.5-14c-0.3-2.9-1-4.9-2.2-7.1C-281.4,230.5-288.8,225.8-296.2,226.9"/>
		<path id="XMLID_11_" class="st7" d="M-296.7,227.9c-2.5,0.4-4.7,1.1-6.5,2.2c-2.2,1.2-3.3,2.3-4.8,4c-3,3.3-4.5,8.8-3.9,13.4
			c1.2,8.9,9.2,16.5,19.6,15.2c8.9-1.2,16.5-9.2,15.2-19.6c-0.3-2.5-1.1-4.6-2.2-6.5C-282.5,230.9-289.4,226.9-296.7,227.9"/>
		<path id="XMLID_10_" class="st6" d="M-295.5,229.8c-8.3,0.6-15.2,7.6-14.6,16.6c0.5,8.3,7.7,15.2,16.7,14.6
			c8.3-0.6,15-7.7,14.5-16.7C-279.4,236.1-286.6,229.2-295.5,229.8"/>
		<path id="XMLID_9_" class="st7" d="M-297.1,259.6c1.3,0.8,5.7,0.1,7.2-0.4c1.7-0.6,4.3-2,5.1-3l-0.8-7.1l-2.9,2.6
			c-0.2,0.2-0.4,0.4-0.7,0.7l-1.4,1.3c-0.3,0.2-0.4,0.3-0.8,0.7l-4.3,3.9C-296.3,258.8-296.1,258.8-297.1,259.6"/>
		<path id="XMLID_8_" class="st7" d="M-283.7,255.2c1.3-1.8,2.1-2.4,3-5c0.7-2,1.1-4.6,0.6-6.9c-1.1-0.5-4.5-2.4-5.3-2.6
			C-285.3,242.1-284,254.7-283.7,255.2"/>
		<path id="XMLID_7_" class="st7" d="M-292.6,254l-13.9-0.5c1.2,2.1,4.1,4.5,7,5.6c1.3,0.5,1.2,0.3,1.9-0.5L-292.6,254z"/>
		<path id="XMLID_6_" class="st7" d="M-304.5,245.1c0.3-0.3,1.9-5.6,2.2-6.5c0.4-1.3,2.1-5.7,2.3-6.6c-2.4,0.6-5.5,3.6-6.7,5.6
			c-0.4,0.6-0.7,1.2-1.1,2c-0.4,0.9-0.3,0.7,0.6,2C-306.4,242.7-305.5,243.9-304.5,245.1"/>
		<path id="XMLID_5_" class="st7" d="M-307.3,252.4l6.8,0.2l-8-11c-0.7,1.1-0.6,4.3-0.4,5.8C-308.6,249.6-307.9,250.6-307.3,252.4"
			/>
		<path id="XMLID_4_" class="st7" d="M-300.6,237.2c0.6-0.1,12.2-4.1,13.1-4.6c-0.6-0.6-2.7-1.2-3.7-1.5c-1.8-0.4-5.4-0.5-7.1,0.2
			c-0.4,0.2-0.4,0.3-0.5,0.8C-299.4,233.5-300.4,236.1-300.6,237.2"/>
		<path id="XMLID_3_" class="st7" d="M-292.6,235.7c2.3,0.9,6.6,3.4,9,4.6c0.9,0.4,2.3,1.3,3.1,1.5c-0.5-2.2-1.5-4-2.8-5.6
			c-0.4-0.5-2.5-2.6-3-2.7c-0.3-0.1-3.6,1.2-4.2,1.4C-291,235.1-292.2,235.4-292.6,235.7"/>
		<path id="path1962" d="M-291.4,252.5c0,0-0.7-1.4-1.6-3.1c-0.9-1.7-1.6-3-1.6-3.1c0,0-0.5,0.4-1.3,1.2c-1.2,1.2-1.2,1.3-1.2,1.4
			c0,0.1,0,0.5,0.1,1l0.1,0.9l-0.5,0.5l-0.5,0.5l-0.6-1.1l-0.6-1.1l-1.1-0.6c-0.6-0.3-1.1-0.6-1.1-0.6s0.2-0.2,0.5-0.5l0.5-0.5
			l1,0.1l1,0.1l1.3-1.3c1-1,1.3-1.3,1.2-1.3c0,0-1.4-0.8-3.1-1.7l-3.1-1.6l0.6-0.6l0.6-0.6l3.8,1l3.8,1l1.7-1.7
			c1.2-1.2,1.8-1.8,1.9-1.8c0.1,0,0.2-0.1,0.4-0.1c0.3,0,0.5,0.1,0.7,0.3c0.2,0.2,0.2,0.3,0.2,0.6c0,0.4,0,0.4-1.9,2.3l-1.8,1.8
			l0.8,2.9c0.4,1.6,0.9,3.3,1,3.7l0.2,0.8l-0.6,0.6C-291.2,252.4-291.3,252.6-291.4,252.5z"/>
	</g>
	<g id="XMLID_105_">
		<path id="XMLID_106_" class="st8" d="M-250.3,246.8h6.2v0.9c0,1.6,0.2,2.7,0.6,3.4c0.4,0.7,1,1,1.9,1c0.7,0,1.3-0.2,1.7-0.7
			c0.4-0.5,0.6-1.2,0.6-2c0-1.4-1-2.8-3-4.1c-0.3-0.2-0.6-0.4-0.8-0.5l-0.3-0.2c-2.7-1.8-4.4-3.2-5.1-4.2c-0.5-0.7-0.8-1.5-1.1-2.4
			c-0.3-0.9-0.4-1.8-0.4-2.9c0-2.5,0.7-4.5,2.2-6c1.5-1.5,3.5-2.2,6.1-2.2c2.8,0,5,0.7,6.4,2.1c1.5,1.4,2.2,3.5,2.2,6.2
			c0,0.1,0,0.3,0,0.5c0,0.2,0,0.4,0,0.5h-6.1v-0.4c0-1.3-0.2-2.2-0.6-2.9c-0.4-0.7-1-1-1.7-1c-0.6,0-1.2,0.2-1.6,0.7
			c-0.4,0.5-0.6,1.1-0.6,1.8c0,1.2,1.1,2.5,3.3,3.9c0.4,0.3,0.7,0.5,0.9,0.6c0.2,0.1,0.4,0.3,0.7,0.5c2.4,1.5,3.9,2.8,4.6,3.8
			c0.4,0.7,0.7,1.4,1,2.3c0.2,0.9,0.3,1.8,0.3,2.8c0,2.9-0.8,5.2-2.3,6.7c-1.5,1.6-3.7,2.4-6.5,2.4c-3,0-5.2-0.8-6.7-2.3
			s-2.2-3.7-2.2-6.7c0-0.2,0-0.4,0-0.6C-250.3,247.6-250.3,247.2-250.3,246.8z"/>
		<path id="XMLID_108_" class="st8" d="M-229.2,264v-29.2h5.6v2.5c0.6-1,1.3-1.7,2.1-2.2c0.8-0.5,1.8-0.8,2.8-0.8
			c0.9,0,1.6,0.2,2.3,0.5c0.7,0.3,1.3,0.7,1.8,1.3c0.5,0.7,0.9,1.6,1.1,2.7c0.2,1.1,0.3,3.3,0.3,6.4c0,5-0.4,8.2-1.2,9.8
			c-0.8,1.6-2.3,2.3-4.5,2.3c-0.9,0-1.7-0.2-2.4-0.6c-0.7-0.4-1.3-1.1-1.9-1.9v9.3H-229.2z M-221.2,252.1c0.8,0,1.3-0.5,1.6-1.4
			c0.3-0.9,0.4-3,0.4-6.3c0-2-0.1-3.3-0.4-4.1c-0.3-0.7-0.8-1.1-1.5-1.1c-0.8,0-1.4,0.4-1.7,1.3c-0.3,0.8-0.5,3.1-0.5,6.7
			c0,1.9,0.1,3.1,0.4,3.8C-222.5,251.7-222,252.1-221.2,252.1z"/>
		<path id="XMLID_111_" class="st8" d="M-210.1,245.7c0-4.3,0.6-7.3,1.8-9c1.2-1.7,3.3-2.6,6.3-2.6c3,0,5.1,0.9,6.3,2.6
			c1.2,1.7,1.8,4.7,1.8,9c0,4.3-0.6,7.2-1.8,9c-1.2,1.7-3.3,2.6-6.3,2.6c-3,0-5.1-0.8-6.3-2.5C-209.5,253-210.1,250-210.1,245.7z
			 M-203.9,245.7c0,3.1,0.1,5,0.4,5.8c0.3,0.8,0.8,1.2,1.5,1.2c0.7,0,1.3-0.4,1.5-1.1c0.3-0.7,0.4-2.7,0.4-5.8
			c0-3.1-0.1-5.1-0.4-5.8c-0.3-0.8-0.8-1.1-1.5-1.1c-0.7,0-1.3,0.4-1.5,1.2C-203.7,240.7-203.9,242.6-203.9,245.7z"/>
		<path id="XMLID_114_" class="st8" d="M-180.4,256.6c-0.7,0.1-1.4,0.2-1.9,0.3c-0.6,0.1-1,0.1-1.4,0.1c-1.2,0-2.2-0.2-3.1-0.6
			c-0.9-0.4-1.5-1-1.9-1.7c-0.3-0.5-0.5-1.1-0.6-1.9c-0.1-0.8-0.2-1.9-0.2-3.5v-2.7v-7.3h-2.4v-4.5h2.4v-6.1h6.1v6.1h2.9v4.5h-2.9
			v8.9c0,1.9,0.1,3.1,0.4,3.5c0.3,0.4,0.8,0.7,1.6,0.7c0.1,0,0.4,0,0.7-0.1c0.1,0,0.2,0,0.2,0V256.6z"/>
		<path id="XMLID_116_" class="st8" d="M-167.6,256.6c-0.7,0.1-1.4,0.2-1.9,0.3c-0.6,0.1-1,0.1-1.4,0.1c-1.2,0-2.2-0.2-3.1-0.6
			c-0.9-0.4-1.5-1-1.9-1.7c-0.3-0.5-0.5-1.1-0.6-1.9c-0.1-0.8-0.2-1.9-0.2-3.5v-2.7v-7.3h-2.4v-4.5h2.4v-6.1h6.1v6.1h2.9v4.5h-2.9
			v8.9c0,1.9,0.1,3.1,0.4,3.5c0.3,0.4,0.8,0.7,1.6,0.7c0.1,0,0.4,0,0.7-0.1c0.1,0,0.2,0,0.2,0V256.6z"/>
		<path id="XMLID_118_" class="st8" d="M-154.9,249h5.7v0.5c0,2.6-0.7,4.5-2,5.8c-1.3,1.3-3.3,1.9-6,1.9c-1.3,0-2.5-0.2-3.6-0.6
			c-1.1-0.4-1.9-0.9-2.5-1.6c-0.7-0.8-1.2-1.8-1.5-3.1c-0.3-1.3-0.4-3.3-0.4-6.1c0-3.1,0.1-5.2,0.4-6.5c0.3-1.2,0.8-2.2,1.5-3
			c0.7-0.7,1.6-1.3,2.6-1.7c1.1-0.4,2.3-0.6,3.7-0.6c1.4,0,2.7,0.2,3.7,0.6c1,0.4,1.9,1,2.6,1.8c0.6,0.7,1,1.5,1.2,2.4
			c0.2,0.9,0.4,2.6,0.4,4.8v2.6h-10c0,0.1,0,0.1,0,0.2c-0.1,0.9-0.1,1.6-0.1,1.9c0,1.5,0.2,2.6,0.5,3.2c0.3,0.6,0.9,0.9,1.7,0.9
			c0.7,0,1.2-0.2,1.6-0.7c0.4-0.5,0.5-1.2,0.5-2.1c0-0.2,0-0.5-0.1-0.9C-154.9,249.1-154.9,249-154.9,249z M-158.8,242.7h4.1
			c0,0,0-0.1,0-0.1c0.1-0.6,0.1-0.9,0.1-1.2c0-1.1-0.2-1.9-0.5-2.4c-0.3-0.5-0.9-0.8-1.6-0.8c-0.7,0-1.3,0.2-1.6,0.7
			c-0.3,0.5-0.5,1.3-0.5,2.5c0,0.3,0,0.6,0,0.7C-158.9,242.5-158.9,242.6-158.8,242.7z"/>
		<path id="XMLID_121_" class="st8" d="M-145.5,256.7v-21.9h5.6v3.1c0.7-1.1,1.4-1.9,2.2-2.5c0.8-0.6,1.7-0.9,2.7-1v6.9
			c-0.3-0.1-0.7-0.1-1-0.2c-0.3,0-0.6-0.1-0.8-0.1c-1,0-1.7,0.3-2.1,1c-0.4,0.7-0.6,2.1-0.6,4.1v10.5H-145.5z"/>
		<path id="XMLID_123_" class="st8" d="M-109.3,245.4h6.7c0,0.2,0,0.4,0,0.6c0,0.2,0,0.5,0,0.9c0,3.6-0.8,6.2-2.3,7.9
			c-1.6,1.7-3.9,2.6-7.2,2.6c-1.9,0-3.5-0.3-4.9-0.9c-1.3-0.6-2.4-1.6-3.3-2.9c-0.6-0.9-1-2.2-1.2-3.8c-0.3-1.6-0.4-4.2-0.4-7.7
			c0-3.5,0.1-6.1,0.4-7.7c0.3-1.6,0.7-2.9,1.2-3.8c0.8-1.3,1.9-2.2,3.2-2.8c1.3-0.6,2.9-1,4.8-1c3.2,0,5.6,0.9,7.2,2.7
			c1.6,1.8,2.4,4.4,2.4,8v0.3l-6.6,0c0-2-0.3-3.4-0.7-4.2c-0.4-0.8-1.1-1.2-2.2-1.2c-1.1,0-1.8,0.5-2.3,1.5c-0.4,1-0.6,3.6-0.6,7.7
			v0.5c0,4.5,0.2,7.3,0.6,8.3c0.4,1,1.2,1.5,2.3,1.5c1,0,1.7-0.4,2.1-1.1c0.4-0.7,0.6-2.1,0.6-4.1V245.4z"/>
		<path id="XMLID_125_" class="st8" d="M-92.4,256.7h-6.1v-29.1h6.1V256.7z"/>
		<path id="XMLID_127_" class="st8" d="M-72.4,234.8v21.9h-5.7v-2.6c-0.7,1-1.4,1.8-2.3,2.3c-0.8,0.5-1.8,0.7-3,0.7
			c-1.7,0-2.9-0.6-3.7-1.7c-0.8-1.1-1.2-2.9-1.2-5.4v-15.3h6.1v13.5c0,1.8,0.1,2.8,0.3,3.3c0.2,0.4,0.6,0.6,1.2,0.6
			c0.7,0,1.2-0.3,1.6-1c0.4-0.7,0.6-1.6,0.6-2.8v-13.7H-72.4z"/>
		<path id="XMLID_129_" class="st8" d="M-68.1,227.5h6.1v9.3c0.6-0.9,1.2-1.5,1.9-1.9c0.7-0.4,1.5-0.6,2.4-0.6
			c2.2,0,3.7,0.8,4.5,2.3c0.8,1.6,1.2,4.8,1.2,9.8c0,2.3-0.1,4-0.2,5.3c-0.1,1.2-0.3,2.1-0.6,2.7c-0.5,1-1.1,1.7-1.9,2.2
			c-0.8,0.5-1.8,0.8-2.9,0.8c-1,0-2-0.3-2.8-0.8c-0.8-0.5-1.5-1.3-2.1-2.3v2.4h-5.7V227.5z M-60.2,239.5c-0.7,0-1.2,0.4-1.5,1
			c-0.3,0.7-0.4,2-0.4,3.8c0,3.6,0.2,5.8,0.5,6.7c0.3,0.8,0.9,1.3,1.7,1.3c0.7,0,1.2-0.3,1.4-1c0.3-0.6,0.4-2.1,0.4-4.4v-0.6
			c0-3.1-0.1-5-0.4-5.7C-58.9,239.8-59.4,239.5-60.2,239.5z"/>
		<path id="XMLID_132_" class="st8" d="M-38.5,249h5.7v0.5c0,2.6-0.7,4.5-2,5.8c-1.3,1.3-3.3,1.9-6,1.9c-1.3,0-2.5-0.2-3.6-0.6
			c-1.1-0.4-1.9-0.9-2.5-1.6c-0.7-0.8-1.2-1.8-1.5-3.1c-0.3-1.3-0.4-3.3-0.4-6.1c0-3.1,0.1-5.2,0.4-6.5c0.3-1.2,0.8-2.2,1.5-3
			c0.7-0.7,1.6-1.3,2.6-1.7c1.1-0.4,2.3-0.6,3.7-0.6c1.4,0,2.7,0.2,3.7,0.6c1,0.4,1.9,1,2.6,1.8c0.6,0.7,1,1.5,1.2,2.4
			c0.2,0.9,0.4,2.6,0.4,4.8v2.6h-10c0,0.1,0,0.1,0,0.2c-0.1,0.9-0.1,1.6-0.1,1.9c0,1.5,0.2,2.6,0.5,3.2c0.3,0.6,0.9,0.9,1.7,0.9
			c0.7,0,1.2-0.2,1.6-0.7c0.4-0.5,0.5-1.2,0.5-2.1c0-0.2,0-0.5-0.1-0.9C-38.5,249.1-38.5,249-38.5,249z M-42.5,242.7h4.1
			c0,0,0-0.1,0-0.1c0.1-0.6,0.1-0.9,0.1-1.2c0-1.1-0.2-1.9-0.5-2.4c-0.3-0.5-0.9-0.8-1.6-0.8c-0.7,0-1.3,0.2-1.6,0.7
			c-0.3,0.5-0.5,1.3-0.5,2.5c0,0.3,0,0.6,0,0.7S-42.5,242.6-42.5,242.7z"/>
		<path id="XMLID_135_" class="st9" d="M-18.3,256.7v-29.1h9.5l2.6,12.4c0,0.1,0.1,0.8,0.3,2.3c0.2,1.5,0.4,3,0.6,4.5
			c0.2-1.1,0.4-2.5,0.6-4.2c0.2-1.7,0.4-2.6,0.4-2.8l2.6-12.3h9.4v29.1H1.4L2,234.1l-4.6,22.5h-5.2l-4.6-22.5l0.6,22.5H-18.3z"/>
		<path id="XMLID_137_" class="st9" d="M30.5,240.7v16h-4.7l-0.3-1.8c-0.7,0.8-1.4,1.4-2.3,1.7c-0.8,0.4-1.8,0.6-2.8,0.6
			c-1.2,0-2.3-0.2-3.3-0.7c-1-0.4-1.9-1.1-2.6-1.9c-0.9-1-1.6-2.4-1.9-4.1c-0.4-1.7-0.6-4.7-0.6-8.8c0-2.9,0.1-5.3,0.4-7.1
			c0.3-1.8,0.7-3.1,1.2-4c0.8-1.3,1.9-2.2,3.2-2.9c1.3-0.6,2.9-1,4.7-1c2.9,0,5,0.8,6.5,2.3c1.5,1.6,2.2,3.9,2.2,7
			c0,0.1,0,0.3,0,0.5c0,0.2,0,0.4,0,0.6h-6.5v-0.4c0-1.7-0.2-2.9-0.5-3.6c-0.4-0.7-0.9-1.1-1.7-1.1c-1,0-1.6,0.4-2,1.3
			c-0.4,0.9-0.5,2.9-0.5,6.2v2.9v2c0,3.2,0.2,5.3,0.5,6.1c0.3,0.8,1,1.3,1.9,1.3c0.9,0,1.6-0.4,2-1.1c0.4-0.7,0.6-1.9,0.6-3.6
			c0-0.4,0-0.7,0-0.9c0-0.2,0-0.4,0-0.6h-2.7v-5.1H30.5z"/>
	</g>
</g>
<g>
	<g id="XMLID_48_">
		<polygon id="XMLID_59_" class="st5" points="-329,391.3 -294.5,331.6 -260,391.3 		"/>
		<path id="XMLID_58_" class="st6" d="M-296.2,352.8c-2.8,0.4-4.6,0.7-7.2,2.2c-6.5,3.7-10.3,10.4-9.6,18.1
			c1.5,16.5,22.1,22.5,32.5,10.5c2.7-3.1,5.1-8.1,4.5-14c-0.3-2.9-1-4.9-2.2-7.1C-281.4,356.5-288.8,351.7-296.2,352.8"/>
		<path id="XMLID_57_" class="st7" d="M-296.7,353.9c-2.5,0.4-4.7,1.1-6.5,2.2c-2.2,1.2-3.3,2.3-4.8,4c-3,3.3-4.5,8.8-3.9,13.4
			c1.2,8.9,9.2,16.5,19.6,15.2c8.9-1.2,16.5-9.2,15.2-19.6c-0.3-2.5-1.1-4.6-2.2-6.5C-282.5,356.9-289.4,352.8-296.7,353.9"/>
		<path id="XMLID_56_" class="st6" d="M-295.5,355.7c-8.3,0.6-15.2,7.6-14.6,16.6c0.5,8.3,7.7,15.2,16.7,14.6
			c8.3-0.6,15-7.7,14.5-16.7C-279.4,362-286.6,355.2-295.5,355.7"/>
		<path id="XMLID_55_" class="st7" d="M-297.1,385.5c1.3,0.8,5.7,0.1,7.2-0.4c1.7-0.6,4.3-2,5.1-3l-0.8-7.1l-2.9,2.6
			c-0.2,0.2-0.4,0.4-0.7,0.7l-1.4,1.3c-0.3,0.2-0.4,0.3-0.8,0.7l-4.3,3.9C-296.3,384.8-296.1,384.8-297.1,385.5"/>
		<path id="XMLID_54_" class="st7" d="M-283.7,381.1c1.3-1.8,2.1-2.4,3-5c0.7-2,1.1-4.6,0.6-6.9c-1.1-0.5-4.5-2.4-5.3-2.6
			C-285.3,368.1-284,380.7-283.7,381.1"/>
		<path id="XMLID_53_" class="st7" d="M-292.6,379.9l-13.9-0.5c1.2,2.1,4.1,4.5,7,5.6c1.3,0.5,1.2,0.3,1.9-0.5L-292.6,379.9z"/>
		<path id="XMLID_52_" class="st7" d="M-304.5,371.1c0.3-0.3,1.9-5.6,2.2-6.5c0.4-1.3,2.1-5.7,2.3-6.6c-2.4,0.6-5.5,3.6-6.7,5.6
			c-0.4,0.6-0.7,1.2-1.1,2c-0.4,0.9-0.3,0.7,0.6,2C-306.4,368.6-305.5,369.9-304.5,371.1"/>
		<path id="XMLID_51_" class="st7" d="M-307.3,378.3l6.8,0.2l-8-11c-0.7,1.1-0.6,4.3-0.4,5.8C-308.6,375.6-307.9,376.6-307.3,378.3"
			/>
		<path id="XMLID_50_" class="st7" d="M-300.6,363.2c0.6-0.1,12.2-4.1,13.1-4.6c-0.6-0.6-2.7-1.2-3.7-1.5c-1.8-0.4-5.4-0.5-7.1,0.2
			c-0.4,0.2-0.4,0.3-0.5,0.8C-299.4,359.5-300.4,362-300.6,363.2"/>
		<path id="XMLID_49_" class="st7" d="M-292.6,361.7c2.3,0.9,6.6,3.4,9,4.6c0.9,0.4,2.3,1.3,3.1,1.5c-0.5-2.2-1.5-4-2.8-5.6
			c-0.4-0.5-2.5-2.6-3-2.7c-0.3-0.1-3.6,1.2-4.2,1.4C-291,361-292.2,361.4-292.6,361.7"/>
		<path id="path1962_1_" d="M-291.4,378.5c0,0-0.7-1.4-1.6-3.1c-0.9-1.7-1.6-3-1.6-3.1c0,0-0.5,0.4-1.3,1.2
			c-1.2,1.2-1.2,1.3-1.2,1.4c0,0.1,0,0.5,0.1,1l0.1,0.9l-0.5,0.5l-0.5,0.5l-0.6-1.1l-0.6-1.1l-1.1-0.6c-0.6-0.3-1.1-0.6-1.1-0.6
			s0.2-0.2,0.5-0.5l0.5-0.5l1,0.1l1,0.1l1.3-1.3c1-1,1.3-1.3,1.2-1.3c0,0-1.4-0.8-3.1-1.7l-3.1-1.6l0.6-0.6l0.6-0.6l3.8,1l3.8,1
			l1.7-1.7c1.2-1.2,1.8-1.8,1.9-1.8c0.1,0,0.2-0.1,0.4-0.1c0.3,0,0.5,0.1,0.7,0.3c0.2,0.2,0.2,0.3,0.2,0.6c0,0.4,0,0.4-1.9,2.3
			l-1.8,1.8l0.8,2.9c0.4,1.6,0.9,3.3,1,3.7l0.2,0.8l-0.6,0.6C-291.2,378.4-291.3,378.5-291.4,378.5z"/>
	</g>
	<g id="XMLID_14_">
		<path id="XMLID_46_" class="st10" d="M-250.3,372.7h6.2v0.9c0,1.6,0.2,2.7,0.6,3.4c0.4,0.7,1,1,1.9,1c0.7,0,1.3-0.2,1.7-0.7
			c0.4-0.5,0.6-1.2,0.6-2c0-1.4-1-2.8-3-4.1c-0.3-0.2-0.6-0.4-0.8-0.5l-0.3-0.2c-2.7-1.8-4.4-3.2-5.1-4.2c-0.5-0.7-0.8-1.5-1.1-2.4
			c-0.3-0.9-0.4-1.8-0.4-2.9c0-2.5,0.7-4.5,2.2-6c1.5-1.5,3.5-2.2,6.1-2.2c2.8,0,5,0.7,6.4,2.1c1.5,1.4,2.2,3.5,2.2,6.2
			c0,0.1,0,0.3,0,0.5c0,0.2,0,0.4,0,0.5h-6.1v-0.4c0-1.3-0.2-2.2-0.6-2.9c-0.4-0.7-1-1-1.7-1c-0.6,0-1.2,0.2-1.6,0.7
			c-0.4,0.5-0.6,1.1-0.6,1.8c0,1.2,1.1,2.5,3.3,3.9c0.4,0.3,0.7,0.5,0.9,0.6c0.2,0.1,0.4,0.3,0.7,0.5c2.4,1.5,3.9,2.8,4.6,3.8
			c0.4,0.7,0.7,1.4,1,2.3c0.2,0.9,0.3,1.8,0.3,2.8c0,2.9-0.8,5.2-2.3,6.7c-1.5,1.6-3.7,2.4-6.5,2.4c-3,0-5.2-0.8-6.7-2.3
			s-2.2-3.7-2.2-6.7c0-0.2,0-0.4,0-0.6C-250.3,373.5-250.3,373.2-250.3,372.7z"/>
		<path id="XMLID_43_" class="st10" d="M-229.2,390v-29.2h5.6v2.5c0.6-1,1.3-1.7,2.1-2.2c0.8-0.5,1.8-0.8,2.8-0.8
			c0.9,0,1.6,0.2,2.3,0.5c0.7,0.3,1.3,0.7,1.8,1.3c0.5,0.7,0.9,1.6,1.1,2.7c0.2,1.1,0.3,3.3,0.3,6.4c0,5-0.4,8.2-1.2,9.8
			c-0.8,1.6-2.3,2.3-4.5,2.3c-0.9,0-1.7-0.2-2.4-0.6c-0.7-0.4-1.3-1.1-1.9-1.9v9.3H-229.2z M-221.2,378c0.8,0,1.3-0.5,1.6-1.4
			c0.3-0.9,0.4-3,0.4-6.3c0-2-0.1-3.3-0.4-4.1c-0.3-0.7-0.8-1.1-1.5-1.1c-0.8,0-1.4,0.4-1.7,1.3c-0.3,0.8-0.5,3.1-0.5,6.7
			c0,1.9,0.1,3.1,0.4,3.8C-222.5,377.7-222,378-221.2,378z"/>
		<path id="XMLID_40_" class="st10" d="M-210.1,371.7c0-4.3,0.6-7.3,1.8-9c1.2-1.7,3.3-2.6,6.3-2.6c3,0,5.1,0.9,6.3,2.6
			c1.2,1.7,1.8,4.7,1.8,9c0,4.3-0.6,7.2-1.8,9c-1.2,1.7-3.3,2.6-6.3,2.6c-3,0-5.1-0.8-6.3-2.5C-209.5,379-210.1,376-210.1,371.7z
			 M-203.9,371.7c0,3.1,0.1,5,0.4,5.8c0.3,0.8,0.8,1.2,1.5,1.2c0.7,0,1.3-0.4,1.5-1.1c0.3-0.7,0.4-2.7,0.4-5.8
			c0-3.1-0.1-5.1-0.4-5.8c-0.3-0.8-0.8-1.1-1.5-1.1c-0.7,0-1.3,0.4-1.5,1.2C-203.7,366.7-203.9,368.6-203.9,371.7z"/>
		<path id="XMLID_38_" class="st10" d="M-180.4,382.5c-0.7,0.1-1.4,0.2-1.9,0.3c-0.6,0.1-1,0.1-1.4,0.1c-1.2,0-2.2-0.2-3.1-0.6
			c-0.9-0.4-1.5-1-1.9-1.7c-0.3-0.5-0.5-1.1-0.6-1.9c-0.1-0.8-0.2-1.9-0.2-3.5v-2.7v-7.3h-2.4v-4.5h2.4v-6.1h6.1v6.1h2.9v4.5h-2.9
			v8.9c0,1.9,0.1,3.1,0.4,3.5c0.3,0.4,0.8,0.7,1.6,0.7c0.1,0,0.4,0,0.7-0.1c0.1,0,0.2,0,0.2,0V382.5z"/>
		<path id="XMLID_36_" class="st10" d="M-167.6,382.5c-0.7,0.1-1.4,0.2-1.9,0.3c-0.6,0.1-1,0.1-1.4,0.1c-1.2,0-2.2-0.2-3.1-0.6
			c-0.9-0.4-1.5-1-1.9-1.7c-0.3-0.5-0.5-1.1-0.6-1.9c-0.1-0.8-0.2-1.9-0.2-3.5v-2.7v-7.3h-2.4v-4.5h2.4v-6.1h6.1v6.1h2.9v4.5h-2.9
			v8.9c0,1.9,0.1,3.1,0.4,3.5c0.3,0.4,0.8,0.7,1.6,0.7c0.1,0,0.4,0,0.7-0.1c0.1,0,0.2,0,0.2,0V382.5z"/>
		<path id="XMLID_33_" class="st10" d="M-154.9,374.9h5.7v0.5c0,2.6-0.7,4.5-2,5.8c-1.3,1.3-3.3,1.9-6,1.9c-1.3,0-2.5-0.2-3.6-0.6
			c-1.1-0.4-1.9-0.9-2.5-1.6c-0.7-0.8-1.2-1.8-1.5-3.1c-0.3-1.3-0.4-3.3-0.4-6.1c0-3.1,0.1-5.2,0.4-6.5c0.3-1.2,0.8-2.2,1.5-3
			c0.7-0.7,1.6-1.3,2.6-1.7c1.1-0.4,2.3-0.6,3.7-0.6c1.4,0,2.7,0.2,3.7,0.6c1,0.4,1.9,1,2.6,1.8c0.6,0.7,1,1.5,1.2,2.4
			c0.2,0.9,0.4,2.6,0.4,4.8v2.6h-10c0,0.1,0,0.1,0,0.2c-0.1,0.9-0.1,1.6-0.1,1.9c0,1.5,0.2,2.6,0.5,3.2c0.3,0.6,0.9,0.9,1.7,0.9
			c0.7,0,1.2-0.2,1.6-0.7c0.4-0.5,0.5-1.2,0.5-2.1c0-0.2,0-0.5-0.1-0.9C-154.9,375-154.9,375-154.9,374.9z M-158.8,368.7h4.1
			c0,0,0-0.1,0-0.1c0.1-0.6,0.1-0.9,0.1-1.2c0-1.1-0.2-1.9-0.5-2.4c-0.3-0.5-0.9-0.8-1.6-0.8c-0.7,0-1.3,0.2-1.6,0.7
			c-0.3,0.5-0.5,1.3-0.5,2.5c0,0.3,0,0.6,0,0.7C-158.9,368.4-158.9,368.6-158.8,368.7z"/>
		<path id="XMLID_31_" class="st10" d="M-145.5,382.6v-21.9h5.6v3.1c0.7-1.1,1.4-1.9,2.2-2.5c0.8-0.6,1.7-0.9,2.7-1v6.9
			c-0.3-0.1-0.7-0.1-1-0.2c-0.3,0-0.6-0.1-0.8-0.1c-1,0-1.7,0.3-2.1,1c-0.4,0.7-0.6,2.1-0.6,4.1v10.5H-145.5z"/>
		<path id="XMLID_29_" class="st10" d="M-109.3,371.3h6.7c0,0.2,0,0.4,0,0.6c0,0.2,0,0.5,0,0.9c0,3.6-0.8,6.2-2.3,7.9
			c-1.6,1.7-3.9,2.6-7.2,2.6c-1.9,0-3.5-0.3-4.9-0.9c-1.3-0.6-2.4-1.6-3.3-2.9c-0.6-0.9-1-2.2-1.2-3.8c-0.3-1.6-0.4-4.2-0.4-7.7
			c0-3.5,0.1-6.1,0.4-7.7c0.3-1.6,0.7-2.9,1.2-3.8c0.8-1.3,1.9-2.2,3.2-2.8c1.3-0.6,2.9-1,4.8-1c3.2,0,5.6,0.9,7.2,2.7
			c1.6,1.8,2.4,4.4,2.4,8v0.3l-6.6,0c0-2-0.3-3.4-0.7-4.2c-0.4-0.8-1.1-1.2-2.2-1.2c-1.1,0-1.8,0.5-2.3,1.5c-0.4,1-0.6,3.6-0.6,7.7
			v0.5c0,4.5,0.2,7.3,0.6,8.3c0.4,1,1.2,1.5,2.3,1.5c1,0,1.7-0.4,2.1-1.1c0.4-0.7,0.6-2.1,0.6-4.1V371.3z"/>
		<path id="XMLID_27_" class="st10" d="M-92.4,382.6h-6.1v-29.1h6.1V382.6z"/>
		<path id="XMLID_25_" class="st10" d="M-72.4,360.7v21.9h-5.7V380c-0.7,1-1.4,1.8-2.3,2.3c-0.8,0.5-1.8,0.7-3,0.7
			c-1.7,0-2.9-0.6-3.7-1.7s-1.2-2.9-1.2-5.4v-15.3h6.1v13.5c0,1.8,0.1,2.8,0.3,3.3c0.2,0.4,0.6,0.6,1.2,0.6c0.7,0,1.2-0.3,1.6-1
			c0.4-0.7,0.6-1.6,0.6-2.8v-13.7H-72.4z"/>
		<path id="XMLID_22_" class="st10" d="M-68.1,353.5h6.1v9.3c0.6-0.9,1.2-1.5,1.9-1.9c0.7-0.4,1.5-0.6,2.4-0.6
			c2.2,0,3.7,0.8,4.5,2.3c0.8,1.6,1.2,4.8,1.2,9.8c0,2.3-0.1,4-0.2,5.3c-0.1,1.2-0.3,2.1-0.6,2.7c-0.5,1-1.1,1.7-1.9,2.2
			c-0.8,0.5-1.8,0.8-2.9,0.8c-1,0-2-0.3-2.8-0.8c-0.8-0.5-1.5-1.3-2.1-2.3v2.4h-5.7V353.5z M-60.2,365.4c-0.7,0-1.2,0.4-1.5,1
			c-0.3,0.7-0.4,2-0.4,3.8c0,3.6,0.2,5.8,0.5,6.7c0.3,0.8,0.9,1.3,1.7,1.3c0.7,0,1.2-0.3,1.4-1c0.3-0.6,0.4-2.1,0.4-4.4v-0.6
			c0-3.1-0.1-5-0.4-5.7C-58.9,365.8-59.4,365.4-60.2,365.4z"/>
		<path id="XMLID_19_" class="st10" d="M-38.5,374.9h5.7v0.5c0,2.6-0.7,4.5-2,5.8c-1.3,1.3-3.3,1.9-6,1.9c-1.3,0-2.5-0.2-3.6-0.6
			c-1.1-0.4-1.9-0.9-2.5-1.6c-0.7-0.8-1.2-1.8-1.5-3.1c-0.3-1.3-0.4-3.3-0.4-6.1c0-3.1,0.1-5.2,0.4-6.5c0.3-1.2,0.8-2.2,1.5-3
			c0.7-0.7,1.6-1.3,2.6-1.7c1.1-0.4,2.3-0.6,3.7-0.6c1.4,0,2.7,0.2,3.7,0.6c1,0.4,1.9,1,2.6,1.8c0.6,0.7,1,1.5,1.2,2.4
			c0.2,0.9,0.4,2.6,0.4,4.8v2.6h-10c0,0.1,0,0.1,0,0.2c-0.1,0.9-0.1,1.6-0.1,1.9c0,1.5,0.2,2.6,0.5,3.2c0.3,0.6,0.9,0.9,1.7,0.9
			c0.7,0,1.2-0.2,1.6-0.7c0.4-0.5,0.5-1.2,0.5-2.1c0-0.2,0-0.5-0.1-0.9C-38.5,375-38.5,375-38.5,374.9z M-42.5,368.7h4.1
			c0,0,0-0.1,0-0.1c0.1-0.6,0.1-0.9,0.1-1.2c0-1.1-0.2-1.9-0.5-2.4c-0.3-0.5-0.9-0.8-1.6-0.8c-0.7,0-1.3,0.2-1.6,0.7
			c-0.3,0.5-0.5,1.3-0.5,2.5c0,0.3,0,0.6,0,0.7S-42.5,368.6-42.5,368.7z"/>
		<path id="XMLID_17_" class="st10" d="M-18.3,382.6v-29.1h9.5l2.6,12.4c0,0.1,0.1,0.8,0.3,2.3c0.2,1.5,0.4,3,0.6,4.5
			c0.2-1.1,0.4-2.5,0.6-4.2c0.2-1.7,0.4-2.6,0.4-2.8l2.6-12.3h9.4v29.1H1.4L2,360.1l-4.6,22.5h-5.2l-4.6-22.5l0.6,22.5H-18.3z"/>
		<path id="XMLID_15_" class="st10" d="M30.5,366.6v16h-4.7l-0.3-1.8c-0.7,0.8-1.4,1.4-2.3,1.7c-0.8,0.4-1.8,0.6-2.8,0.6
			c-1.2,0-2.3-0.2-3.3-0.7c-1-0.4-1.9-1.1-2.6-1.9c-0.9-1-1.6-2.4-1.9-4.1c-0.4-1.7-0.6-4.7-0.6-8.8c0-2.9,0.1-5.3,0.4-7.1
			c0.3-1.8,0.7-3.1,1.2-4c0.8-1.3,1.9-2.2,3.2-2.9c1.3-0.6,2.9-1,4.7-1c2.9,0,5,0.8,6.5,2.3c1.5,1.6,2.2,3.9,2.2,7
			c0,0.1,0,0.3,0,0.5c0,0.2,0,0.4,0,0.6h-6.5v-0.4c0-1.7-0.2-2.9-0.5-3.6c-0.4-0.7-0.9-1.1-1.7-1.1c-1,0-1.6,0.4-2,1.3
			c-0.4,0.9-0.5,2.9-0.5,6.2v2.9v2c0,3.2,0.2,5.3,0.5,6.1c0.3,0.8,1,1.3,1.9,1.3c0.9,0,1.6-0.4,2-1.1c0.4-0.7,0.6-1.9,0.6-3.6
			c0-0.4,0-0.7,0-0.9c0-0.2,0-0.4,0-0.6h-2.7v-5.1H30.5z"/>
	</g>
</g>
<g>
	<g>
		<radialGradient id="XMLID_60_" cx="-294.5223" cy="298.28" r="32.251" gradientUnits="userSpaceOnUse">
			<stop  offset="0" style="stop-color:#848484"/>
			<stop  offset="1" style="stop-color:#838383"/>
		</radialGradient>
		<polygon id="XMLID_140_" class="st11" points="-329,328.1 -294.5,268.4 -260,328.1 		"/>
		<path id="XMLID_139_" class="st6" d="M-296.2,289.7c-2.8,0.4-4.6,0.7-7.2,2.2c-6.5,3.7-10.3,10.4-9.6,18.1
			c1.5,16.5,22.1,22.5,32.5,10.5c2.7-3.1,5.1-8.1,4.5-14c-0.3-2.9-1-4.9-2.2-7.1C-281.4,293.3-288.8,288.6-296.2,289.7"/>
		<radialGradient id="XMLID_94_" cx="-294.4759" cy="308.1642" r="17.5532" gradientUnits="userSpaceOnUse">
			<stop  offset="0" style="stop-color:#626262"/>
			<stop  offset="1" style="stop-color:#474747"/>
		</radialGradient>
		<path id="XMLID_103_" class="st12" d="M-296.7,290.8c-2.5,0.4-4.7,1.1-6.5,2.2c-2.2,1.2-3.3,2.3-4.8,4c-3,3.3-4.5,8.8-3.9,13.4
			c1.2,8.9,9.2,16.5,19.6,15.2c8.9-1.2,16.5-9.2,15.2-19.6c-0.3-2.5-1.1-4.6-2.2-6.5C-282.5,293.8-289.4,289.7-296.7,290.8"/>
		<path id="XMLID_102_" class="st6" d="M-295.5,292.6c-8.3,0.6-15.2,7.6-14.6,16.6c0.5,8.3,7.7,15.2,16.7,14.6
			c8.3-0.6,15-7.7,14.5-16.7C-279.4,298.9-286.6,292-295.5,292.6"/>
		<radialGradient id="XMLID_141_" cx="-290.9493" cy="317.318" r="5.7854" gradientUnits="userSpaceOnUse">
			<stop  offset="0" style="stop-color:#626262"/>
			<stop  offset="1" style="stop-color:#474747"/>
		</radialGradient>
		<path id="XMLID_101_" class="st13" d="M-297.1,322.4c1.3,0.8,5.7,0.1,7.2-0.4c1.7-0.6,4.3-2,5.1-3l-0.8-7.1l-2.9,2.6
			c-0.2,0.2-0.4,0.4-0.7,0.7l-1.4,1.3c-0.3,0.2-0.4,0.3-0.8,0.7l-4.3,3.9C-296.3,321.7-296.1,321.7-297.1,322.4"/>
		<radialGradient id="XMLID_142_" cx="-282.6876" cy="310.6931" r="5.5024" gradientUnits="userSpaceOnUse">
			<stop  offset="0" style="stop-color:#626262"/>
			<stop  offset="1" style="stop-color:#474747"/>
		</radialGradient>
		<path id="XMLID_100_" class="st14" d="M-283.7,318c1.3-1.8,2.1-2.4,3-5c0.7-2,1.1-4.6,0.6-6.9c-1.1-0.5-4.5-2.4-5.3-2.6
			C-285.3,305-284,317.5-283.7,318"/>
		<radialGradient id="XMLID_143_" cx="-299.5334" cy="319.1751" r="5.3327" gradientUnits="userSpaceOnUse">
			<stop  offset="0" style="stop-color:#626262"/>
			<stop  offset="1" style="stop-color:#474747"/>
		</radialGradient>
		<path id="XMLID_99_" class="st15" d="M-292.6,316.8l-13.9-0.5c1.2,2.1,4.1,4.5,7,5.6c1.3,0.5,1.2,0.3,1.9-0.5L-292.6,316.8z"/>
		<radialGradient id="XMLID_144_" cx="-304.0256" cy="301.3401" r="5.4507" gradientUnits="userSpaceOnUse">
			<stop  offset="0" style="stop-color:#626262"/>
			<stop  offset="1" style="stop-color:#474747"/>
		</radialGradient>
		<path id="XMLID_98_" class="st16" d="M-304.5,307.9c0.3-0.3,1.9-5.6,2.2-6.5c0.4-1.3,2.1-5.7,2.3-6.6c-2.4,0.6-5.5,3.6-6.7,5.6
			c-0.4,0.6-0.7,1.2-1.1,2c-0.4,0.9-0.3,0.7,0.6,2C-306.4,305.5-305.5,306.8-304.5,307.9"/>
		<radialGradient id="XMLID_145_" cx="-304.7509" cy="309.8999" r="4.9155" gradientUnits="userSpaceOnUse">
			<stop  offset="0" style="stop-color:#626262"/>
			<stop  offset="1" style="stop-color:#474747"/>
		</radialGradient>
		<path id="XMLID_97_" class="st17" d="M-307.3,315.2l6.8,0.2l-8-11c-0.7,1.1-0.6,4.3-0.4,5.8C-308.6,312.4-307.9,313.5-307.3,315.2
			"/>
		<radialGradient id="XMLID_146_" cx="-294.09" cy="296.8643" r="5.1399" gradientUnits="userSpaceOnUse">
			<stop  offset="0" style="stop-color:#626262"/>
			<stop  offset="1" style="stop-color:#474747"/>
		</radialGradient>
		<path id="XMLID_96_" class="st18" d="M-300.6,300.1c0.6-0.1,12.2-4.1,13.1-4.6c-0.6-0.6-2.7-1.2-3.7-1.5c-1.8-0.4-5.4-0.5-7.1,0.2
			c-0.4,0.2-0.4,0.3-0.5,0.8C-299.4,296.4-300.4,298.9-300.6,300.1"/>
		<radialGradient id="XMLID_147_" cx="-286.479" cy="300.448" r="5.2185" gradientUnits="userSpaceOnUse">
			<stop  offset="0" style="stop-color:#626262"/>
			<stop  offset="1" style="stop-color:#474747"/>
		</radialGradient>
		<path id="XMLID_95_" class="st19" d="M-292.6,298.6c2.3,0.9,6.6,3.4,9,4.6c0.9,0.4,2.3,1.3,3.1,1.5c-0.5-2.2-1.5-4-2.8-5.6
			c-0.4-0.5-2.5-2.6-3-2.7c-0.3-0.1-3.6,1.2-4.2,1.4C-291,297.9-292.2,298.2-292.6,298.6"/>
		<radialGradient id="path1962_3_" cx="-295.1827" cy="308.5636" r="6.8352" gradientUnits="userSpaceOnUse">
			<stop  offset="0" style="stop-color:#626262"/>
			<stop  offset="1" style="stop-color:#474747"/>
		</radialGradient>
		<path id="path1962_2_" class="st20" d="M-291.4,315.4c0,0-0.7-1.4-1.6-3.1c-0.9-1.7-1.6-3-1.6-3.1c0,0-0.5,0.4-1.3,1.2
			c-1.2,1.2-1.2,1.3-1.2,1.4c0,0.1,0,0.5,0.1,1l0.1,0.9l-0.5,0.5l-0.5,0.5l-0.6-1.1l-0.6-1.1l-1.1-0.6c-0.6-0.3-1.1-0.6-1.1-0.6
			s0.2-0.2,0.5-0.5l0.5-0.5l1,0.1l1,0.1l1.3-1.3c1-1,1.3-1.3,1.2-1.3c0,0-1.4-0.8-3.1-1.7l-3.1-1.6l0.6-0.6l0.6-0.6l3.8,1l3.8,1
			l1.7-1.7c1.2-1.2,1.8-1.8,1.9-1.8c0.1,0,0.2-0.1,0.4-0.1c0.3,0,0.5,0.1,0.7,0.3c0.2,0.2,0.2,0.3,0.2,0.6c0,0.4,0,0.4-1.9,2.3
			l-1.8,1.8l0.8,2.9c0.4,1.6,0.9,3.3,1,3.7l0.2,0.8l-0.6,0.6C-291.2,315.2-291.3,315.4-291.4,315.4z"/>
	</g>
	<g>
		<path id="XMLID_92_" class="st0" d="M-250.3,309.6h6.2v0.9c0,1.6,0.2,2.7,0.6,3.4c0.4,0.7,1,1,1.9,1c0.7,0,1.3-0.2,1.7-0.7
			c0.4-0.5,0.6-1.2,0.6-2c0-1.4-1-2.8-3-4.1c-0.3-0.2-0.6-0.4-0.8-0.5l-0.3-0.2c-2.7-1.8-4.4-3.2-5.1-4.2c-0.5-0.7-0.8-1.5-1.1-2.4
			c-0.3-0.9-0.4-1.8-0.4-2.9c0-2.5,0.7-4.5,2.2-6c1.5-1.5,3.5-2.2,6.1-2.2c2.8,0,5,0.7,6.4,2.1c1.5,1.4,2.2,3.5,2.2,6.2
			c0,0.1,0,0.3,0,0.5c0,0.2,0,0.4,0,0.5h-6.1v-0.4c0-1.3-0.2-2.2-0.6-2.9c-0.4-0.7-1-1-1.7-1c-0.6,0-1.2,0.2-1.6,0.7
			c-0.4,0.5-0.6,1.1-0.6,1.8c0,1.2,1.1,2.5,3.3,3.9c0.4,0.3,0.7,0.5,0.9,0.6c0.2,0.1,0.4,0.3,0.7,0.5c2.4,1.5,3.9,2.8,4.6,3.8
			c0.4,0.7,0.7,1.4,1,2.3c0.2,0.9,0.3,1.8,0.3,2.8c0,2.9-0.8,5.2-2.3,6.7c-1.5,1.6-3.7,2.4-6.5,2.4c-3,0-5.2-0.8-6.7-2.3
			s-2.2-3.7-2.2-6.7c0-0.2,0-0.4,0-0.6C-250.3,310.4-250.3,310.1-250.3,309.6z"/>
		<path id="XMLID_89_" class="st0" d="M-229.2,326.8v-29.2h5.6v2.5c0.6-1,1.3-1.7,2.1-2.2c0.8-0.5,1.8-0.8,2.8-0.8
			c0.9,0,1.6,0.2,2.3,0.5c0.7,0.3,1.3,0.7,1.8,1.3c0.5,0.7,0.9,1.6,1.1,2.7c0.2,1.1,0.3,3.3,0.3,6.4c0,5-0.4,8.2-1.2,9.8
			c-0.8,1.6-2.3,2.3-4.5,2.3c-0.9,0-1.7-0.2-2.4-0.6c-0.7-0.4-1.3-1.1-1.9-1.9v9.3H-229.2z M-221.2,314.9c0.8,0,1.3-0.5,1.6-1.4
			c0.3-0.9,0.4-3,0.4-6.3c0-2-0.1-3.3-0.4-4.1c-0.3-0.7-0.8-1.1-1.5-1.1c-0.8,0-1.4,0.4-1.7,1.3c-0.3,0.8-0.5,3.1-0.5,6.7
			c0,1.9,0.1,3.1,0.4,3.8C-222.5,314.5-222,314.9-221.2,314.9z"/>
		<path id="XMLID_86_" class="st0" d="M-210.1,308.5c0-4.3,0.6-7.3,1.8-9c1.2-1.7,3.3-2.6,6.3-2.6c3,0,5.1,0.9,6.3,2.6
			c1.2,1.7,1.8,4.7,1.8,9c0,4.3-0.6,7.2-1.8,9c-1.2,1.7-3.3,2.6-6.3,2.6c-3,0-5.1-0.8-6.3-2.5C-209.5,315.8-210.1,312.8-210.1,308.5
			z M-203.9,308.5c0,3.1,0.1,5,0.4,5.8c0.3,0.8,0.8,1.2,1.5,1.2c0.7,0,1.3-0.4,1.5-1.1c0.3-0.7,0.4-2.7,0.4-5.8
			c0-3.1-0.1-5.1-0.4-5.8c-0.3-0.8-0.8-1.1-1.5-1.1c-0.7,0-1.3,0.4-1.5,1.2C-203.7,303.5-203.9,305.5-203.9,308.5z"/>
		<path id="XMLID_84_" class="st0" d="M-180.4,319.4c-0.7,0.1-1.4,0.2-1.9,0.3c-0.6,0.1-1,0.1-1.4,0.1c-1.2,0-2.2-0.2-3.1-0.6
			c-0.9-0.4-1.5-1-1.9-1.7c-0.3-0.5-0.5-1.1-0.6-1.9c-0.1-0.8-0.2-1.9-0.2-3.5v-2.7v-7.3h-2.4v-4.5h2.4v-6.1h6.1v6.1h2.9v4.5h-2.9
			v8.9c0,1.9,0.1,3.1,0.4,3.5c0.3,0.4,0.8,0.7,1.6,0.7c0.1,0,0.4,0,0.7-0.1c0.1,0,0.2,0,0.2,0V319.4z"/>
		<path id="XMLID_82_" class="st0" d="M-167.6,319.4c-0.7,0.1-1.4,0.2-1.9,0.3c-0.6,0.1-1,0.1-1.4,0.1c-1.2,0-2.2-0.2-3.1-0.6
			c-0.9-0.4-1.5-1-1.9-1.7c-0.3-0.5-0.5-1.1-0.6-1.9c-0.1-0.8-0.2-1.9-0.2-3.5v-2.7v-7.3h-2.4v-4.5h2.4v-6.1h6.1v6.1h2.9v4.5h-2.9
			v8.9c0,1.9,0.1,3.1,0.4,3.5c0.3,0.4,0.8,0.7,1.6,0.7c0.1,0,0.4,0,0.7-0.1c0.1,0,0.2,0,0.2,0V319.4z"/>
		<path id="XMLID_79_" class="st0" d="M-154.9,311.8h5.7v0.5c0,2.6-0.7,4.5-2,5.8c-1.3,1.3-3.3,1.9-6,1.9c-1.3,0-2.5-0.2-3.6-0.6
			c-1.1-0.4-1.9-0.9-2.5-1.6c-0.7-0.8-1.2-1.8-1.5-3.1c-0.3-1.3-0.4-3.3-0.4-6.1c0-3.1,0.1-5.2,0.4-6.5c0.3-1.2,0.8-2.2,1.5-3
			c0.7-0.7,1.6-1.3,2.6-1.7c1.1-0.4,2.3-0.6,3.7-0.6c1.4,0,2.7,0.2,3.7,0.6c1,0.4,1.9,1,2.6,1.8c0.6,0.7,1,1.5,1.2,2.4
			c0.2,0.9,0.4,2.6,0.4,4.8v2.6h-10c0,0.1,0,0.1,0,0.2c-0.1,0.9-0.1,1.6-0.1,1.9c0,1.5,0.2,2.6,0.5,3.2c0.3,0.6,0.9,0.9,1.7,0.9
			c0.7,0,1.2-0.2,1.6-0.7c0.4-0.5,0.5-1.2,0.5-2.1c0-0.2,0-0.5-0.1-0.9C-154.9,311.9-154.9,311.8-154.9,311.8z M-158.8,305.6h4.1
			c0,0,0-0.1,0-0.1c0.1-0.6,0.1-0.9,0.1-1.2c0-1.1-0.2-1.9-0.5-2.4c-0.3-0.5-0.9-0.8-1.6-0.8c-0.7,0-1.3,0.2-1.6,0.7
			c-0.3,0.5-0.5,1.3-0.5,2.5c0,0.3,0,0.6,0,0.7C-158.9,305.3-158.9,305.4-158.8,305.6z"/>
		<path id="XMLID_77_" class="st0" d="M-145.5,319.5v-21.9h5.6v3.1c0.7-1.1,1.4-1.9,2.2-2.5c0.8-0.6,1.7-0.9,2.7-1v6.9
			c-0.3-0.1-0.7-0.1-1-0.2c-0.3,0-0.6-0.1-0.8-0.1c-1,0-1.7,0.3-2.1,1c-0.4,0.7-0.6,2.1-0.6,4.1v10.5H-145.5z"/>
		<path id="XMLID_75_" class="st0" d="M-109.3,308.2h6.7c0,0.2,0,0.4,0,0.6c0,0.2,0,0.5,0,0.9c0,3.6-0.8,6.2-2.3,7.9
			c-1.6,1.7-3.9,2.6-7.2,2.6c-1.9,0-3.5-0.3-4.9-0.9c-1.3-0.6-2.4-1.6-3.3-2.9c-0.6-0.9-1-2.2-1.2-3.8c-0.3-1.6-0.4-4.2-0.4-7.7
			c0-3.5,0.1-6.1,0.4-7.7c0.3-1.6,0.7-2.9,1.2-3.8c0.8-1.3,1.9-2.2,3.2-2.8c1.3-0.6,2.9-1,4.8-1c3.2,0,5.6,0.9,7.2,2.7
			c1.6,1.8,2.4,4.4,2.4,8v0.3l-6.6,0c0-2-0.3-3.4-0.7-4.2c-0.4-0.8-1.1-1.2-2.2-1.2c-1.1,0-1.8,0.5-2.3,1.5c-0.4,1-0.6,3.6-0.6,7.7
			v0.5c0,4.5,0.2,7.3,0.6,8.3c0.4,1,1.2,1.5,2.3,1.5c1,0,1.7-0.4,2.1-1.1c0.4-0.7,0.6-2.1,0.6-4.1V308.2z"/>
		<path id="XMLID_73_" class="st0" d="M-92.4,319.5h-6.1v-29.1h6.1V319.5z"/>
		<path id="XMLID_71_" class="st0" d="M-72.4,297.6v21.9h-5.7v-2.6c-0.7,1-1.4,1.8-2.3,2.3c-0.8,0.5-1.8,0.7-3,0.7
			c-1.7,0-2.9-0.6-3.7-1.7s-1.2-2.9-1.2-5.4v-15.3h6.1v13.5c0,1.8,0.1,2.8,0.3,3.3c0.2,0.4,0.6,0.6,1.2,0.6c0.7,0,1.2-0.3,1.6-1
			c0.4-0.7,0.6-1.6,0.6-2.8v-13.7H-72.4z"/>
		<path id="XMLID_68_" class="st0" d="M-68.1,290.3h6.1v9.3c0.6-0.9,1.2-1.5,1.9-1.9c0.7-0.4,1.5-0.6,2.4-0.6c2.2,0,3.7,0.8,4.5,2.3
			c0.8,1.6,1.2,4.8,1.2,9.8c0,2.3-0.1,4-0.2,5.3c-0.1,1.2-0.3,2.1-0.6,2.7c-0.5,1-1.1,1.7-1.9,2.2c-0.8,0.5-1.8,0.8-2.9,0.8
			c-1,0-2-0.3-2.8-0.8c-0.8-0.5-1.5-1.3-2.1-2.3v2.4h-5.7V290.3z M-60.2,302.3c-0.7,0-1.2,0.4-1.5,1c-0.3,0.7-0.4,2-0.4,3.8
			c0,3.6,0.2,5.8,0.5,6.7c0.3,0.8,0.9,1.3,1.7,1.3c0.7,0,1.2-0.3,1.4-1c0.3-0.6,0.4-2.1,0.4-4.4v-0.6c0-3.1-0.1-5-0.4-5.7
			C-58.9,302.6-59.4,302.3-60.2,302.3z"/>
		<path id="XMLID_65_" class="st0" d="M-38.5,311.8h5.7v0.5c0,2.6-0.7,4.5-2,5.8c-1.3,1.3-3.3,1.9-6,1.9c-1.3,0-2.5-0.2-3.6-0.6
			c-1.1-0.4-1.9-0.9-2.5-1.6c-0.7-0.8-1.2-1.8-1.5-3.1c-0.3-1.3-0.4-3.3-0.4-6.1c0-3.1,0.1-5.2,0.4-6.5c0.3-1.2,0.8-2.2,1.5-3
			c0.7-0.7,1.6-1.3,2.6-1.7c1.1-0.4,2.3-0.6,3.7-0.6c1.4,0,2.7,0.2,3.7,0.6c1,0.4,1.9,1,2.6,1.8c0.6,0.7,1,1.5,1.2,2.4
			c0.2,0.9,0.4,2.6,0.4,4.8v2.6h-10c0,0.1,0,0.1,0,0.2c-0.1,0.9-0.1,1.6-0.1,1.9c0,1.5,0.2,2.6,0.5,3.2c0.3,0.6,0.9,0.9,1.7,0.9
			c0.7,0,1.2-0.2,1.6-0.7c0.4-0.5,0.5-1.2,0.5-2.1c0-0.2,0-0.5-0.1-0.9C-38.5,311.9-38.5,311.8-38.5,311.8z M-42.5,305.6h4.1
			c0,0,0-0.1,0-0.1c0.1-0.6,0.1-0.9,0.1-1.2c0-1.1-0.2-1.9-0.5-2.4c-0.3-0.5-0.9-0.8-1.6-0.8c-0.7,0-1.3,0.2-1.6,0.7
			c-0.3,0.5-0.5,1.3-0.5,2.5c0,0.3,0,0.6,0,0.7C-42.5,305.3-42.5,305.4-42.5,305.6z"/>
		<radialGradient id="XMLID_148_" cx="-5.2567" cy="304.9078" r="13.8315" gradientUnits="userSpaceOnUse">
			<stop  offset="0" style="stop-color:#848484"/>
			<stop  offset="1" style="stop-color:#838383"/>
		</radialGradient>
		<path id="XMLID_63_" class="st21" d="M-18.3,319.5v-29.1h9.5l2.6,12.4c0,0.1,0.1,0.8,0.3,2.3c0.2,1.5,0.4,3,0.6,4.5
			c0.2-1.1,0.4-2.5,0.6-4.2c0.2-1.7,0.4-2.6,0.4-2.8l2.6-12.3h9.4v29.1H1.4L2,297l-4.6,22.5h-5.2l-4.6-22.5l0.6,22.5H-18.3z"/>
		<radialGradient id="XMLID_149_" cx="21.2581" cy="304.8132" r="12.5625" gradientUnits="userSpaceOnUse">
			<stop  offset="0" style="stop-color:#848484"/>
			<stop  offset="1" style="stop-color:#838383"/>
		</radialGradient>
		<path id="XMLID_61_" class="st22" d="M30.5,303.5v16h-4.7l-0.3-1.8c-0.7,0.8-1.4,1.4-2.3,1.7c-0.8,0.4-1.8,0.6-2.8,0.6
			c-1.2,0-2.3-0.2-3.3-0.7c-1-0.4-1.9-1.1-2.6-1.9c-0.9-1-1.6-2.4-1.9-4.1c-0.4-1.7-0.6-4.7-0.6-8.8c0-2.9,0.1-5.3,0.4-7.1
			c0.3-1.8,0.7-3.1,1.2-4c0.8-1.3,1.9-2.2,3.2-2.9c1.3-0.6,2.9-1,4.7-1c2.9,0,5,0.8,6.5,2.3c1.5,1.6,2.2,3.9,2.2,7
			c0,0.1,0,0.3,0,0.5c0,0.2,0,0.4,0,0.6h-6.5v-0.4c0-1.7-0.2-2.9-0.5-3.6c-0.4-0.7-0.9-1.1-1.7-1.1c-1,0-1.6,0.4-2,1.3
			c-0.4,0.9-0.5,2.9-0.5,6.2v2.9v2c0,3.2,0.2,5.3,0.5,6.1c0.3,0.8,1,1.3,1.9,1.3c0.9,0,1.6-0.4,2-1.1c0.4-0.7,0.6-1.9,0.6-3.6
			c0-0.4,0-0.7,0-0.9c0-0.2,0-0.4,0-0.6h-2.7v-5.1H30.5z"/>
	</g>
</g>
</svg>
