<?xml version="1.0" encoding="utf-8"?>
<!-- Generator: Adobe Illustrator 19.0.0, SVG Export Plug-In . SVG Version: 6.00 Build 0)  -->
<svg version="1.1" id="Layer_1" xmlns="http://www.w3.org/2000/svg" xmlns:xlink="http://www.w3.org/1999/xlink" x="0px" y="0px"
	 viewBox="-58 258.3 725 80" style="enable-background:new -58 258.3 725 80;" xml:space="preserve">
<style type="text/css">
	.st0{fill:#464646;}
</style>
<g>
	<g transform="translate(0 0)">
		<g id="icon-driving">
			<path class="st0" d="M-28.1,271.8h-0.4l-4.6-8.3c-0.2-0.4-0.7-0.7-1.1-0.7H-48c-0.4,0-0.9,0.3-1.1,0.7l-4.6,8.3h-0.4
				c-0.8,0-1.5,0.7-1.5,1.5v7.4c0,0.8,0.7,1.5,1.5,1.5h1.5v2.2c0,1.2,1,2.2,2.2,2.2h0.7c1.2,0,2.2-1,2.2-2.2v-2.2h12.6v2.2
				c0,1.2,1,2.2,2.2,2.2h0.7c1.2,0,2.2-1,2.2-2.2v-2.2h1.5c0.8,0,1.5-0.7,1.5-1.5v-7.4C-26.6,272.5-27.3,271.8-28.1,271.8z
				 M-51.5,277.8c-1,0-1.9-0.8-1.9-1.9c0-1,0.8-1.9,1.9-1.9s1.9,0.8,1.9,1.9S-50.5,277.8-51.5,277.8z M-50,271.8l3-6
				c0.2-0.4,0.7-0.7,1.1-0.7h9.7c0.4,0,0.9,0.3,1.1,0.7l3,6H-50z M-30.7,277.8c-1,0-1.9-0.8-1.9-1.9c0-1,0.8-1.9,1.9-1.9
				s1.9,0.8,1.9,1.9S-29.7,277.8-30.7,277.8z"/>
		</g>
	</g>
	<g transform="translate(48 0)">
		<g id="icon-email">
			<path class="st0" d="M-8.1,263.4c-1.9,0-0.9,0.5,0,1.3L6,275.4l14.1-10.7c0.9-0.8,1.9-1.3,0-1.3L-8.1,263.4L-8.1,263.4z
				 M-10,265.9v15.8c0,0.9,1,2.1,1.7,2.1h28.6c0.8,0,1.7-1.2,1.7-2.1v-15.8L6,278.1L-10,265.9L-10,265.9z"/>
		</g>
	</g>
	<g transform="translate(96 0)">
		<g id="icon-navigate">
			<path class="st0" d="M58.8,289.1l-4.5-13.5H39.6l28.3-15.9L58.8,289.1z"/>
		</g>
	</g>
	<g transform="translate(144 0)">
		<g id="icon-geolocation">
			<path class="st0" d="M102,258.9c-8.5,0-15.4,6.9-15.4,15.4s6.9,15.4,15.4,15.4c8.5,0,15.4-6.9,15.4-15.4S110.5,258.9,102,258.9z
				 M103.9,286.9v-5.6h-3.8v5.6c-5.5-0.8-9.9-5.2-10.7-10.7H95v-3.8h-5.6c0.8-5.5,5.2-9.9,10.7-10.7v5.6h3.8v-5.6
				c5.5,0.8,9.9,5.2,10.7,10.7H109v3.8h5.6C113.8,281.7,109.4,286.1,103.9,286.9z"/>
		</g>
	</g>
	<g transform="translate(192 0)">
		<g id="icon-flag">
			<path class="st0" d="M141.3,258.9c-0.9,0-1.6,0.7-1.6,1.6V288c0,0.8,0.8,1.6,1.6,1.6s1.6-0.8,1.6-1.6v-16.6
				c0.5-0.2,1.1-0.4,1.6-0.4c3.2,0,7.8,4,11,4c1.4,0,3.3-0.6,4.7-1.6v-11.3c-1.6,1.2-3.1,2.4-4.7,2.4c-3.2,0-7.9-4-11-4
				c-0.5,0-1.1,0.1-1.6,0.2v-0.2C142.9,259.6,142.2,258.9,141.3,258.9z"/>
		</g>
	</g>
	<g transform="translate(240 0)">
		<g id="icon-transit">
			<path class="st0" d="M208.3,274.3h-20.5c-0.6,0-1.1-0.5-1.1-1.1c0-0.1,0-0.2,0-0.3l1.1-7.6c0.1-0.5,0.5-0.6,1.1-0.6h18.3
				c0.5,0,1,0.1,1.1,0.6l1.1,7.8c0,0.1,0,0.1,0,0.2C209.4,273.8,208.9,274.3,208.3,274.3z M207.5,282.8c-1.2,0-2.1-0.9-2.1-2
				c0-1.1,0.9-2,2.1-2c1.1,0,2.1,0.9,2.1,2C209.6,281.9,208.7,282.8,207.5,282.8z M188.6,282.8c-1.1,0-2.1-0.9-2.1-2
				c0-1.1,0.9-2,2.1-2c1.2,0,2.1,0.9,2.1,2C190.7,281.9,189.8,282.8,188.6,282.8z M192.2,260.2H205v1.9h-12.8
				C191,262.1,191,260.2,192.2,260.2z M210.3,263.1c-0.4-1.8-1.5-2.5-3.2-3.3c-1.8-0.7-5.9-1.6-9-1.6c-3.1,0-7.3,0.9-9,1.6
				c-1.8,0.7-2.9,1.5-3.2,3.3l-1.2,10v13.9h1.9v1.3c0,2.6,3.2,2.6,3.2,0v-1.3h16v1.3c0,2.6,3.8,2.6,3.8,0v-1.3h1.9v-13.9
				L210.3,263.1L210.3,263.1z"/>
		</g>
	</g>
	<g transform="translate(290 0)">
		<g id="icon-walking">
			<path class="st0" d="M247.3,264.3c1.3,0,2.3-1.1,2.3-2.4c0-1.3-1.1-2.4-2.4-2.3c-1.3,0-2.3,1.1-2.3,2.4
				C244.9,263.3,246,264.4,247.3,264.3L247.3,264.3z M255.2,272.2l-3.4-1.9l-2.8-4.5c-0.5-0.6-1.2-1-2-1c-0.6,0-1.1,0.3-1.6,0.7
				l-4.3,4.3c-0.1,0.1-0.2,0.3-0.3,0.5l-0.5,4.8c0,0.1,0,0.1,0,0.1c0,0.6,0.5,1.1,1.1,1c0.5,0,1-0.5,1-1l0.4-4.1l1.5-1.5l-1.3,11.5
				l-2.5,5.4c-0.1,0.2-0.1,0.5-0.1,0.7c0,0.9,0.7,1.6,1.6,1.6c0.6,0,1.1-0.4,1.4-0.9l2.6-5.9c0.1-0.2,0.2-0.5,0.2-0.7l0.3-2.8
				l2.7,9.2c0.2,0.6,0.8,1.1,1.5,1.1c0.9,0,1.6-0.8,1.5-1.6c0-0.1,0-0.2,0-0.3l-3.8-12.8l0.5-4.2l1.1,1.7c0.1,0.1,0.2,0.2,0.3,0.3
				l3.7,2.1c0.2,0.1,0.3,0.1,0.5,0.1c0.6,0,1-0.5,1-1.1C255.7,272.7,255.5,272.4,255.2,272.2L255.2,272.2z"/>
		</g>
	</g>
	<g transform="translate(338 0)">
		<g id="icon-bicycling">
			<path class="st0" d="M287.2,285.9c2.7,0,4.9-2.2,4.9-5c0-2.8-2.2-5-4.9-5c-2.7,0-4.9,2.2-4.9,5
				C282.4,283.7,284.6,285.9,287.2,285.9z M281.3,280.9c0-3.4,2.7-6.1,6-6.1c3.3,0,6,2.7,6,6.1c0,3.4-2.7,6.1-6,6.1
				C284,287,281.3,284.3,281.3,280.9z M304.8,286c2.7,0,4.8-2.2,4.8-5c0-2.8-2.2-5-4.8-5c-2.7,0-4.9,2.2-4.9,5
				C299.9,283.7,302.1,286,304.8,286z M298.8,281c0-3.4,2.7-6.1,6-6.1c3.3,0,6,2.7,6,6.1c0,3.4-2.7,6.1-6,6.1
				C301.5,287.1,298.8,284.3,298.8,281L298.8,281z M298.8,266.1c1.2,0,2.2-1,2.2-2.3c0-1.3-1-2.3-2.2-2.3c-1.2,0-2.2,1-2.2,2.3
				C296.6,265,297.6,266.1,298.8,266.1z M298.9,271.7c-0.3,0-0.7-0.2-0.9-0.6l-1.5-2.4l-3,3l2.8,1.5c1.1,0.6,1,1.6,1,1.6v6.5
				c0,0.7-0.6,1.3-1.3,1.3s-1.3-0.6-1.3-1.3v-5.2l-4.8-2.7c-0.6-0.3-1-1-1-1.7c0-0.5,0.2-1,0.5-1.3l4.7-4.9c0.6-0.7,1.4-0.6,1.4-0.6
				c1,0,1.5,0.9,1.5,0.9l2.4,4l3.6,0c1.3,0,1.3,1.9,0,1.9L298.9,271.7L298.9,271.7z"/>
		</g>
	</g>
	<g transform="translate(386 0)">
		<g id="icon-cross">
			<path class="st0" d="M353.3,263.6c0.4,0,0.7,0.1,1,0.4c0.3,0.3,0.4,0.6,0.4,1c0,0.4-0.1,0.7-0.4,0.9l-8.4,8.4l8.4,8.4
				c0.3,0.3,0.4,0.6,0.4,0.9c0,0.4-0.1,0.7-0.4,1c-0.3,0.3-0.6,0.4-1,0.4c-0.4,0-0.7-0.1-0.9-0.4l-8.4-8.4l-8.4,8.4
				c-0.3,0.3-0.6,0.4-0.9,0.4c-0.4,0-0.7-0.1-1-0.4c-0.3-0.3-0.4-0.6-0.4-1c0-0.4,0.1-0.7,0.4-0.9l8.4-8.4l-8.4-8.4
				c-0.3-0.3-0.4-0.6-0.4-0.9c0-0.4,0.1-0.7,0.4-1c0.3-0.3,0.6-0.4,1-0.4c0.4,0,0.7,0.1,0.9,0.4l8.4,8.4l8.4-8.4
				C352.6,263.7,353,263.6,353.3,263.6z"/>
		</g>
	</g>
	<g transform="translate(434 0)">
		<g id="icon-menu">
			<path class="st0" d="M380,264.9h24c0.4,0,0.7,0.1,0.9,0.4c0.3,0.3,0.4,0.6,0.4,0.9c0,0.4-0.1,0.7-0.4,0.9
				c-0.3,0.3-0.6,0.4-0.9,0.4h-24c-0.4,0-0.7-0.1-0.9-0.4c-0.3-0.3-0.4-0.6-0.4-0.9c0-0.4,0.1-0.7,0.4-0.9
				C379.3,265.1,379.6,264.9,380,264.9z M380,280.9h24c0.4,0,0.7,0.1,0.9,0.4c0.3,0.3,0.4,0.6,0.4,0.9c0,0.4-0.1,0.7-0.4,0.9
				c-0.3,0.3-0.6,0.4-0.9,0.4h-24c-0.4,0-0.7-0.1-0.9-0.4c-0.3-0.3-0.4-0.6-0.4-0.9c0-0.4,0.1-0.7,0.4-0.9
				C379.3,281.1,379.6,280.9,380,280.9z M380,272.9h24c0.4,0,0.7,0.1,0.9,0.4c0.3,0.3,0.4,0.6,0.4,0.9c0,0.4-0.1,0.7-0.4,0.9
				c-0.3,0.3-0.6,0.4-0.9,0.4h-24c-0.4,0-0.7-0.1-0.9-0.4c-0.3-0.3-0.4-0.6-0.4-0.9c0-0.4,0.1-0.7,0.4-0.9
				C379.3,273.1,379.6,272.9,380,272.9z"/>
		</g>
	</g>
	<g transform="translate(482 0)">
		<g id="icon-twitter">
			<path class="st0" d="M452.9,265.6c-0.8,1.2-1.8,2.2-2.9,3c0,0.2,0,0.4,0,0.8c0,1.5-0.2,3.1-0.7,4.6s-1.1,3-2.1,4.4
				c-0.9,1.4-2,2.7-3.3,3.8c-1.3,1.1-2.8,2-4.6,2.6c-1.8,0.6-3.7,1-5.8,1c-3.2,0-6.2-0.9-8.9-2.6c0.4,0,0.9,0.1,1.4,0.1
				c2.7,0,5.1-0.8,7.2-2.5c-1.3,0-2.4-0.4-3.4-1.2c-1-0.7-1.7-1.7-2-2.8c0.4,0.1,0.8,0.1,1.1,0.1c0.5,0,1-0.1,1.5-0.2
				c-1.3-0.3-2.4-0.9-3.3-2c-0.9-1.1-1.3-2.3-1.3-3.7v-0.1c0.8,0.5,1.7,0.7,2.6,0.7c-0.8-0.5-1.4-1.2-1.9-2.1s-0.7-1.8-0.7-2.8
				c0-1,0.3-2,0.8-2.9c1.4,1.8,3.2,3.2,5.3,4.3s4.3,1.7,6.6,1.8c-0.1-0.5-0.1-0.9-0.1-1.3c0-1.6,0.6-3,1.7-4.1s2.5-1.7,4.1-1.7
				c1.7,0,3.1,0.6,4.2,1.8c1.3-0.3,2.5-0.7,3.7-1.4c-0.4,1.4-1.3,2.4-2.5,3.2C450.7,266.3,451.8,266,452.9,265.6L452.9,265.6z"/>
		</g>
	</g>
	<g transform="translate(528 0)">
		<g id="icon-facebook">
			<path class="st0" d="M479.1,268.2h4.6l-0.5,5.1h-4.1V288H473v-14.7h-3v-5.1h3v-3.1c0-2.2,0.5-3.8,1.5-4.9c1-1.1,2.7-1.7,5.1-1.7
				h4.1v5.1h-2.5c-0.5,0-0.8,0-1.1,0.1c-0.3,0.1-0.5,0.2-0.6,0.4c-0.1,0.2-0.2,0.4-0.2,0.6c0,0.2-0.1,0.5-0.1,0.9V268.2L479.1,268.2
				z"/>
		</g>
	</g>
	<g transform="translate(558 0)">
		<g id="icon-github">
			<path class="st0" d="M527.4,274.3c0,3-0.9,5.7-2.6,8.1c-1.7,2.4-4,4-6.8,5c-0.3,0.1-0.6,0-0.7-0.1s-0.2-0.3-0.2-0.5v-3.8
				c0-1.2-0.3-2-0.9-2.5c0.7-0.1,1.3-0.2,1.8-0.3c0.5-0.1,1.1-0.4,1.7-0.7c0.6-0.3,1.1-0.7,1.4-1.2c0.4-0.5,0.7-1.1,0.9-1.9
				c0.2-0.8,0.4-1.7,0.4-2.7c0-1.4-0.5-2.7-1.4-3.7c0.4-1.1,0.4-2.3-0.1-3.6c-0.3-0.1-0.8,0-1.4,0.2s-1.2,0.5-1.6,0.8l-0.7,0.4
				c-1.1-0.3-2.3-0.5-3.4-0.5s-2.3,0.2-3.4,0.5c-0.2-0.1-0.4-0.3-0.8-0.5s-0.8-0.4-1.5-0.7c-0.7-0.3-1.2-0.3-1.5-0.2
				c-0.5,1.3-0.6,2.6-0.1,3.6c-0.9,1-1.4,2.2-1.4,3.7c0,1,0.1,1.9,0.4,2.7c0.2,0.8,0.6,1.4,0.9,1.9c0.4,0.5,0.9,0.9,1.4,1.2
				c0.6,0.3,1.1,0.6,1.7,0.7c0.5,0.1,1.2,0.2,1.8,0.3c-0.5,0.4-0.8,1-0.9,1.8c-0.3,0.1-0.5,0.2-0.8,0.3s-0.6,0.1-1,0.1
				s-0.8-0.1-1.2-0.4c-0.4-0.3-0.7-0.6-1-1.1c-0.2-0.4-0.5-0.7-0.9-0.9c-0.4-0.2-0.6-0.4-0.9-0.4l-0.4-0.1c-0.3,0-0.4,0-0.5,0.1
				c-0.1,0.1-0.1,0.1-0.1,0.2c0,0.1,0.1,0.2,0.2,0.3c0.1,0.1,0.1,0.2,0.2,0.2l0.1,0.1c0.3,0.1,0.5,0.3,0.8,0.7
				c0.3,0.3,0.4,0.6,0.6,0.9l0.2,0.4c0.2,0.5,0.4,0.8,0.8,1.1c0.4,0.3,0.8,0.5,1.2,0.5s0.8,0.1,1.2,0.1c0.4,0,0.7,0,1-0.1l0.4-0.1
				c0,0.5,0,1,0,1.6c0,0.6,0,0.9,0,1c0,0.2-0.1,0.4-0.2,0.5s-0.4,0.2-0.7,0.1c-2.8-0.9-5-2.6-6.8-5c-1.7-2.4-2.6-5.1-2.6-8.1
				c0-2.5,0.6-4.8,1.8-6.9c1.2-2.1,2.9-3.8,5-5c2.1-1.2,4.4-1.8,6.9-1.8c2.5,0,4.8,0.6,6.9,1.8c2.1,1.2,3.8,2.9,5,5
				C526.8,269.5,527.4,271.8,527.4,274.3L527.4,274.3z"/>
		</g>
	</g>
	<g transform="translate(606 0)">
		<g id="icon-rss">
			<path class="st0" d="M554.9,282.3c0,1-0.3,1.8-1,2.4c-0.7,0.7-1.5,1-2.4,1c-1,0-1.8-0.3-2.4-1c-0.7-0.7-1-1.5-1-2.4
				s0.3-1.8,1-2.4c0.7-0.7,1.5-1,2.4-1c1,0,1.8,0.3,2.4,1C554.5,280.5,554.9,281.3,554.9,282.3z M564,284.5c0,0.3-0.1,0.6-0.3,0.9
				c-0.2,0.3-0.5,0.4-0.8,0.4h-2.4c-0.3,0-0.6-0.1-0.8-0.3c-0.2-0.2-0.3-0.4-0.4-0.7c-0.3-2.7-1.4-5.1-3.3-7s-4.3-3-7-3.3
				c-0.3,0-0.5-0.1-0.7-0.4c-0.2-0.2-0.3-0.5-0.3-0.8v-2.4c0-0.3,0.1-0.6,0.4-0.8c0.2-0.2,0.5-0.3,0.8-0.3h0.1
				c1.9,0.2,3.7,0.6,5.5,1.4c1.7,0.8,3.3,1.9,4.6,3.2c1.4,1.3,2.4,2.9,3.2,4.6C563.4,280.7,563.8,282.6,564,284.5L564,284.5z
				 M573.1,284.5c0,0.3-0.1,0.6-0.3,0.8c-0.2,0.2-0.5,0.4-0.8,0.4h-2.6c-0.3,0-0.6-0.1-0.8-0.3c-0.2-0.2-0.3-0.5-0.3-0.8
				c-0.1-2.6-0.7-5-1.8-7.3c-1.1-2.3-2.4-4.3-4.1-6c-1.7-1.7-3.7-3.1-6-4.1c-2.3-1.1-4.7-1.7-7.3-1.8c-0.3,0-0.6-0.1-0.8-0.3
				s-0.3-0.5-0.3-0.8v-2.6c0-0.3,0.1-0.6,0.4-0.8c0.2-0.2,0.5-0.3,0.8-0.3h0.1c3.1,0.2,6.1,0.9,9,2.1c2.9,1.3,5.4,3,7.6,5.3
				c2.2,2.2,4,4.7,5.3,7.6C572.3,278.4,573,281.4,573.1,284.5L573.1,284.5z"/>
		</g>
	</g>
	<g transform="translate(647 0)">
		<g id="icon-site">
			<path class="st0" d="M615,280c0-0.5-0.2-0.9-0.5-1.2l-3.7-3.7c-0.3-0.3-0.7-0.5-1.2-0.5c-0.5,0-0.9,0.2-1.3,0.6
				c0,0,0.1,0.1,0.3,0.3c0.2,0.2,0.3,0.3,0.4,0.4c0.1,0.1,0.2,0.2,0.3,0.3s0.2,0.3,0.2,0.5c0,0.1,0.1,0.3,0.1,0.5
				c0,0.5-0.2,0.9-0.5,1.2c-0.3,0.3-0.7,0.5-1.2,0.5c-0.2,0-0.3,0-0.5-0.1c-0.1,0-0.3-0.1-0.5-0.2s-0.3-0.2-0.3-0.3
				c-0.1-0.1-0.2-0.2-0.4-0.4c-0.2-0.2-0.3-0.3-0.3-0.3c-0.4,0.4-0.6,0.8-0.6,1.3c0,0.5,0.2,0.9,0.5,1.2l3.7,3.7
				c0.3,0.3,0.7,0.5,1.2,0.5c0.5,0,0.9-0.2,1.2-0.5l2.6-2.6C614.8,280.9,615,280.5,615,280L615,280z M602.4,267.4
				c0-0.5-0.2-0.9-0.5-1.2l-3.7-3.7c-0.3-0.3-0.7-0.5-1.2-0.5c-0.5,0-0.9,0.2-1.2,0.5l-2.6,2.6c-0.3,0.3-0.5,0.7-0.5,1.2
				c0,0.5,0.2,0.9,0.5,1.2l3.7,3.7c0.3,0.3,0.7,0.5,1.2,0.5c0.5,0,0.9-0.2,1.3-0.6c0,0-0.1-0.1-0.3-0.3s-0.3-0.3-0.4-0.4
				c-0.1-0.1-0.2-0.2-0.3-0.3s-0.2-0.3-0.2-0.5c0-0.1-0.1-0.3-0.1-0.5c0-0.5,0.2-0.9,0.5-1.2c0.3-0.3,0.7-0.5,1.2-0.5
				c0.2,0,0.3,0,0.5,0.1c0.1,0,0.3,0.1,0.5,0.2c0.2,0.1,0.3,0.2,0.3,0.3c0.1,0.1,0.2,0.2,0.4,0.4c0.2,0.2,0.3,0.3,0.3,0.3
				C602.2,268.3,602.4,267.9,602.4,267.4L602.4,267.4z M618.4,280c0,1.4-0.5,2.6-1.5,3.6l-2.6,2.6c-1,1-2.2,1.5-3.6,1.5
				c-1.4,0-2.7-0.5-3.6-1.5l-3.7-3.7c-1-1-1.5-2.2-1.5-3.6c0-1.5,0.5-2.7,1.6-3.7l-1.6-1.6c-1,1-2.3,1.6-3.7,1.6
				c-1.4,0-2.6-0.5-3.6-1.5l-3.7-3.7c-1-1-1.5-2.2-1.5-3.6c0-1.4,0.5-2.6,1.5-3.6l2.6-2.6c1-1,2.2-1.5,3.6-1.5
				c1.4,0,2.7,0.5,3.6,1.5l3.7,3.7c1,1,1.5,2.2,1.5,3.6c0,1.5-0.5,2.7-1.6,3.7l1.6,1.6c1-1,2.3-1.6,3.7-1.6c1.4,0,2.6,0.5,3.6,1.5
				l3.7,3.7C617.9,277.4,618.4,278.6,618.4,280z"/>
		</g>
	</g>
	<g transform="translate(693 0)">
		<g id="icon-pinterest">
			<path class="st0" d="M662.4,274.3c0,2.5-0.6,4.8-1.8,6.9c-1.2,2.1-2.9,3.8-5,5s-4.4,1.8-6.9,1.8c-1.3,0-2.6-0.2-3.9-0.6
				c0.7-1.1,1.2-2.1,1.4-2.9c0.1-0.4,0.4-1.7,1-3.8c0.2,0.5,0.7,0.9,1.3,1.2c0.6,0.3,1.3,0.5,2,0.5c1.4,0,2.7-0.4,3.9-1.2
				c1.1-0.8,2-1.9,2.6-3.4c0.6-1.4,0.9-3,0.9-4.8c0-1.4-0.4-2.6-1.1-3.8s-1.7-2.2-3.1-2.9s-2.9-1.1-4.6-1.1c-1.3,0-2.4,0.2-3.5,0.5
				c-1.1,0.3-2,0.8-2.8,1.4c-0.8,0.6-1.4,1.2-1.9,2s-0.9,1.5-1.2,2.3c-0.3,0.8-0.4,1.6-0.4,2.4c0,1.2,0.2,2.3,0.7,3.3s1.2,1.6,2.1,2
				c0.4,0.1,0.6,0,0.7-0.4c0-0.1,0.1-0.3,0.1-0.6c0.1-0.3,0.1-0.5,0.1-0.5c0.1-0.3,0-0.5-0.2-0.8c-0.6-0.7-0.9-1.6-0.9-2.7
				c0-1.8,0.6-3.3,1.9-4.6c1.2-1.3,2.9-1.9,4.9-1.9c1.8,0,3.2,0.5,4.2,1.5c1,1,1.5,2.2,1.5,3.8c0,2-0.4,3.7-1.2,5.2
				c-0.8,1.4-1.9,2.1-3.1,2.1c-0.7,0-1.3-0.3-1.8-0.8s-0.6-1.1-0.4-1.9c0.1-0.4,0.3-1,0.5-1.7c0.2-0.7,0.4-1.3,0.5-1.8
				c0.1-0.5,0.2-1,0.2-1.3c0-0.6-0.2-1.1-0.5-1.5c-0.3-0.4-0.8-0.6-1.4-0.6c-0.7,0-1.4,0.3-1.9,1c-0.5,0.7-0.8,1.5-0.8,2.5
				c0,0.9,0.1,1.6,0.4,2.2l-1.8,7.5c-0.2,0.8-0.3,1.9-0.2,3.2c-2.5-1.1-4.4-2.8-5.9-5c-1.5-2.3-2.3-4.8-2.3-7.6
				c0-2.5,0.6-4.8,1.8-6.9c1.2-2.1,2.9-3.8,5-5c2.1-1.2,4.4-1.8,6.9-1.8c2.5,0,4.8,0.6,6.9,1.8c2.1,1.2,3.8,2.9,5,5
				C661.8,269.5,662.4,271.8,662.4,274.3L662.4,274.3z"/>
		</g>
	</g>
	<g transform="translate(0 48)">
		<g id="icon-google-plus">
			<path class="st0" d="M-42.4,332.4c0-0.3,0-0.5-0.1-0.7c-0.1-0.2-0.1-0.4-0.2-0.6c-0.1-0.2-0.2-0.4-0.3-0.6
				c-0.1-0.2-0.3-0.4-0.4-0.5c-0.1-0.1-0.3-0.3-0.5-0.5c-0.2-0.2-0.4-0.4-0.5-0.5c-0.1-0.1-0.3-0.3-0.6-0.5
				c-0.3-0.2-0.5-0.3-0.6-0.4c-0.1-0.1-0.3-0.2-0.6-0.4s-0.5-0.3-0.5-0.4c-0.2,0-0.5,0-0.9,0c-0.6,0-1.3,0-1.9,0.1
				c-0.6,0.1-1.3,0.2-1.9,0.4c-0.7,0.2-1.3,0.5-1.8,0.8c-0.5,0.3-0.9,0.8-1.2,1.3c-0.3,0.6-0.5,1.2-0.5,1.9c0,0.8,0.2,1.5,0.6,2.2
				c0.4,0.6,1,1.1,1.7,1.5c0.7,0.4,1.4,0.6,2.2,0.8c0.8,0.2,1.5,0.3,2.3,0.3c0.7,0,1.4-0.1,2-0.2c0.6-0.1,1.2-0.4,1.8-0.7
				c0.6-0.3,1-0.8,1.3-1.3C-42.5,333.8-42.4,333.2-42.4,332.4z M-44.5,317c0-0.7-0.1-1.5-0.3-2.3c-0.2-0.8-0.5-1.6-0.8-2.3
				s-0.9-1.4-1.5-1.9c-0.6-0.5-1.3-0.7-2.1-0.7c-1.1,0-2,0.4-2.6,1.2c-0.6,0.8-0.9,1.8-0.9,2.9c0,0.6,0.1,1.1,0.2,1.8
				c0.1,0.6,0.3,1.2,0.6,1.9c0.3,0.6,0.6,1.2,1,1.7c0.4,0.5,0.8,0.9,1.4,1.2s1.1,0.5,1.7,0.5c1.2,0,2-0.4,2.5-1.1
				S-44.5,318.2-44.5,317z M-46.8,308.6h7.8l-2.4,1.4h-2.4c0.8,0.5,1.5,1.3,2,2.3c0.5,1,0.7,2,0.7,3c0,0.9-0.1,1.7-0.4,2.3
				c-0.3,0.7-0.6,1.2-1,1.7c-0.4,0.4-0.8,0.8-1.2,1.2c-0.4,0.4-0.7,0.7-1,1.1s-0.4,0.8-0.4,1.2c0,0.3,0.1,0.6,0.3,0.9
				c0.2,0.3,0.5,0.6,0.8,0.9c0.3,0.3,0.7,0.6,1,0.9s0.8,0.6,1.1,1c0.4,0.4,0.7,0.8,1,1.2s0.6,0.9,0.8,1.5c0.2,0.6,0.3,1.2,0.3,1.9
				c0,1.9-0.8,3.6-2.5,5c-1.8,1.6-4.3,2.3-7.5,2.3c-0.7,0-1.4-0.1-2.1-0.2c-0.7-0.1-1.4-0.3-2.2-0.6s-1.4-0.6-1.9-1
				c-0.6-0.4-1-0.9-1.4-1.6s-0.5-1.4-0.5-2.2c0-0.7,0.2-1.5,0.7-2.4c0.4-0.8,1-1.4,1.7-2c0.8-0.6,1.6-1,2.6-1.3
				c1-0.3,1.9-0.5,2.8-0.6s1.8-0.2,2.7-0.2c-0.8-1-1.1-1.9-1.1-2.7c0-0.1,0-0.3,0-0.4c0-0.1,0.1-0.3,0.1-0.3c0-0.1,0.1-0.2,0.1-0.4
				c0.1-0.2,0.1-0.3,0.1-0.4c-0.5,0.1-0.9,0.1-1.3,0.1c-1.8,0-3.3-0.6-4.6-1.8c-1.3-1.2-1.9-2.6-1.9-4.4c0-1.7,0.6-3.2,1.7-4.5
				s2.5-2.2,4.2-2.5C-49.1,308.7-47.9,308.6-46.8,308.6L-46.8,308.6z M-28.3,313.1v2.3h-4.6v4.6h-2.3v-4.6h-4.6v-2.3h4.6v-4.6h2.3
				v4.6C-32.9,313.1-28.3,313.1-28.3,313.1z"/>
		</g>
	</g>
	<g transform="translate(48 48)">
		<g id="icon-linkedin">
			<path class="st0" d="M-3.8,317.4v17.7h-5.9v-17.7C-9.7,317.4-3.8,317.4-3.8,317.4z M-3.4,312c0,0.9-0.3,1.6-0.9,2.2
				s-1.4,0.9-2.4,0.9h0c-1,0-1.8-0.3-2.4-0.9c-0.6-0.6-0.9-1.3-0.9-2.2c0-0.9,0.3-1.6,0.9-2.2s1.4-0.9,2.4-0.9s1.8,0.3,2.4,0.9
				S-3.4,311.1-3.4,312z M17.4,325v10.1h-5.9v-9.5c0-1.3-0.2-2.2-0.7-2.9c-0.5-0.7-1.2-1.1-2.3-1.1c-0.8,0-1.4,0.2-1.9,0.6
				c-0.5,0.4-0.9,0.9-1.1,1.5c-0.1,0.4-0.2,0.8-0.2,1.4v9.9h-5.9c0-4.8,0-8.6,0-11.6s0-4.7,0-5.3l0-0.9h5.9v2.6h0
				c0.2-0.4,0.5-0.7,0.7-1c0.3-0.3,0.6-0.6,1-0.9c0.4-0.3,0.9-0.6,1.6-0.8c0.6-0.2,1.3-0.3,2-0.3c2,0,3.7,0.7,4.9,2
				C16.8,320.4,17.4,322.4,17.4,325L17.4,325z"/>
		</g>
	</g>
	<g transform="translate(96 48)">
		<g id="icon-youtube">
			<path class="st0" d="M60.9,322.3c0-0.4-0.2-0.8-0.5-1l-9.1-5.7c-0.4-0.2-0.8-0.3-1.2,0c-0.4,0.2-0.6,0.5-0.6,1V328
				c0,0.5,0.2,0.8,0.6,1c0.2,0.1,0.4,0.1,0.6,0.1c0.2,0,0.4-0.1,0.6-0.2l9.1-5.7C60.7,323,60.9,322.7,60.9,322.3L60.9,322.3z
				 M70,322.3c0,1.1,0,2,0,2.7c0,0.6-0.1,1.5-0.2,2.4s-0.2,1.9-0.4,2.6c-0.2,0.9-0.6,1.6-1.2,2.2s-1.4,0.9-2.2,1
				c-2.6,0.3-6.6,0.4-12,0.4c-5.3,0-9.3-0.1-12-0.4c-0.8-0.1-1.6-0.4-2.2-1c-0.6-0.6-1.1-1.3-1.2-2.2c-0.2-0.8-0.3-1.7-0.4-2.6
				S38,325.6,38,325c0-0.6,0-1.5,0-2.7s0-2,0-2.7c0-0.6,0.1-1.5,0.2-2.4c0.1-1,0.2-1.9,0.4-2.6c0.2-0.9,0.6-1.6,1.2-2.2
				c0.6-0.6,1.4-0.9,2.2-1c2.6-0.3,6.6-0.4,12-0.4c5.3,0,9.3,0.1,12,0.4c0.8,0.1,1.6,0.4,2.2,1c0.6,0.6,1.1,1.3,1.2,2.2
				c0.2,0.8,0.3,1.7,0.4,2.6c0.1,1,0.1,1.8,0.2,2.4C70,320.2,70,321.1,70,322.3z"/>
		</g>
	</g>
	<g transform="translate(144 48)">
		<g id="icon-stack-overflow">
			<path class="st0" d="M102.6,331.3v2.7l-12.6,0v-2.7L102.6,331.3z M106.9,325.1v12.5l0,0.6v0l-20.9,0v-13.1h2.2v11h16.6v-11
				C104.7,325.1,106.9,325.1,106.9,325.1z M90.3,326.7l12.6,1.2l-0.2,2.7l-12.6-1.2L90.3,326.7z M91.5,321l12.2,3.3l-0.7,2.6
				l-12.2-3.3L91.5,321z M94.4,314.8l10.9,6.4l-1.4,2.3l-10.9-6.4L94.4,314.8z M100.9,308.9l7.1,10.4l-2.2,1.5l-7.1-10.4
				L100.9,308.9z M108.9,306.3l2.2,12.4l-2.7,0.5l-2.2-12.4L108.9,306.3z"/>
		</g>
	</g>
	<g transform="translate(192 48)">
		<g id="icon-skype">
			<path class="st0" d="M154.9,325.3c0-0.6-0.1-1.1-0.3-1.6c-0.2-0.5-0.5-0.9-0.9-1.2c-0.3-0.3-0.8-0.6-1.3-0.9s-1-0.5-1.5-0.6
				s-1-0.3-1.6-0.4l-1.9-0.4c-0.4-0.1-0.6-0.1-0.8-0.2c-0.2,0-0.4-0.1-0.6-0.2s-0.4-0.2-0.5-0.3c-0.1-0.1-0.2-0.2-0.3-0.4
				c-0.1-0.2-0.1-0.3-0.1-0.5c0-0.9,0.9-1.4,2.6-1.4c0.5,0,1,0.1,1.4,0.2c0.4,0.1,0.7,0.3,1,0.5c0.2,0.2,0.5,0.4,0.7,0.6
				s0.5,0.4,0.7,0.5c0.3,0.1,0.5,0.2,0.9,0.2c0.6,0,1-0.2,1.3-0.6c0.3-0.4,0.5-0.8,0.5-1.4c0-0.7-0.3-1.2-1-1.8
				c-0.7-0.5-1.5-0.9-2.5-1.2c-1-0.3-2.1-0.4-3.3-0.4c-0.8,0-1.6,0.1-2.4,0.3c-0.8,0.2-1.5,0.5-2.1,0.8s-1.2,0.9-1.6,1.6
				c-0.4,0.7-0.6,1.4-0.6,2.3c0,0.7,0.1,1.4,0.3,1.9c0.2,0.5,0.6,1,1,1.3c0.4,0.4,0.9,0.6,1.4,0.9c0.5,0.2,1.1,0.4,1.8,0.6l2.6,0.6
				c1.1,0.3,1.7,0.5,2,0.6c0.4,0.2,0.6,0.6,0.6,1.1c0,0.5-0.2,0.8-0.7,1.2c-0.5,0.3-1.1,0.5-1.9,0.5c-0.6,0-1.2-0.1-1.6-0.3
				c-0.5-0.2-0.9-0.4-1.2-0.7c-0.3-0.3-0.6-0.5-0.8-0.8s-0.5-0.5-0.8-0.7s-0.6-0.3-1-0.3c-0.6,0-1,0.2-1.3,0.5s-0.5,0.8-0.5,1.3
				c0,1.1,0.7,2,2.2,2.8s3.2,1.2,5.2,1.2c0.9,0,1.7-0.1,2.5-0.3s1.5-0.5,2.2-1c0.7-0.4,1.2-1,1.6-1.7
				C154.7,326.9,154.9,326.1,154.9,325.3L154.9,325.3z M161.4,329.1c0,1.9-0.7,3.5-2,4.8c-1.3,1.3-3,2-4.8,2c-1.5,0-2.9-0.5-4.2-1.4
				c-0.9,0.2-1.8,0.3-2.7,0.3c-1.7,0-3.3-0.3-4.9-1c-1.6-0.7-2.9-1.6-4-2.7c-1.1-1.1-2-2.5-2.7-4c-0.7-1.6-1-3.2-1-4.9
				c0-0.9,0.1-1.8,0.3-2.7c-1-1.2-1.4-2.6-1.4-4.2c0-1.9,0.7-3.5,2-4.8c1.3-1.3,3-2,4.8-2c1.5,0,2.9,0.5,4.2,1.4
				c0.9-0.2,1.8-0.3,2.7-0.3c1.7,0,3.3,0.3,4.9,1c1.6,0.7,2.9,1.6,4,2.7s2,2.5,2.7,4c0.7,1.6,1,3.2,1,4.9c0,0.9-0.1,1.8-0.3,2.7
				C161,326.2,161.4,327.6,161.4,329.1z"/>
		</g>
	</g>
	<g transform="translate(240 48)">
		<g id="icon-vk">
			<path class="st0" d="M216.2,315.6c0.3,0.8-0.6,2.5-2.7,5.3c-0.3,0.4-0.7,0.9-1.2,1.5c-0.9,1.2-1.5,2-1.6,2.3
				c-0.2,0.5-0.1,1,0.3,1.4c0.2,0.3,0.7,0.7,1.4,1.5h0l0.1,0.1c1.7,1.6,2.8,2.9,3.4,3.9c0,0.1,0.1,0.1,0.1,0.2s0.1,0.2,0.1,0.5
				c0,0.2,0,0.4,0,0.6c0,0.2-0.2,0.3-0.4,0.5c-0.2,0.1-0.6,0.2-1.1,0.2l-4.6,0.1c-0.3,0.1-0.6,0-1-0.1c-0.4-0.1-0.7-0.2-0.9-0.4
				l-0.4-0.2c-0.4-0.3-0.8-0.6-1.3-1.1s-0.9-1-1.2-1.4c-0.3-0.4-0.7-0.8-1.1-1c-0.4-0.3-0.7-0.4-1-0.3c0,0-0.1,0-0.1,0.1
				s-0.2,0.1-0.3,0.3c-0.1,0.1-0.3,0.3-0.4,0.5c-0.1,0.2-0.2,0.5-0.3,0.9s-0.1,0.9-0.1,1.4c0,0.2,0,0.3-0.1,0.5
				c0,0.1-0.1,0.3-0.1,0.3l-0.1,0.1c-0.2,0.2-0.5,0.4-0.9,0.4h-2.1c-0.8,0-1.7-0.1-2.6-0.3c-0.9-0.2-1.7-0.6-2.3-0.9
				c-0.7-0.4-1.3-0.8-1.8-1.2c-0.6-0.4-1-0.7-1.3-1l-0.4-0.4c-0.1-0.1-0.3-0.3-0.5-0.5c-0.2-0.2-0.6-0.8-1.3-1.6
				c-0.6-0.8-1.3-1.7-1.9-2.7c-0.6-1-1.3-2.2-2.2-3.8s-1.6-3.2-2.3-4.9c-0.1-0.2-0.1-0.4-0.1-0.5c0-0.1,0-0.2,0.1-0.3l0.1-0.1
				c0.2-0.2,0.5-0.3,1-0.3l4.9,0c0.1,0,0.3,0.1,0.4,0.1c0.1,0.1,0.2,0.1,0.3,0.2l0.1,0.1c0.2,0.1,0.3,0.3,0.4,0.6
				c0.2,0.6,0.5,1.2,0.8,1.8c0.3,0.6,0.6,1.1,0.7,1.5l0.3,0.5c0.3,0.7,0.7,1.3,1,1.9c0.3,0.5,0.6,0.9,0.9,1.2
				c0.3,0.3,0.5,0.5,0.7,0.7c0.2,0.2,0.4,0.3,0.6,0.3c0.2,0,0.3,0,0.5-0.1c0,0,0.1,0,0.1-0.1c0,0,0.1-0.2,0.2-0.4
				c0.1-0.2,0.2-0.5,0.2-0.8c0.1-0.3,0.1-0.8,0.2-1.4c0.1-0.6,0.1-1.4,0-2.2c0-0.5-0.1-0.9-0.2-1.3c-0.1-0.4-0.2-0.7-0.3-0.8
				l-0.1-0.2c-0.3-0.4-0.8-0.7-1.5-0.8c-0.2,0-0.1-0.2,0.1-0.4c0.2-0.2,0.4-0.4,0.7-0.5c0.6-0.3,2.1-0.5,4.3-0.4
				c1,0,1.8,0.1,2.4,0.2c0.2,0.1,0.4,0.1,0.6,0.2c0.2,0.1,0.3,0.2,0.4,0.4c0.1,0.2,0.1,0.4,0.2,0.6c0,0.2,0.1,0.5,0.1,0.8s0,0.7,0,1
				c0,0.3,0,0.7,0,1.3c0,0.5,0,1,0,1.5c0,0.1,0,0.4,0,0.8c0,0.4,0,0.7,0,0.9s0,0.4,0.1,0.7s0.1,0.5,0.2,0.7c0.1,0.2,0.2,0.3,0.4,0.4
				c0.1,0,0.2,0,0.3,0.1c0.1,0,0.3,0,0.5-0.2s0.4-0.4,0.7-0.6c0.3-0.3,0.6-0.7,0.9-1.2c0.4-0.5,0.8-1.2,1.2-1.9
				c0.7-1.2,1.4-2.6,1.9-4c0-0.1,0.1-0.2,0.2-0.3c0.1-0.1,0.1-0.2,0.2-0.2l0.1-0.1l0.1,0c0,0,0.1,0,0.2-0.1c0.2,0,0.3,0,0.4,0l5.1,0
				c0.5-0.1,0.8,0,1.1,0c0.3,0.1,0.5,0.2,0.6,0.3L216.2,315.6z"/>
		</g>
	</g>
	<g transform="translate(290 48)">
		<g id="icon-arrow-down">
			<path class="st0" d="M236.1,315.2c-0.4-0.4-1.1-0.4-1.6,0c-0.4,0.4-0.4,1.1,0,1.5l12.7,12.5c0.4,0.4,1.1,0.4,1.6,0l12.7-12.5
				c0.4-0.4,0.4-1.1,0-1.5c-0.4-0.4-1.1-0.4-1.6,0L248,326.7L236.1,315.2L236.1,315.2z"/>
		</g>
	</g>
	<g transform="translate(338 48)">
		<g id="icon-instagram">
			<path class="st0" d="M356.4,308.6h-21.2c-1.8,0-3.3,1.5-3.3,3.3v21.2c0,1.8,1.5,3.3,3.3,3.3h21.2c1.8,0,3.3-1.5,3.3-3.3v-21.2
				C359.7,310,358.2,308.6,356.4,308.6z M351.2,312.5c0-0.4,0.3-0.8,0.8-0.8h3.8c0.4,0,0.8,0.3,0.8,0.8v3.8c0,0.4-0.3,0.8-0.8,0.8
				H352c-0.4,0-0.8-0.3-0.8-0.8V312.5z M345.8,317.2c3,0,5.3,2.4,5.3,5.3c0,2.9-2.4,5.3-5.3,5.3c-3,0-5.3-2.4-5.3-5.3
				C340.5,319.6,342.9,317.2,345.8,317.2z M356.6,332.4c0,0.4-0.3,0.8-0.8,0.8h-20c-0.4,0-0.8-0.3-0.8-0.8v-12.1h2.6
				c-0.2,0.7-0.3,1.5-0.3,2.2c0,4.7,3.8,8.4,8.5,8.4c4.7,0,8.5-3.8,8.5-8.4c0-0.8-0.1-1.5-0.3-2.2h2.6V332.4z"/>
		</g>
	</g>
	<g transform="translate(338 48)">
		<g id="icon-direction_1_">
			<path class="st0" d="M308,310.6h-10.4l3.1,3.1l-7.4,7.4h0v12.9h5.6v-10.5l5.7-5.7l3.3,3.3V310.6z M292.8,323.4l-8.8-8.8l4-4
				l7.6,7.6l-2.8,2.8h0V323.4z"/>
		</g>
	</g>
</g>
</svg>
